<svg width="230" height="93" viewBox="0 0 230 93" fill="none" xmlns="http://www.w3.org/2000/svg">
<path d="M17.0166 15.568C17.0166 12.7253 17.6316 10.197 18.8616 7.983C20.0916 5.74167 21.7999 4.006 23.9866 2.776C26.2006 1.51867 28.7016 0.889998 31.4896 0.889998C34.9062 0.889998 37.8309 1.792 40.2636 3.596C42.6962 5.4 44.3226 7.86 45.1426 10.976H37.4346C36.8606 9.77333 36.0406 8.85767 34.9746 8.229C33.9359 7.60033 32.7469 7.286 31.4076 7.286C29.2482 7.286 27.4989 8.03767 26.1596 9.541C24.8202 11.0443 24.1506 13.0533 24.1506 15.568C24.1506 18.0827 24.8202 20.0917 26.1596 21.595C27.4989 23.0983 29.2482 23.85 31.4076 23.85C32.7469 23.85 33.9359 23.5357 34.9746 22.907C36.0406 22.2783 36.8606 21.3627 37.4346 20.16H45.1426C44.3226 23.276 42.6962 25.736 40.2636 27.54C37.8309 29.3167 34.9062 30.205 31.4896 30.205C28.7016 30.205 26.2006 29.59 23.9866 28.36C21.7999 27.1027 20.0916 25.367 18.8616 23.153C17.6316 20.939 17.0166 18.4107 17.0166 15.568ZM59.85 30.328C57.6087 30.328 55.586 29.8497 53.782 28.893C52.0054 27.9363 50.5977 26.5697 49.559 24.793C48.5477 23.0163 48.042 20.939 48.042 18.561C48.042 16.2103 48.5614 14.1467 49.6 12.37C50.6387 10.566 52.06 9.18567 53.864 8.229C55.668 7.27233 57.6907 6.794 59.932 6.794C62.1734 6.794 64.196 7.27233 66 8.229C67.804 9.18567 69.2254 10.566 70.264 12.37C71.3027 14.1467 71.822 16.2103 71.822 18.561C71.822 20.9117 71.289 22.989 70.223 24.793C69.1844 26.5697 67.7494 27.9363 65.918 28.893C64.114 29.8497 62.0914 30.328 59.85 30.328ZM59.85 24.26C61.1894 24.26 62.3237 23.768 63.253 22.784C64.2097 21.8 64.688 20.3923 64.688 18.561C64.688 16.7297 64.2234 15.322 63.294 14.338C62.392 13.354 61.2714 12.862 59.932 12.862C58.5654 12.862 57.431 13.354 56.529 14.338C55.627 15.2947 55.176 16.7023 55.176 18.561C55.176 20.3923 55.6134 21.8 56.488 22.784C57.39 23.768 58.5107 24.26 59.85 24.26ZM89.4815 6.876C92.1602 6.876 94.2922 7.75067 95.8775 9.5C97.4902 11.222 98.2965 13.6 98.2965 16.634V30H91.3265V17.577C91.3265 16.0463 90.9302 14.8573 90.1375 14.01C89.3448 13.1627 88.2788 12.739 86.9395 12.739C85.6002 12.739 84.5342 13.1627 83.7415 14.01C82.9488 14.8573 82.5525 16.0463 82.5525 17.577V30H75.5415V7.122H82.5525V10.156C83.2632 9.14467 84.2198 8.352 85.4225 7.778C86.6252 7.17667 87.9782 6.876 89.4815 6.876ZM111.86 6.794C113.473 6.794 114.881 7.122 116.083 7.778C117.313 8.434 118.256 9.295 118.912 10.361V7.122H125.923V29.959C125.923 32.0637 125.5 33.9633 124.652 35.658C123.832 37.38 122.561 38.7467 120.839 39.758C119.145 40.7693 117.026 41.275 114.484 41.275C111.095 41.275 108.348 40.4687 106.243 38.856C104.139 37.2707 102.936 35.1113 102.635 32.378H109.564C109.783 33.2527 110.302 33.936 111.122 34.428C111.942 34.9473 112.954 35.207 114.156 35.207C115.605 35.207 116.753 34.7833 117.6 33.936C118.475 33.116 118.912 31.7903 118.912 29.959V26.72C118.229 27.786 117.286 28.6607 116.083 29.344C114.881 30 113.473 30.328 111.86 30.328C109.974 30.328 108.266 29.8497 106.735 28.893C105.205 27.909 103.988 26.5287 103.086 24.752C102.212 22.948 101.774 20.8707 101.774 18.52C101.774 16.1693 102.212 14.1057 103.086 12.329C103.988 10.5523 105.205 9.18567 106.735 8.229C108.266 7.27233 109.974 6.794 111.86 6.794ZM118.912 18.561C118.912 16.8117 118.42 15.4313 117.436 14.42C116.48 13.4087 115.304 12.903 113.91 12.903C112.516 12.903 111.327 13.4087 110.343 14.42C109.387 15.404 108.908 16.7707 108.908 18.52C108.908 20.2693 109.387 21.6633 110.343 22.702C111.327 23.7133 112.516 24.219 113.91 24.219C115.304 24.219 116.48 23.7133 117.436 22.702C118.42 21.6907 118.912 20.3103 118.912 18.561ZM138.007 10.935C138.827 9.67767 139.852 8.69367 141.082 7.983C142.312 7.245 143.678 6.876 145.182 6.876V14.297H143.255C141.505 14.297 140.193 14.6797 139.319 15.445C138.444 16.183 138.007 17.495 138.007 19.381V30H130.996V7.122H138.007V10.935ZM147.139 18.52C147.139 16.1693 147.576 14.1057 148.451 12.329C149.353 10.5523 150.569 9.18567 152.1 8.229C153.63 7.27233 155.339 6.794 157.225 6.794C158.837 6.794 160.245 7.122 161.448 7.778C162.678 8.434 163.621 9.295 164.277 10.361V7.122H171.288V30H164.277V26.761C163.593 27.827 162.637 28.688 161.407 29.344C160.204 30 158.796 30.328 157.184 30.328C155.325 30.328 153.63 29.8497 152.1 28.893C150.569 27.909 149.353 26.5287 148.451 24.752C147.576 22.948 147.139 20.8707 147.139 18.52ZM164.277 18.561C164.277 16.8117 163.785 15.4313 162.801 14.42C161.844 13.4087 160.669 12.903 159.275 12.903C157.881 12.903 156.692 13.4087 155.708 14.42C154.751 15.404 154.273 16.7707 154.273 18.52C154.273 20.2693 154.751 21.6633 155.708 22.702C156.692 23.7133 157.881 24.219 159.275 24.219C160.669 24.219 161.844 23.7133 162.801 22.702C163.785 21.6907 164.277 20.3103 164.277 18.561ZM189.111 24.055V30H185.544C183.002 30 181.02 29.385 179.599 28.155C178.178 26.8977 177.467 24.8613 177.467 22.046V12.944H174.679V7.122H177.467V1.546H184.478V7.122H189.07V12.944H184.478V22.128C184.478 22.8113 184.642 23.3033 184.97 23.604C185.298 23.9047 185.845 24.055 186.61 24.055H189.111ZM202.323 30.328C200.328 30.328 198.551 29.9863 196.993 29.303C195.435 28.6197 194.205 27.6903 193.303 26.515C192.401 25.3123 191.895 23.973 191.786 22.497H198.715C198.797 23.2897 199.166 23.932 199.822 24.424C200.478 24.916 201.284 25.162 202.241 25.162C203.116 25.162 203.785 24.998 204.25 24.67C204.742 24.3147 204.988 23.8637 204.988 23.317C204.988 22.661 204.646 22.1827 203.963 21.882C203.28 21.554 202.173 21.1987 200.642 20.816C199.002 20.4333 197.635 20.037 196.542 19.627C195.449 19.1897 194.506 18.52 193.713 17.618C192.92 16.6887 192.524 15.445 192.524 13.887C192.524 12.575 192.879 11.386 193.59 10.32C194.328 9.22667 195.394 8.36566 196.788 7.737C198.209 7.10833 199.89 6.794 201.831 6.794C204.701 6.794 206.956 7.50467 208.596 8.926C210.263 10.3473 211.22 12.2333 211.466 14.584H204.988C204.879 13.7913 204.523 13.1627 203.922 12.698C203.348 12.2333 202.583 12.001 201.626 12.001C200.806 12.001 200.177 12.165 199.74 12.493C199.303 12.7937 199.084 13.2173 199.084 13.764C199.084 14.42 199.426 14.912 200.109 15.24C200.82 15.568 201.913 15.896 203.389 16.224C205.084 16.6613 206.464 17.0987 207.53 17.536C208.596 17.946 209.525 18.6293 210.318 19.586C211.138 20.5153 211.562 21.7727 211.589 23.358C211.589 24.6973 211.206 25.9 210.441 26.966C209.703 28.0047 208.623 28.8247 207.202 29.426C205.808 30.0273 204.182 30.328 202.323 30.328ZM7.87966 63.218V92H0.86866V63.218H7.87966ZM25.7115 86.055V92H22.1445C19.6025 92 17.6208 91.385 16.1995 90.155C14.7781 88.8977 14.0675 86.8613 14.0675 84.046V74.944H11.2795V69.122H14.0675V63.546H21.0785V69.122H25.6705V74.944H21.0785V84.128C21.0785 84.8113 21.2425 85.3033 21.5705 85.604C21.8985 85.9047 22.4451 86.055 23.2105 86.055H25.7115ZM31.2157 63.218H38.3907L33.7987 74.206H29.0837L31.2157 63.218ZM51.8163 92.328C49.821 92.328 48.0443 91.9863 46.4863 91.303C44.9283 90.6197 43.6983 89.6903 42.7963 88.515C41.8943 87.3123 41.3886 85.973 41.2793 84.497H48.2083C48.2903 85.2897 48.6593 85.932 49.3153 86.424C49.9713 86.916 50.7776 87.162 51.7343 87.162C52.609 87.162 53.2786 86.998 53.7433 86.67C54.2353 86.3147 54.4813 85.8637 54.4813 85.317C54.4813 84.661 54.1396 84.1827 53.4563 83.882C52.773 83.554 51.666 83.1987 50.1353 82.816C48.4953 82.4333 47.1286 82.037 46.0353 81.627C44.942 81.1897 43.999 80.52 43.2063 79.618C42.4136 78.6887 42.0173 77.445 42.0173 75.887C42.0173 74.575 42.3726 73.386 43.0833 72.32C43.8213 71.2267 44.8873 70.3657 46.2813 69.737C47.7026 69.1083 49.3836 68.794 51.3243 68.794C54.1943 68.794 56.4493 69.5047 58.0893 70.926C59.7566 72.3473 60.7133 74.2333 60.9593 76.584H54.4813C54.372 75.7913 54.0166 75.1627 53.4153 74.698C52.8413 74.2333 52.076 74.001 51.1193 74.001C50.2993 74.001 49.6706 74.165 49.2333 74.493C48.796 74.7937 48.5773 75.2173 48.5773 75.764C48.5773 76.42 48.919 76.912 49.6023 77.24C50.313 77.568 51.4063 77.896 52.8823 78.224C54.577 78.6613 55.9573 79.0987 57.0233 79.536C58.0893 79.946 59.0186 80.6293 59.8113 81.586C60.6313 82.5153 61.055 83.7727 61.0823 85.358C61.0823 86.6973 60.6996 87.9 59.9343 88.966C59.1963 90.0047 58.1166 90.8247 56.6953 91.426C55.3013 92.0273 53.675 92.328 51.8163 92.328ZM72.8711 77.568C72.8711 74.7253 73.4861 72.197 74.7161 69.983C75.9461 67.7417 77.6544 66.006 79.8411 64.776C82.0551 63.5187 84.5561 62.89 87.3441 62.89C90.7607 62.89 93.6854 63.792 96.1181 65.596C98.5507 67.4 100.177 69.86 100.997 72.976H93.2891C92.7151 71.7733 91.8951 70.8577 90.8291 70.229C89.7904 69.6003 88.6014 69.286 87.2621 69.286C85.1027 69.286 83.3534 70.0377 82.0141 71.541C80.6747 73.0443 80.0051 75.0533 80.0051 77.568C80.0051 80.0827 80.6747 82.0917 82.0141 83.595C83.3534 85.0983 85.1027 85.85 87.2621 85.85C88.6014 85.85 89.7904 85.5357 90.8291 84.907C91.8951 84.2783 92.7151 83.3627 93.2891 82.16H100.997C100.177 85.276 98.5507 87.736 96.1181 89.54C93.6854 91.3167 90.7607 92.205 87.3441 92.205C84.5561 92.205 82.0551 91.59 79.8411 90.36C77.6544 89.1027 75.9461 87.367 74.7161 85.153C73.4861 82.939 72.8711 80.4107 72.8711 77.568ZM115.705 92.328C113.463 92.328 111.441 91.8497 109.637 90.893C107.86 89.9363 106.452 88.5697 105.414 86.793C104.402 85.0163 103.897 82.939 103.897 80.561C103.897 78.2103 104.416 76.1467 105.455 74.37C106.493 72.566 107.915 71.1857 109.719 70.229C111.523 69.2723 113.545 68.794 115.787 68.794C118.028 68.794 120.051 69.2723 121.855 70.229C123.659 71.1857 125.08 72.566 126.119 74.37C127.157 76.1467 127.677 78.2103 127.677 80.561C127.677 82.9117 127.144 84.989 126.078 86.793C125.039 88.5697 123.604 89.9363 121.773 90.893C119.969 91.8497 117.946 92.328 115.705 92.328ZM115.705 86.26C117.044 86.26 118.178 85.768 119.108 84.784C120.064 83.8 120.543 82.3923 120.543 80.561C120.543 78.7297 120.078 77.322 119.149 76.338C118.247 75.354 117.126 74.862 115.787 74.862C114.42 74.862 113.286 75.354 112.384 76.338C111.482 77.2947 111.031 78.7023 111.031 80.561C111.031 82.3923 111.468 83.8 112.343 84.784C113.245 85.768 114.365 86.26 115.705 86.26ZM138.407 72.935C139.227 71.6777 140.252 70.6937 141.482 69.983C142.712 69.245 144.079 68.876 145.582 68.876V76.297H143.655C141.906 76.297 140.594 76.6797 139.719 77.445C138.844 78.183 138.407 79.495 138.407 81.381V92H131.396V69.122H138.407V72.935ZM155.944 72.935C156.764 71.6777 157.789 70.6937 159.019 69.983C160.249 69.245 161.616 68.876 163.119 68.876V76.297H161.192C159.443 76.297 158.131 76.6797 157.256 77.445C156.381 78.183 155.944 79.495 155.944 81.381V92H148.933V69.122H155.944V72.935ZM188.036 80.192C188.036 80.848 187.995 81.5313 187.913 82.242H172.046C172.156 83.6633 172.607 84.7567 173.399 85.522C174.219 86.26 175.217 86.629 176.392 86.629C178.142 86.629 179.358 85.891 180.041 84.415H187.503C187.121 85.9183 186.424 87.2713 185.412 88.474C184.428 89.6767 183.185 90.6197 181.681 91.303C180.178 91.9863 178.497 92.328 176.638 92.328C174.397 92.328 172.402 91.8497 170.652 90.893C168.903 89.9363 167.536 88.5697 166.552 86.793C165.568 85.0163 165.076 82.939 165.076 80.561C165.076 78.183 165.555 76.1057 166.511 74.329C167.495 72.5523 168.862 71.1857 170.611 70.229C172.361 69.2723 174.37 68.794 176.638 68.794C178.852 68.794 180.82 69.2587 182.542 70.188C184.264 71.1173 185.604 72.443 186.56 74.165C187.544 75.887 188.036 77.896 188.036 80.192ZM180.861 78.347C180.861 77.1443 180.451 76.1877 179.631 75.477C178.811 74.7663 177.786 74.411 176.556 74.411C175.381 74.411 174.383 74.7527 173.563 75.436C172.771 76.1193 172.279 77.0897 172.087 78.347H180.861ZM190.341 80.561C190.341 78.183 190.819 76.1057 191.776 74.329C192.76 72.5523 194.113 71.1857 195.835 70.229C197.584 69.2723 199.58 68.794 201.821 68.794C204.691 68.794 207.083 69.5457 208.996 71.049C210.937 72.5523 212.208 74.6707 212.809 77.404H205.347C204.718 75.6547 203.502 74.78 201.698 74.78C200.413 74.78 199.388 75.2857 198.623 76.297C197.858 77.281 197.475 78.7023 197.475 80.561C197.475 82.4197 197.858 83.8547 198.623 84.866C199.388 85.85 200.413 86.342 201.698 86.342C203.502 86.342 204.718 85.4673 205.347 83.718H212.809C212.208 86.3967 210.937 88.5013 208.996 90.032C207.055 91.5627 204.664 92.328 201.821 92.328C199.58 92.328 197.584 91.8497 195.835 90.893C194.113 89.9363 192.76 88.5697 191.776 86.793C190.819 85.0163 190.341 82.939 190.341 80.561ZM229.31 86.055V92H225.743C223.201 92 221.219 91.385 219.798 90.155C218.377 88.8977 217.666 86.8613 217.666 84.046V74.944H214.878V69.122H217.666V63.546H224.677V69.122H229.269V74.944H224.677V84.128C224.677 84.8113 224.841 85.3033 225.169 85.604C225.497 85.9047 226.044 86.055 226.809 86.055H229.31Z" fill="white"/>
</svg>
