<svg width="168" height="154" viewBox="0 0 168 154" fill="none" xmlns="http://www.w3.org/2000/svg">
<path d="M65.5649 29H58.5539L46.8279 11.247V29H39.8169V0.217999H46.8279L58.5539 18.053V0.217999H65.5649V29ZM81.061 29.328C78.8196 29.328 76.797 28.8497 74.993 27.893C73.2163 26.9363 71.8086 25.5697 70.77 23.793C69.7586 22.0163 69.253 19.939 69.253 17.561C69.253 15.2103 69.7723 13.1467 70.811 11.37C71.8496 9.566 73.271 8.18567 75.075 7.229C76.879 6.27233 78.9016 5.794 81.143 5.794C83.3843 5.794 85.407 6.27233 87.211 7.229C89.015 8.18567 90.4363 9.566 91.475 11.37C92.5136 13.1467 93.033 15.2103 93.033 17.561C93.033 19.9117 92.5 21.989 91.434 23.793C90.3953 25.5697 88.9603 26.9363 87.129 27.893C85.325 28.8497 83.3023 29.328 81.061 29.328ZM81.061 23.26C82.4003 23.26 83.5346 22.768 84.464 21.784C85.4206 20.8 85.899 19.3923 85.899 17.561C85.899 15.7297 85.4343 14.322 84.505 13.338C83.603 12.354 82.4823 11.862 81.143 11.862C79.7763 11.862 78.642 12.354 77.74 13.338C76.838 14.2947 76.387 15.7023 76.387 17.561C76.387 19.3923 76.8243 20.8 77.699 21.784C78.601 22.768 79.7216 23.26 81.061 23.26ZM129.593 6.122L123.402 29H115.653L112.045 14.158L108.314 29H100.606L94.3744 6.122H101.385L104.624 22.481L108.478 6.122H115.899L119.794 22.399L122.992 6.122H129.593ZM7.86989 62.218V91H0.858895V62.218H7.86989ZM25.7017 85.055V91H22.1347C19.5927 91 17.611 90.385 16.1897 89.155C14.7684 87.8977 14.0577 85.8613 14.0577 83.046V73.944H11.2697V68.122H14.0577V62.546H21.0687V68.122H25.6607V73.944H21.0687V83.128C21.0687 83.8113 21.2327 84.3033 21.5607 84.604C21.8887 84.9047 22.4354 85.055 23.2007 85.055H25.7017ZM31.2059 62.218H38.3809L33.7889 73.206H29.0739L31.2059 62.218ZM51.8065 91.328C49.8112 91.328 48.0345 90.9863 46.4765 90.303C44.9185 89.6197 43.6885 88.6903 42.7865 87.515C41.8845 86.3123 41.3789 84.973 41.2695 83.497H48.1985C48.2805 84.2897 48.6495 84.932 49.3055 85.424C49.9615 85.916 50.7679 86.162 51.7245 86.162C52.5992 86.162 53.2689 85.998 53.7335 85.67C54.2255 85.3147 54.4715 84.8637 54.4715 84.317C54.4715 83.661 54.1299 83.1827 53.4465 82.882C52.7632 82.554 51.6562 82.1987 50.1255 81.816C48.4855 81.4333 47.1189 81.037 46.0255 80.627C44.9322 80.1897 43.9892 79.52 43.1965 78.618C42.4039 77.6887 42.0075 76.445 42.0075 74.887C42.0075 73.575 42.3629 72.386 43.0735 71.32C43.8115 70.2267 44.8775 69.3657 46.2715 68.737C47.6929 68.1083 49.3739 67.794 51.3145 67.794C54.1845 67.794 56.4395 68.5047 58.0795 69.926C59.7469 71.3473 60.7035 73.2333 60.9495 75.584H54.4715C54.3622 74.7913 54.0069 74.1627 53.4055 73.698C52.8315 73.2333 52.0662 73.001 51.1095 73.001C50.2895 73.001 49.6609 73.165 49.2235 73.493C48.7862 73.7937 48.5675 74.2173 48.5675 74.764C48.5675 75.42 48.9092 75.912 49.5925 76.24C50.3032 76.568 51.3965 76.896 52.8725 77.224C54.5672 77.6613 55.9475 78.0987 57.0135 78.536C58.0795 78.946 59.0089 79.6293 59.8015 80.586C60.6215 81.5153 61.0452 82.7727 61.0725 84.358C61.0725 85.6973 60.6899 86.9 59.9245 87.966C59.1865 89.0047 58.1069 89.8247 56.6855 90.426C55.2915 91.0273 53.6652 91.328 51.8065 91.328ZM97.4203 68.122L83.0703 101.865H75.5263L80.7743 90.221L71.4673 68.122H79.2983L84.5873 82.431L89.8353 68.122H97.4203ZM110.37 91.328C108.128 91.328 106.106 90.8497 104.302 89.893C102.525 88.9363 101.117 87.5697 100.079 85.793C99.0672 84.0163 98.5616 81.939 98.5616 79.561C98.5616 77.2103 99.0809 75.1467 100.12 73.37C101.158 71.566 102.58 70.1857 104.384 69.229C106.188 68.2723 108.21 67.794 110.452 67.794C112.693 67.794 114.716 68.2723 116.52 69.229C118.324 70.1857 119.745 71.566 120.784 73.37C121.822 75.1467 122.342 77.2103 122.342 79.561C122.342 81.9117 121.809 83.989 120.743 85.793C119.704 87.5697 118.269 88.9363 116.438 89.893C114.634 90.8497 112.611 91.328 110.37 91.328ZM110.37 85.26C111.709 85.26 112.843 84.768 113.773 83.784C114.729 82.8 115.208 81.3923 115.208 79.561C115.208 77.7297 114.743 76.322 113.814 75.338C112.912 74.354 111.791 73.862 110.452 73.862C109.085 73.862 107.951 74.354 107.049 75.338C106.147 76.2947 105.696 77.7023 105.696 79.561C105.696 81.3923 106.133 82.8 107.008 83.784C107.91 84.768 109.03 85.26 110.37 85.26ZM148.652 68.122V91H141.641V87.884C140.93 88.8953 139.96 89.7153 138.73 90.344C137.527 90.9453 136.188 91.246 134.712 91.246C132.963 91.246 131.418 90.8633 130.079 90.098C128.74 89.3053 127.701 88.171 126.963 86.695C126.225 85.219 125.856 83.4833 125.856 81.488V68.122H132.826V80.545C132.826 82.0757 133.222 83.2647 134.015 84.112C134.808 84.9593 135.874 85.383 137.213 85.383C138.58 85.383 139.659 84.9593 140.452 84.112C141.245 83.2647 141.641 82.0757 141.641 80.545V68.122H148.652ZM160.699 71.935C161.519 70.6777 162.544 69.6937 163.774 68.983C165.004 68.245 166.371 67.876 167.874 67.876V75.297H165.947C164.198 75.297 162.886 75.6797 162.011 76.445C161.136 77.183 160.699 78.495 160.699 80.381V91H153.688V68.122H160.699V71.935ZM58.2397 124.218V129.835H50.6137V153H43.6027V129.835H35.9767V124.218H58.2397ZM84.3493 130.122V153H77.3383V149.884C76.6276 150.895 75.6573 151.715 74.4273 152.344C73.2246 152.945 71.8853 153.246 70.4093 153.246C68.66 153.246 67.1156 152.863 65.7763 152.098C64.437 151.305 63.3983 150.171 62.6603 148.695C61.9223 147.219 61.5533 145.483 61.5533 143.488V130.122H68.5233V142.545C68.5233 144.076 68.9196 145.265 69.7123 146.112C70.505 146.959 71.571 147.383 72.9103 147.383C74.277 147.383 75.3566 146.959 76.1493 146.112C76.942 145.265 77.3383 144.076 77.3383 142.545V130.122H84.3493ZM96.3963 133.935C97.2163 132.678 98.2413 131.694 99.4713 130.983C100.701 130.245 102.068 129.876 103.571 129.876V137.297H101.644C99.8949 137.297 98.5829 137.68 97.7083 138.445C96.8336 139.183 96.3963 140.495 96.3963 142.381V153H89.3853V130.122H96.3963V133.935ZM120.862 129.876C123.541 129.876 125.673 130.751 127.258 132.5C128.871 134.222 129.677 136.6 129.677 139.634V153H122.707V140.577C122.707 139.046 122.311 137.857 121.518 137.01C120.726 136.163 119.66 135.739 118.32 135.739C116.981 135.739 115.915 136.163 115.122 137.01C114.33 137.857 113.933 139.046 113.933 140.577V153H106.922V130.122H113.933V133.156C114.644 132.145 115.601 131.352 116.803 130.778C118.006 130.177 119.359 129.876 120.862 129.876Z" fill="white"/>
</svg>
