<svg width="780" height="780" viewBox="0 0 780 780" fill="none" xmlns="http://www.w3.org/2000/svg">
<path d="M9.19239 390L390 9.19239L770.808 390L390 770.808L9.19239 390Z" stroke="#8F00FF" stroke-width="13"/>
<path d="M274.65 189.75V196.85H286.1V203.45H274.65V211.15H287.6V218H266.1V182.9H287.6V189.75H274.65ZM328.751 189.8C332.217 189.8 334.967 190.85 337.001 192.95C339.067 195.05 340.101 197.967 340.101 201.7V218H331.601V202.85C331.601 201.05 331.117 199.667 330.151 198.7C329.217 197.7 327.917 197.2 326.251 197.2C324.584 197.2 323.267 197.7 322.301 198.7C321.367 199.667 320.901 201.05 320.901 202.85V218H312.401V202.85C312.401 201.05 311.917 199.667 310.951 198.7C310.017 197.7 308.717 197.2 307.051 197.2C305.384 197.2 304.067 197.7 303.101 198.7C302.167 199.667 301.701 201.05 301.701 202.85V218H293.151V190.1H301.701V193.6C302.567 192.433 303.701 191.517 305.101 190.85C306.501 190.15 308.084 189.8 309.851 189.8C311.951 189.8 313.817 190.25 315.451 191.15C317.117 192.05 318.417 193.333 319.351 195C320.317 193.467 321.634 192.217 323.301 191.25C324.967 190.283 326.784 189.8 328.751 189.8ZM354.63 194.05C355.464 192.75 356.614 191.7 358.08 190.9C359.547 190.1 361.264 189.7 363.23 189.7C365.53 189.7 367.614 190.283 369.48 191.45C371.347 192.617 372.814 194.283 373.88 196.45C374.98 198.617 375.53 201.133 375.53 204C375.53 206.867 374.98 209.4 373.88 211.6C372.814 213.767 371.347 215.45 369.48 216.65C367.614 217.817 365.53 218.4 363.23 218.4C361.297 218.4 359.58 218 358.08 217.2C356.614 216.4 355.464 215.367 354.63 214.1V231.3H346.08V190.1H354.63V194.05ZM366.83 204C366.83 201.867 366.23 200.2 365.03 199C363.864 197.767 362.414 197.15 360.68 197.15C358.98 197.15 357.53 197.767 356.33 199C355.164 200.233 354.58 201.917 354.58 204.05C354.58 206.183 355.164 207.867 356.33 209.1C357.53 210.333 358.98 210.95 360.68 210.95C362.38 210.95 363.83 210.333 365.03 209.1C366.23 207.833 366.83 206.133 366.83 204ZM397.166 189.8C400.366 189.8 402.933 190.867 404.866 193C406.799 195.1 407.766 198 407.766 201.7V218H399.266V202.85C399.266 200.983 398.783 199.533 397.816 198.5C396.849 197.467 395.549 196.95 393.916 196.95C392.283 196.95 390.983 197.467 390.016 198.5C389.049 199.533 388.566 200.983 388.566 202.85V218H380.016V181H388.566V193.85C389.433 192.617 390.616 191.633 392.116 190.9C393.616 190.167 395.299 189.8 397.166 189.8ZM412.007 204C412.007 201.133 412.541 198.617 413.607 196.45C414.707 194.283 416.191 192.617 418.057 191.45C419.924 190.283 422.007 189.7 424.307 189.7C426.274 189.7 427.991 190.1 429.457 190.9C430.957 191.7 432.107 192.75 432.907 194.05V190.1H441.457V218H432.907V214.05C432.074 215.35 430.907 216.4 429.407 217.2C427.941 218 426.224 218.4 424.257 218.4C421.991 218.4 419.924 217.817 418.057 216.65C416.191 215.45 414.707 213.767 413.607 211.6C412.541 209.4 412.007 206.867 412.007 204ZM432.907 204.05C432.907 201.917 432.307 200.233 431.107 199C429.941 197.767 428.507 197.15 426.807 197.15C425.107 197.15 423.657 197.767 422.457 199C421.291 200.2 420.707 201.867 420.707 204C420.707 206.133 421.291 207.833 422.457 209.1C423.657 210.333 425.107 210.95 426.807 210.95C428.507 210.95 429.941 210.333 431.107 209.1C432.307 207.867 432.907 206.183 432.907 204.05ZM458.993 218.4C456.56 218.4 454.393 217.983 452.493 217.15C450.593 216.317 449.093 215.183 447.993 213.75C446.893 212.283 446.276 210.65 446.143 208.85H454.593C454.693 209.817 455.143 210.6 455.943 211.2C456.743 211.8 457.726 212.1 458.893 212.1C459.96 212.1 460.776 211.9 461.343 211.5C461.943 211.067 462.243 210.517 462.243 209.85C462.243 209.05 461.826 208.467 460.993 208.1C460.16 207.7 458.81 207.267 456.943 206.8C454.943 206.333 453.276 205.85 451.943 205.35C450.61 204.817 449.46 204 448.493 202.9C447.526 201.767 447.043 200.25 447.043 198.35C447.043 196.75 447.476 195.3 448.343 194C449.243 192.667 450.543 191.617 452.243 190.85C453.976 190.083 456.026 189.7 458.393 189.7C461.893 189.7 464.643 190.567 466.643 192.3C468.676 194.033 469.843 196.333 470.143 199.2H462.243C462.11 198.233 461.676 197.467 460.943 196.9C460.243 196.333 459.31 196.05 458.143 196.05C457.143 196.05 456.376 196.25 455.843 196.65C455.31 197.017 455.043 197.533 455.043 198.2C455.043 199 455.46 199.6 456.293 200C457.16 200.4 458.493 200.8 460.293 201.2C462.36 201.733 464.043 202.267 465.343 202.8C466.643 203.3 467.776 204.133 468.743 205.3C469.743 206.433 470.26 207.967 470.293 209.9C470.293 211.533 469.826 213 468.893 214.3C467.993 215.567 466.676 216.567 464.943 217.3C463.243 218.033 461.26 218.4 458.993 218.4ZM479.824 187.2C478.324 187.2 477.09 186.767 476.124 185.9C475.19 185 474.724 183.9 474.724 182.6C474.724 181.267 475.19 180.167 476.124 179.3C477.09 178.4 478.324 177.95 479.824 177.95C481.29 177.95 482.49 178.4 483.424 179.3C484.39 180.167 484.874 181.267 484.874 182.6C484.874 183.9 484.39 185 483.424 185.9C482.49 186.767 481.29 187.2 479.824 187.2ZM484.074 190.1V218H475.524V190.1H484.074ZM501.62 218.4C499.187 218.4 497.02 217.983 495.12 217.15C493.22 216.317 491.72 215.183 490.62 213.75C489.52 212.283 488.903 210.65 488.77 208.85H497.22C497.32 209.817 497.77 210.6 498.57 211.2C499.37 211.8 500.353 212.1 501.52 212.1C502.587 212.1 503.403 211.9 503.97 211.5C504.57 211.067 504.87 210.517 504.87 209.85C504.87 209.05 504.453 208.467 503.62 208.1C502.787 207.7 501.437 207.267 499.57 206.8C497.57 206.333 495.903 205.85 494.57 205.35C493.237 204.817 492.087 204 491.12 202.9C490.153 201.767 489.67 200.25 489.67 198.35C489.67 196.75 490.103 195.3 490.97 194C491.87 192.667 493.17 191.617 494.87 190.85C496.603 190.083 498.653 189.7 501.02 189.7C504.52 189.7 507.27 190.567 509.27 192.3C511.303 194.033 512.47 196.333 512.77 199.2H504.87C504.737 198.233 504.303 197.467 503.57 196.9C502.87 196.333 501.937 196.05 500.77 196.05C499.77 196.05 499.003 196.25 498.47 196.65C497.937 197.017 497.67 197.533 497.67 198.2C497.67 199 498.087 199.6 498.92 200C499.787 200.4 501.12 200.8 502.92 201.2C504.987 201.733 506.67 202.267 507.97 202.8C509.27 203.3 510.403 204.133 511.37 205.3C512.37 206.433 512.887 207.967 512.92 209.9C512.92 211.533 512.453 213 511.52 214.3C510.62 215.567 509.303 216.567 507.57 217.3C505.87 218.033 503.887 218.4 501.62 218.4Z" fill="white"/>
<path d="M235 238H545" stroke="#8A08F0" stroke-width="13" stroke-linecap="round"/>
<path d="M173.925 334.92V339.464H181.253V343.688H173.925V348.616H182.213V353H168.453V330.536H182.213V334.92H173.925ZM208.549 334.952C210.768 334.952 212.528 335.624 213.829 336.968C215.152 338.312 215.813 340.179 215.813 342.568V353H210.373V343.304C210.373 342.152 210.064 341.267 209.445 340.648C208.848 340.008 208.016 339.688 206.949 339.688C205.883 339.688 205.04 340.008 204.421 340.648C203.824 341.267 203.525 342.152 203.525 343.304V353H198.085V343.304C198.085 342.152 197.776 341.267 197.157 340.648C196.56 340.008 195.728 339.688 194.661 339.688C193.595 339.688 192.752 340.008 192.133 340.648C191.536 341.267 191.237 342.152 191.237 343.304V353H185.765V335.144H191.237V337.384C191.792 336.637 192.517 336.051 193.413 335.624C194.309 335.176 195.323 334.952 196.453 334.952C197.797 334.952 198.992 335.24 200.037 335.816C201.104 336.392 201.936 337.213 202.533 338.28C203.152 337.299 203.995 336.499 205.061 335.88C206.128 335.261 207.291 334.952 208.549 334.952ZM225.112 337.672C225.646 336.84 226.382 336.168 227.32 335.656C228.259 335.144 229.358 334.888 230.616 334.888C232.088 334.888 233.422 335.261 234.616 336.008C235.811 336.755 236.75 337.821 237.432 339.208C238.136 340.595 238.488 342.205 238.488 344.04C238.488 345.875 238.136 347.496 237.432 348.904C236.75 350.291 235.811 351.368 234.616 352.136C233.422 352.883 232.088 353.256 230.616 353.256C229.379 353.256 228.28 353 227.32 352.488C226.382 351.976 225.646 351.315 225.112 350.504V361.512H219.64V335.144H225.112V337.672ZM232.92 344.04C232.92 342.675 232.536 341.608 231.768 340.84C231.022 340.051 230.094 339.656 228.984 339.656C227.896 339.656 226.968 340.051 226.2 340.84C225.454 341.629 225.08 342.707 225.08 344.072C225.08 345.437 225.454 346.515 226.2 347.304C226.968 348.093 227.896 348.488 228.984 348.488C230.072 348.488 231 348.093 231.768 347.304C232.536 346.493 232.92 345.405 232.92 344.04ZM252.335 334.952C254.383 334.952 256.026 335.635 257.263 337C258.5 338.344 259.119 340.2 259.119 342.568V353H253.679V343.304C253.679 342.109 253.37 341.181 252.751 340.52C252.132 339.859 251.3 339.528 250.255 339.528C249.21 339.528 248.378 339.859 247.759 340.52C247.14 341.181 246.831 342.109 246.831 343.304V353H241.359V329.32H246.831V337.544C247.386 336.755 248.143 336.125 249.103 335.656C250.063 335.187 251.14 334.952 252.335 334.952ZM261.834 344.04C261.834 342.205 262.175 340.595 262.858 339.208C263.562 337.821 264.511 336.755 265.706 336.008C266.9 335.261 268.234 334.888 269.706 334.888C270.964 334.888 272.063 335.144 273.002 335.656C273.962 336.168 274.698 336.84 275.21 337.672V335.144H280.682V353H275.21V350.472C274.676 351.304 273.93 351.976 272.97 352.488C272.031 353 270.932 353.256 269.674 353.256C268.223 353.256 266.9 352.883 265.706 352.136C264.511 351.368 263.562 350.291 262.858 348.904C262.175 347.496 261.834 345.875 261.834 344.04ZM275.21 344.072C275.21 342.707 274.826 341.629 274.058 340.84C273.311 340.051 272.394 339.656 271.306 339.656C270.218 339.656 269.29 340.051 268.522 340.84C267.775 341.608 267.402 342.675 267.402 344.04C267.402 345.405 267.775 346.493 268.522 347.304C269.29 348.093 270.218 348.488 271.306 348.488C272.394 348.488 273.311 348.093 274.058 347.304C274.826 346.515 275.21 345.437 275.21 344.072ZM291.904 353.256C290.347 353.256 288.96 352.989 287.744 352.456C286.528 351.923 285.568 351.197 284.864 350.28C284.16 349.341 283.766 348.296 283.68 347.144H289.088C289.152 347.763 289.44 348.264 289.952 348.648C290.464 349.032 291.094 349.224 291.84 349.224C292.523 349.224 293.046 349.096 293.408 348.84C293.792 348.563 293.984 348.211 293.984 347.784C293.984 347.272 293.718 346.899 293.184 346.664C292.651 346.408 291.787 346.131 290.592 345.832C289.312 345.533 288.246 345.224 287.392 344.904C286.539 344.563 285.803 344.04 285.184 343.336C284.566 342.611 284.256 341.64 284.256 340.424C284.256 339.4 284.534 338.472 285.088 337.64C285.664 336.787 286.496 336.115 287.584 335.624C288.694 335.133 290.006 334.888 291.52 334.888C293.76 334.888 295.52 335.443 296.8 336.552C298.102 337.661 298.848 339.133 299.04 340.968H293.984C293.899 340.349 293.622 339.859 293.152 339.496C292.704 339.133 292.107 338.952 291.36 338.952C290.72 338.952 290.23 339.08 289.888 339.336C289.547 339.571 289.376 339.901 289.376 340.328C289.376 340.84 289.643 341.224 290.176 341.48C290.731 341.736 291.584 341.992 292.736 342.248C294.059 342.589 295.136 342.931 295.968 343.272C296.8 343.592 297.526 344.125 298.144 344.872C298.784 345.597 299.115 346.579 299.136 347.816C299.136 348.861 298.838 349.8 298.24 350.632C297.664 351.443 296.822 352.083 295.712 352.552C294.624 353.021 293.355 353.256 291.904 353.256ZM305.236 333.288C304.276 333.288 303.487 333.011 302.868 332.456C302.271 331.88 301.972 331.176 301.972 330.344C301.972 329.491 302.271 328.787 302.868 328.232C303.487 327.656 304.276 327.368 305.236 327.368C306.175 327.368 306.943 327.656 307.54 328.232C308.159 328.787 308.468 329.491 308.468 330.344C308.468 331.176 308.159 331.88 307.54 332.456C306.943 333.011 306.175 333.288 305.236 333.288ZM307.956 335.144V353H302.484V335.144H307.956ZM319.186 353.256C317.628 353.256 316.242 352.989 315.026 352.456C313.81 351.923 312.85 351.197 312.146 350.28C311.442 349.341 311.047 348.296 310.962 347.144H316.37C316.434 347.763 316.722 348.264 317.234 348.648C317.746 349.032 318.375 349.224 319.122 349.224C319.804 349.224 320.327 349.096 320.69 348.84C321.074 348.563 321.266 348.211 321.266 347.784C321.266 347.272 320.999 346.899 320.466 346.664C319.932 346.408 319.068 346.131 317.874 345.832C316.594 345.533 315.527 345.224 314.674 344.904C313.82 344.563 313.084 344.04 312.466 343.336C311.847 342.611 311.538 341.64 311.538 340.424C311.538 339.4 311.815 338.472 312.37 337.64C312.946 336.787 313.778 336.115 314.866 335.624C315.975 335.133 317.287 334.888 318.802 334.888C321.042 334.888 322.802 335.443 324.082 336.552C325.383 337.661 326.13 339.133 326.322 340.968H321.266C321.18 340.349 320.903 339.859 320.434 339.496C319.986 339.133 319.388 338.952 318.642 338.952C318.002 338.952 317.511 339.08 317.17 339.336C316.828 339.571 316.658 339.901 316.658 340.328C316.658 340.84 316.924 341.224 317.458 341.48C318.012 341.736 318.866 341.992 320.018 342.248C321.34 342.589 322.418 342.931 323.25 343.272C324.082 343.592 324.807 344.125 325.426 344.872C326.066 345.597 326.396 346.579 326.418 347.816C326.418 348.861 326.119 349.8 325.522 350.632C324.946 351.443 324.103 352.083 322.994 352.552C321.906 353.021 320.636 353.256 319.186 353.256ZM344.675 353.256C342.925 353.256 341.347 352.883 339.939 352.136C338.552 351.389 337.453 350.323 336.643 348.936C335.853 347.549 335.459 345.928 335.459 344.072C335.459 342.237 335.864 340.627 336.674 339.24C337.485 337.832 338.595 336.755 340.003 336.008C341.411 335.261 342.989 334.888 344.739 334.888C346.488 334.888 348.067 335.261 349.475 336.008C350.883 336.755 351.992 337.832 352.803 339.24C353.613 340.627 354.019 342.237 354.019 344.072C354.019 345.907 353.603 347.528 352.771 348.936C351.96 350.323 350.84 351.389 349.411 352.136C348.003 352.883 346.424 353.256 344.675 353.256ZM344.675 348.52C345.72 348.52 346.605 348.136 347.331 347.368C348.077 346.6 348.451 345.501 348.451 344.072C348.451 342.643 348.088 341.544 347.363 340.776C346.659 340.008 345.784 339.624 344.739 339.624C343.672 339.624 342.787 340.008 342.083 340.776C341.379 341.523 341.027 342.621 341.027 344.072C341.027 345.501 341.368 346.6 342.051 347.368C342.755 348.136 343.629 348.52 344.675 348.52ZM365.882 339.688H362.938V353H357.466V339.688H355.482V335.144H357.466V334.632C357.466 332.435 358.095 330.771 359.354 329.64C360.612 328.488 362.458 327.912 364.89 327.912C365.295 327.912 365.594 327.923 365.786 327.944V332.584C364.74 332.52 364.004 332.669 363.578 333.032C363.151 333.395 362.938 334.045 362.938 334.984V335.144H365.882V339.688ZM392.354 337.768C392.354 339.069 392.055 340.264 391.458 341.352C390.861 342.419 389.943 343.283 388.706 343.944C387.469 344.605 385.933 344.936 384.098 344.936H380.706V353H375.234V330.536H384.098C385.89 330.536 387.405 330.845 388.642 331.464C389.879 332.083 390.807 332.936 391.426 334.024C392.045 335.112 392.354 336.36 392.354 337.768ZM383.682 340.584C384.727 340.584 385.506 340.339 386.018 339.848C386.53 339.357 386.786 338.664 386.786 337.768C386.786 336.872 386.53 336.179 386.018 335.688C385.506 335.197 384.727 334.952 383.682 334.952H380.706V340.584H383.682ZM413.443 335.144L402.243 361.48H396.355L400.451 352.392L393.187 335.144H399.299L403.427 346.312L407.523 335.144H413.443ZM425.374 348.36V353H422.59C420.606 353 419.059 352.52 417.95 351.56C416.84 350.579 416.286 348.989 416.286 346.792V339.688H414.11V335.144H416.286V330.792H421.758V335.144H425.342V339.688H421.758V346.856C421.758 347.389 421.886 347.773 422.142 348.008C422.398 348.243 422.824 348.36 423.422 348.36H425.374ZM439.398 334.952C441.446 334.952 443.088 335.635 444.326 337C445.563 338.344 446.182 340.2 446.182 342.568V353H440.742V343.304C440.742 342.109 440.432 341.181 439.814 340.52C439.195 339.859 438.363 339.528 437.318 339.528C436.272 339.528 435.44 339.859 434.822 340.52C434.203 341.181 433.894 342.109 433.894 343.304V353H428.422V329.32H433.894V337.544C434.448 336.755 435.206 336.125 436.166 335.656C437.126 335.187 438.203 334.952 439.398 334.952ZM458.112 353.256C456.363 353.256 454.784 352.883 453.376 352.136C451.989 351.389 450.891 350.323 450.08 348.936C449.291 347.549 448.896 345.928 448.896 344.072C448.896 342.237 449.301 340.627 450.112 339.24C450.923 337.832 452.032 336.755 453.44 336.008C454.848 335.261 456.427 334.888 458.176 334.888C459.925 334.888 461.504 335.261 462.912 336.008C464.32 336.755 465.429 337.832 466.24 339.24C467.051 340.627 467.456 342.237 467.456 344.072C467.456 345.907 467.04 347.528 466.208 348.936C465.397 350.323 464.277 351.389 462.848 352.136C461.44 352.883 459.861 353.256 458.112 353.256ZM458.112 348.52C459.157 348.52 460.043 348.136 460.768 347.368C461.515 346.6 461.888 345.501 461.888 344.072C461.888 342.643 461.525 341.544 460.8 340.776C460.096 340.008 459.221 339.624 458.176 339.624C457.109 339.624 456.224 340.008 455.52 340.776C454.816 341.523 454.464 342.621 454.464 344.072C454.464 345.501 454.805 346.6 455.488 347.368C456.192 348.136 457.067 348.52 458.112 348.52ZM481.239 334.952C483.33 334.952 484.994 335.635 486.231 337C487.49 338.344 488.119 340.2 488.119 342.568V353H482.679V343.304C482.679 342.109 482.37 341.181 481.751 340.52C481.132 339.859 480.3 339.528 479.255 339.528C478.21 339.528 477.378 339.859 476.759 340.52C476.14 341.181 475.831 342.109 475.831 343.304V353H470.359V335.144H475.831V337.512C476.386 336.723 477.132 336.104 478.071 335.656C479.01 335.187 480.066 334.952 481.239 334.952ZM504.591 347.944L501.039 357.128H497.551L499.407 347.944H504.591ZM525.648 334.952C527.696 334.952 529.338 335.635 530.576 337C531.813 338.344 532.432 340.2 532.432 342.568V353H526.992V343.304C526.992 342.109 526.682 341.181 526.064 340.52C525.445 339.859 524.613 339.528 523.568 339.528C522.522 339.528 521.69 339.859 521.072 340.52C520.453 341.181 520.144 342.109 520.144 343.304V353H514.672V329.32H520.144V337.544C520.698 336.755 521.456 336.125 522.416 335.656C523.376 335.187 524.453 334.952 525.648 334.952ZM538.986 333.288C538.026 333.288 537.237 333.011 536.618 332.456C536.021 331.88 535.722 331.176 535.722 330.344C535.722 329.491 536.021 328.787 536.618 328.232C537.237 327.656 538.026 327.368 538.986 327.368C539.925 327.368 540.693 327.656 541.29 328.232C541.909 328.787 542.218 329.491 542.218 330.344C542.218 331.176 541.909 331.88 541.29 332.456C540.693 333.011 539.925 333.288 538.986 333.288ZM541.706 335.144V353H536.234V335.144H541.706ZM552.456 334.888C553.714 334.888 554.813 335.144 555.752 335.656C556.712 336.168 557.448 336.84 557.96 337.672V335.144H563.432V352.968C563.432 354.611 563.101 356.093 562.44 357.416C561.8 358.76 560.808 359.827 559.464 360.616C558.141 361.405 556.488 361.8 554.504 361.8C551.858 361.8 549.714 361.171 548.072 359.912C546.429 358.675 545.49 356.989 545.256 354.856H550.664C550.834 355.539 551.24 356.072 551.88 356.456C552.52 356.861 553.309 357.064 554.248 357.064C555.378 357.064 556.274 356.733 556.936 356.072C557.618 355.432 557.96 354.397 557.96 352.968V350.44C557.426 351.272 556.69 351.955 555.752 352.488C554.813 353 553.714 353.256 552.456 353.256C550.984 353.256 549.65 352.883 548.456 352.136C547.261 351.368 546.312 350.291 545.608 348.904C544.925 347.496 544.584 345.875 544.584 344.04C544.584 342.205 544.925 340.595 545.608 339.208C546.312 337.821 547.261 336.755 548.456 336.008C549.65 335.261 550.984 334.888 552.456 334.888ZM557.96 344.072C557.96 342.707 557.576 341.629 556.808 340.84C556.061 340.051 555.144 339.656 554.056 339.656C552.968 339.656 552.04 340.051 551.272 340.84C550.525 341.608 550.152 342.675 550.152 344.04C550.152 345.405 550.525 346.493 551.272 347.304C552.04 348.093 552.968 348.488 554.056 348.488C555.144 348.488 556.061 348.093 556.808 347.304C557.576 346.515 557.96 345.437 557.96 344.072ZM578.366 334.952C580.414 334.952 582.057 335.635 583.294 337C584.532 338.344 585.15 340.2 585.15 342.568V353H579.71V343.304C579.71 342.109 579.401 341.181 578.782 340.52C578.164 339.859 577.332 339.528 576.286 339.528C575.241 339.528 574.409 339.859 573.79 340.52C573.172 341.181 572.862 342.109 572.862 343.304V353H567.39V329.32H572.862V337.544C573.417 336.755 574.174 336.125 575.134 335.656C576.094 335.187 577.172 334.952 578.366 334.952ZM602.713 339.496V344.04H588.633V339.496H602.713ZM354.284 377.32V401H348.812V377.32H354.284ZM375.082 391.784C375.082 392.296 375.05 392.829 374.986 393.384H362.602C362.687 394.493 363.039 395.347 363.658 395.944C364.298 396.52 365.076 396.808 365.994 396.808C367.359 396.808 368.308 396.232 368.842 395.08H374.666C374.367 396.253 373.823 397.309 373.034 398.248C372.266 399.187 371.295 399.923 370.122 400.456C368.948 400.989 367.636 401.256 366.186 401.256C364.436 401.256 362.879 400.883 361.514 400.136C360.148 399.389 359.082 398.323 358.314 396.936C357.546 395.549 357.162 393.928 357.162 392.072C357.162 390.216 357.535 388.595 358.282 387.208C359.05 385.821 360.116 384.755 361.482 384.008C362.847 383.261 364.415 382.888 366.186 382.888C367.914 382.888 369.45 383.251 370.794 383.976C372.138 384.701 373.183 385.736 373.93 387.08C374.698 388.424 375.082 389.992 375.082 391.784ZM369.482 390.344C369.482 389.405 369.162 388.659 368.522 388.104C367.882 387.549 367.082 387.272 366.122 387.272C365.204 387.272 364.426 387.539 363.786 388.072C363.167 388.605 362.783 389.363 362.634 390.344H369.482ZM386 395.88L389.872 383.144H395.696L389.36 401H382.608L376.272 383.144H382.128L386 395.88ZM414.832 391.784C414.832 392.296 414.8 392.829 414.736 393.384H402.352C402.437 394.493 402.789 395.347 403.408 395.944C404.048 396.52 404.826 396.808 405.744 396.808C407.109 396.808 408.058 396.232 408.592 395.08H414.416C414.117 396.253 413.573 397.309 412.784 398.248C412.016 399.187 411.045 399.923 409.872 400.456C408.698 400.989 407.386 401.256 405.936 401.256C404.186 401.256 402.629 400.883 401.264 400.136C399.898 399.389 398.832 398.323 398.064 396.936C397.296 395.549 396.912 393.928 396.912 392.072C396.912 390.216 397.285 388.595 398.032 387.208C398.8 385.821 399.866 384.755 401.232 384.008C402.597 383.261 404.165 382.888 405.936 382.888C407.664 382.888 409.2 383.251 410.544 383.976C411.888 384.701 412.933 385.736 413.68 387.08C414.448 388.424 414.832 389.992 414.832 391.784ZM409.232 390.344C409.232 389.405 408.912 388.659 408.272 388.104C407.632 387.549 406.832 387.272 405.872 387.272C404.954 387.272 404.176 387.539 403.536 388.072C402.917 388.605 402.533 389.363 402.384 390.344H409.232ZM423.19 377.32V401H417.718V377.32H423.19ZM151.802 440.04C151.802 438.205 152.144 436.595 152.826 435.208C153.53 433.821 154.48 432.755 155.674 432.008C156.869 431.261 158.202 430.888 159.674 430.888C160.933 430.888 162.032 431.144 162.97 431.656C163.93 432.168 164.666 432.84 165.178 433.672V431.144H170.65V449H165.178V446.472C164.645 447.304 163.898 447.976 162.938 448.488C162 449 160.901 449.256 159.642 449.256C158.192 449.256 156.869 448.883 155.674 448.136C154.48 447.368 153.53 446.291 152.826 444.904C152.144 443.496 151.802 441.875 151.802 440.04ZM165.178 440.072C165.178 438.707 164.794 437.629 164.026 436.84C163.28 436.051 162.362 435.656 161.274 435.656C160.186 435.656 159.258 436.051 158.49 436.84C157.744 437.608 157.37 438.675 157.37 440.04C157.37 441.405 157.744 442.493 158.49 443.304C159.258 444.093 160.186 444.488 161.274 444.488C162.362 444.488 163.28 444.093 164.026 443.304C164.794 442.515 165.178 441.437 165.178 440.072ZM185.489 430.952C187.58 430.952 189.244 431.635 190.481 433C191.74 434.344 192.369 436.2 192.369 438.568V449H186.929V439.304C186.929 438.109 186.62 437.181 186.001 436.52C185.382 435.859 184.55 435.528 183.505 435.528C182.46 435.528 181.628 435.859 181.009 436.52C180.39 437.181 180.081 438.109 180.081 439.304V449H174.609V431.144H180.081V433.512C180.636 432.723 181.382 432.104 182.321 431.656C183.26 431.187 184.316 430.952 185.489 430.952ZM195.084 440.04C195.084 438.205 195.425 436.595 196.108 435.208C196.812 433.821 197.761 432.755 198.956 432.008C200.15 431.261 201.484 430.888 202.956 430.888C204.129 430.888 205.196 431.133 206.156 431.624C207.137 432.115 207.905 432.776 208.46 433.608V425.32H213.932V449H208.46V446.44C207.948 447.293 207.212 447.976 206.252 448.488C205.313 449 204.214 449.256 202.956 449.256C201.484 449.256 200.15 448.883 198.956 448.136C197.761 447.368 196.812 446.291 196.108 444.904C195.425 443.496 195.084 441.875 195.084 440.04ZM208.46 440.072C208.46 438.707 208.076 437.629 207.308 436.84C206.561 436.051 205.644 435.656 204.556 435.656C203.468 435.656 202.54 436.051 201.772 436.84C201.025 437.608 200.652 438.675 200.652 440.04C200.652 441.405 201.025 442.493 201.772 443.304C202.54 444.093 203.468 444.488 204.556 444.488C205.644 444.488 206.561 444.093 207.308 443.304C208.076 442.515 208.46 441.437 208.46 440.072ZM230.144 433.672C230.677 432.84 231.413 432.168 232.352 431.656C233.29 431.144 234.389 430.888 235.648 430.888C237.12 430.888 238.453 431.261 239.648 432.008C240.842 432.755 241.781 433.821 242.464 435.208C243.168 436.595 243.52 438.205 243.52 440.04C243.52 441.875 243.168 443.496 242.464 444.904C241.781 446.291 240.842 447.368 239.648 448.136C238.453 448.883 237.12 449.256 235.648 449.256C234.41 449.256 233.312 449 232.352 448.488C231.413 447.976 230.677 447.315 230.144 446.504V457.512H224.672V431.144H230.144V433.672ZM237.952 440.04C237.952 438.675 237.568 437.608 236.8 436.84C236.053 436.051 235.125 435.656 234.016 435.656C232.928 435.656 232 436.051 231.232 436.84C230.485 437.629 230.112 438.707 230.112 440.072C230.112 441.437 230.485 442.515 231.232 443.304C232 444.093 232.928 444.488 234.016 444.488C235.104 444.488 236.032 444.093 236.8 443.304C237.568 442.493 237.952 441.405 237.952 440.04ZM251.862 434.12C252.502 433.139 253.302 432.371 254.262 431.816C255.222 431.24 256.289 430.952 257.462 430.952V436.744H255.958C254.593 436.744 253.569 437.043 252.886 437.64C252.204 438.216 251.862 439.24 251.862 440.712V449H246.39V431.144H251.862V434.12ZM268.206 449.256C266.456 449.256 264.878 448.883 263.47 448.136C262.083 447.389 260.984 446.323 260.174 444.936C259.384 443.549 258.99 441.928 258.99 440.072C258.99 438.237 259.395 436.627 260.206 435.24C261.016 433.832 262.126 432.755 263.534 432.008C264.942 431.261 266.52 430.888 268.27 430.888C270.019 430.888 271.598 431.261 273.006 432.008C274.414 432.755 275.523 433.832 276.334 435.24C277.144 436.627 277.55 438.237 277.55 440.072C277.55 441.907 277.134 443.528 276.302 444.936C275.491 446.323 274.371 447.389 272.942 448.136C271.534 448.883 269.955 449.256 268.206 449.256ZM268.206 444.52C269.251 444.52 270.136 444.136 270.862 443.368C271.608 442.6 271.982 441.501 271.982 440.072C271.982 438.643 271.619 437.544 270.894 436.776C270.19 436.008 269.315 435.624 268.27 435.624C267.203 435.624 266.318 436.008 265.614 436.776C264.91 437.523 264.558 438.621 264.558 440.072C264.558 441.501 264.899 442.6 265.582 443.368C266.286 444.136 267.16 444.52 268.206 444.52ZM287.237 430.888C288.495 430.888 289.594 431.144 290.533 431.656C291.493 432.168 292.229 432.84 292.741 433.672V431.144H298.213V448.968C298.213 450.611 297.882 452.093 297.221 453.416C296.581 454.76 295.589 455.827 294.245 456.616C292.922 457.405 291.269 457.8 289.285 457.8C286.639 457.8 284.495 457.171 282.853 455.912C281.21 454.675 280.271 452.989 280.037 450.856H285.445C285.615 451.539 286.021 452.072 286.661 452.456C287.301 452.861 288.09 453.064 289.029 453.064C290.159 453.064 291.055 452.733 291.717 452.072C292.399 451.432 292.741 450.397 292.741 448.968V446.44C292.207 447.272 291.471 447.955 290.533 448.488C289.594 449 288.495 449.256 287.237 449.256C285.765 449.256 284.431 448.883 283.237 448.136C282.042 447.368 281.093 446.291 280.389 444.904C279.706 443.496 279.365 441.875 279.365 440.04C279.365 438.205 279.706 436.595 280.389 435.208C281.093 433.821 282.042 432.755 283.237 432.008C284.431 431.261 285.765 430.888 287.237 430.888ZM292.741 440.072C292.741 438.707 292.357 437.629 291.589 436.84C290.842 436.051 289.925 435.656 288.837 435.656C287.749 435.656 286.821 436.051 286.053 436.84C285.306 437.608 284.933 438.675 284.933 440.04C284.933 441.405 285.306 442.493 286.053 443.304C286.821 444.093 287.749 444.488 288.837 444.488C289.925 444.488 290.842 444.093 291.589 443.304C292.357 442.515 292.741 441.437 292.741 440.072ZM307.644 434.12C308.284 433.139 309.084 432.371 310.044 431.816C311.004 431.24 312.07 430.952 313.244 430.952V436.744H311.74C310.374 436.744 309.35 437.043 308.668 437.64C307.985 438.216 307.644 439.24 307.644 440.712V449H302.172V431.144H307.644V434.12ZM314.771 440.04C314.771 438.205 315.112 436.595 315.795 435.208C316.499 433.821 317.448 432.755 318.643 432.008C319.838 431.261 321.171 430.888 322.643 430.888C323.902 430.888 325 431.144 325.939 431.656C326.899 432.168 327.635 432.84 328.147 433.672V431.144H333.619V449H328.147V446.472C327.614 447.304 326.867 447.976 325.907 448.488C324.968 449 323.87 449.256 322.611 449.256C321.16 449.256 319.838 448.883 318.643 448.136C317.448 447.368 316.499 446.291 315.795 444.904C315.112 443.496 314.771 441.875 314.771 440.04ZM328.147 440.072C328.147 438.707 327.763 437.629 326.995 436.84C326.248 436.051 325.331 435.656 324.243 435.656C323.155 435.656 322.227 436.051 321.459 436.84C320.712 437.608 320.339 438.675 320.339 440.04C320.339 441.405 320.712 442.493 321.459 443.304C322.227 444.093 323.155 444.488 324.243 444.488C325.331 444.488 326.248 444.093 326.995 443.304C327.763 442.515 328.147 441.437 328.147 440.072ZM360.362 430.952C362.58 430.952 364.34 431.624 365.642 432.968C366.964 434.312 367.626 436.179 367.626 438.568V449H362.186V439.304C362.186 438.152 361.876 437.267 361.258 436.648C360.66 436.008 359.828 435.688 358.762 435.688C357.695 435.688 356.852 436.008 356.234 436.648C355.636 437.267 355.338 438.152 355.338 439.304V449H349.898V439.304C349.898 438.152 349.588 437.267 348.97 436.648C348.372 436.008 347.54 435.688 346.474 435.688C345.407 435.688 344.564 436.008 343.946 436.648C343.348 437.267 343.05 438.152 343.05 439.304V449H337.578V431.144H343.05V433.384C343.604 432.637 344.33 432.051 345.226 431.624C346.122 431.176 347.135 430.952 348.266 430.952C349.61 430.952 350.804 431.24 351.85 431.816C352.916 432.392 353.748 433.213 354.346 434.28C354.964 433.299 355.807 432.499 356.874 431.88C357.94 431.261 359.103 430.952 360.362 430.952ZM394.237 430.952C396.455 430.952 398.215 431.624 399.517 432.968C400.839 434.312 401.501 436.179 401.501 438.568V449H396.061V439.304C396.061 438.152 395.751 437.267 395.133 436.648C394.535 436.008 393.703 435.688 392.637 435.688C391.57 435.688 390.727 436.008 390.109 436.648C389.511 437.267 389.213 438.152 389.213 439.304V449H383.773V439.304C383.773 438.152 383.463 437.267 382.845 436.648C382.247 436.008 381.415 435.688 380.349 435.688C379.282 435.688 378.439 436.008 377.821 436.648C377.223 437.267 376.925 438.152 376.925 439.304V449H371.453V431.144H376.925V433.384C377.479 432.637 378.205 432.051 379.101 431.624C379.997 431.176 381.01 430.952 382.141 430.952C383.485 430.952 384.679 431.24 385.725 431.816C386.791 432.392 387.623 433.213 388.221 434.28C388.839 433.299 389.682 432.499 390.749 431.88C391.815 431.261 392.978 430.952 394.237 430.952ZM408.08 429.288C407.12 429.288 406.33 429.011 405.712 428.456C405.114 427.88 404.816 427.176 404.816 426.344C404.816 425.491 405.114 424.787 405.712 424.232C406.33 423.656 407.12 423.368 408.08 423.368C409.018 423.368 409.786 423.656 410.384 424.232C411.002 424.787 411.312 425.491 411.312 426.344C411.312 427.176 411.002 427.88 410.384 428.456C409.786 429.011 409.018 429.288 408.08 429.288ZM410.8 431.144V449H405.328V431.144H410.8ZM425.645 430.952C427.736 430.952 429.4 431.635 430.637 433C431.896 434.344 432.525 436.2 432.525 438.568V449H427.085V439.304C427.085 438.109 426.776 437.181 426.157 436.52C425.539 435.859 424.707 435.528 423.661 435.528C422.616 435.528 421.784 435.859 421.165 436.52C420.547 437.181 420.237 438.109 420.237 439.304V449H414.765V431.144H420.237V433.512C420.792 432.723 421.539 432.104 422.477 431.656C423.416 431.187 424.472 430.952 425.645 430.952ZM443.112 430.888C444.37 430.888 445.469 431.144 446.408 431.656C447.368 432.168 448.104 432.84 448.616 433.672V431.144H454.088V448.968C454.088 450.611 453.757 452.093 453.096 453.416C452.456 454.76 451.464 455.827 450.12 456.616C448.797 457.405 447.144 457.8 445.16 457.8C442.514 457.8 440.37 457.171 438.728 455.912C437.085 454.675 436.146 452.989 435.912 450.856H441.32C441.49 451.539 441.896 452.072 442.536 452.456C443.176 452.861 443.965 453.064 444.904 453.064C446.034 453.064 446.93 452.733 447.592 452.072C448.274 451.432 448.616 450.397 448.616 448.968V446.44C448.082 447.272 447.346 447.955 446.408 448.488C445.469 449 444.37 449.256 443.112 449.256C441.64 449.256 440.306 448.883 439.112 448.136C437.917 447.368 436.968 446.291 436.264 444.904C435.581 443.496 435.24 441.875 435.24 440.04C435.24 438.205 435.581 436.595 436.264 435.208C436.968 433.821 437.917 432.755 439.112 432.008C440.306 431.261 441.64 430.888 443.112 430.888ZM448.616 440.072C448.616 438.707 448.232 437.629 447.464 436.84C446.717 436.051 445.8 435.656 444.712 435.656C443.624 435.656 442.696 436.051 441.928 436.84C441.181 437.608 440.808 438.675 440.808 440.04C440.808 441.405 441.181 442.493 441.928 443.304C442.696 444.093 443.624 444.488 444.712 444.488C445.8 444.488 446.717 444.093 447.464 443.304C448.232 442.515 448.616 441.437 448.616 440.072ZM490.46 431.144L485.628 449H479.58L476.764 437.416L473.852 449H467.836L462.972 431.144H468.444L470.972 443.912L473.98 431.144H479.772L482.812 443.848L485.308 431.144H490.46ZM491.459 440.04C491.459 438.205 491.8 436.595 492.483 435.208C493.187 433.821 494.136 432.755 495.331 432.008C496.525 431.261 497.859 430.888 499.331 430.888C500.589 430.888 501.688 431.144 502.627 431.656C503.587 432.168 504.323 432.84 504.835 433.672V431.144H510.307V449H504.835V446.472C504.301 447.304 503.555 447.976 502.595 448.488C501.656 449 500.557 449.256 499.299 449.256C497.848 449.256 496.525 448.883 495.331 448.136C494.136 447.368 493.187 446.291 492.483 444.904C491.8 443.496 491.459 441.875 491.459 440.04ZM504.835 440.072C504.835 438.707 504.451 437.629 503.683 436.84C502.936 436.051 502.019 435.656 500.931 435.656C499.843 435.656 498.915 436.051 498.147 436.84C497.4 437.608 497.027 438.675 497.027 440.04C497.027 441.405 497.4 442.493 498.147 443.304C498.915 444.093 499.843 444.488 500.931 444.488C502.019 444.488 502.936 444.093 503.683 443.304C504.451 442.515 504.835 441.437 504.835 440.072ZM521.529 449.256C519.972 449.256 518.585 448.989 517.369 448.456C516.153 447.923 515.193 447.197 514.489 446.28C513.785 445.341 513.391 444.296 513.305 443.144H518.713C518.777 443.763 519.065 444.264 519.577 444.648C520.089 445.032 520.719 445.224 521.465 445.224C522.148 445.224 522.671 445.096 523.033 444.84C523.417 444.563 523.609 444.211 523.609 443.784C523.609 443.272 523.343 442.899 522.809 442.664C522.276 442.408 521.412 442.131 520.217 441.832C518.937 441.533 517.871 441.224 517.017 440.904C516.164 440.563 515.428 440.04 514.809 439.336C514.191 438.611 513.881 437.64 513.881 436.424C513.881 435.4 514.159 434.472 514.713 433.64C515.289 432.787 516.121 432.115 517.209 431.624C518.319 431.133 519.631 430.888 521.145 430.888C523.385 430.888 525.145 431.443 526.425 432.552C527.727 433.661 528.473 435.133 528.665 436.968H523.609C523.524 436.349 523.247 435.859 522.777 435.496C522.329 435.133 521.732 434.952 520.985 434.952C520.345 434.952 519.855 435.08 519.513 435.336C519.172 435.571 519.001 435.901 519.001 436.328C519.001 436.84 519.268 437.224 519.801 437.48C520.356 437.736 521.209 437.992 522.361 438.248C523.684 438.589 524.761 438.931 525.593 439.272C526.425 439.592 527.151 440.125 527.769 440.872C528.409 441.597 528.74 442.579 528.761 443.816C528.761 444.861 528.463 445.8 527.865 446.632C527.289 447.443 526.447 448.083 525.337 448.552C524.249 449.021 522.98 449.256 521.529 449.256ZM545.674 430.888C546.933 430.888 548.032 431.144 548.97 431.656C549.93 432.168 550.666 432.84 551.178 433.672V431.144H556.65V448.968C556.65 450.611 556.32 452.093 555.658 453.416C555.018 454.76 554.026 455.827 552.682 456.616C551.36 457.405 549.706 457.8 547.722 457.8C545.077 457.8 542.933 457.171 541.29 455.912C539.648 454.675 538.709 452.989 538.474 450.856H543.882C544.053 451.539 544.458 452.072 545.098 452.456C545.738 452.861 546.528 453.064 547.466 453.064C548.597 453.064 549.493 452.733 550.154 452.072C550.837 451.432 551.178 450.397 551.178 448.968V446.44C550.645 447.272 549.909 447.955 548.97 448.488C548.032 449 546.933 449.256 545.674 449.256C544.202 449.256 542.869 448.883 541.674 448.136C540.48 447.368 539.53 446.291 538.826 444.904C538.144 443.496 537.802 441.875 537.802 440.04C537.802 438.205 538.144 436.595 538.826 435.208C539.53 433.821 540.48 432.755 541.674 432.008C542.869 431.261 544.202 430.888 545.674 430.888ZM551.178 440.072C551.178 438.707 550.794 437.629 550.026 436.84C549.28 436.051 548.362 435.656 547.274 435.656C546.186 435.656 545.258 436.051 544.49 436.84C543.744 437.608 543.37 438.675 543.37 440.04C543.37 441.405 543.744 442.493 544.49 443.304C545.258 444.093 546.186 444.488 547.274 444.488C548.362 444.488 549.28 444.093 550.026 443.304C550.794 442.515 551.178 441.437 551.178 440.072ZM568.737 449.256C566.988 449.256 565.409 448.883 564.001 448.136C562.614 447.389 561.516 446.323 560.705 444.936C559.916 443.549 559.521 441.928 559.521 440.072C559.521 438.237 559.926 436.627 560.737 435.24C561.548 433.832 562.657 432.755 564.065 432.008C565.473 431.261 567.052 430.888 568.801 430.888C570.55 430.888 572.129 431.261 573.537 432.008C574.945 432.755 576.054 433.832 576.865 435.24C577.676 436.627 578.081 438.237 578.081 440.072C578.081 441.907 577.665 443.528 576.833 444.936C576.022 446.323 574.902 447.389 573.473 448.136C572.065 448.883 570.486 449.256 568.737 449.256ZM568.737 444.52C569.782 444.52 570.668 444.136 571.393 443.368C572.14 442.6 572.513 441.501 572.513 440.072C572.513 438.643 572.15 437.544 571.425 436.776C570.721 436.008 569.846 435.624 568.801 435.624C567.734 435.624 566.849 436.008 566.145 436.776C565.441 437.523 565.089 438.621 565.089 440.072C565.089 441.501 565.43 442.6 566.113 443.368C566.817 444.136 567.692 444.52 568.737 444.52ZM589.112 449.256C587.363 449.256 585.784 448.883 584.376 448.136C582.989 447.389 581.891 446.323 581.08 444.936C580.291 443.549 579.896 441.928 579.896 440.072C579.896 438.237 580.301 436.627 581.112 435.24C581.923 433.832 583.032 432.755 584.44 432.008C585.848 431.261 587.427 430.888 589.176 430.888C590.925 430.888 592.504 431.261 593.912 432.008C595.32 432.755 596.429 433.832 597.24 435.24C598.051 436.627 598.456 438.237 598.456 440.072C598.456 441.907 598.04 443.528 597.208 444.936C596.397 446.323 595.277 447.389 593.848 448.136C592.44 448.883 590.861 449.256 589.112 449.256ZM589.112 444.52C590.157 444.52 591.043 444.136 591.768 443.368C592.515 442.6 592.888 441.501 592.888 440.072C592.888 438.643 592.525 437.544 591.8 436.776C591.096 436.008 590.221 435.624 589.176 435.624C588.109 435.624 587.224 436.008 586.52 436.776C585.816 437.523 585.464 438.621 585.464 440.072C585.464 441.501 585.805 442.6 586.488 443.368C587.192 444.136 588.067 444.52 589.112 444.52ZM600.271 440.04C600.271 438.205 600.612 436.595 601.295 435.208C601.999 433.821 602.948 432.755 604.143 432.008C605.338 431.261 606.671 430.888 608.143 430.888C609.316 430.888 610.383 431.133 611.343 431.624C612.324 432.115 613.092 432.776 613.647 433.608V425.32H619.119V449H613.647V446.44C613.135 447.293 612.399 447.976 611.439 448.488C610.5 449 609.402 449.256 608.143 449.256C606.671 449.256 605.338 448.883 604.143 448.136C602.948 447.368 601.999 446.291 601.295 444.904C600.612 443.496 600.271 441.875 600.271 440.04ZM613.647 440.072C613.647 438.707 613.263 437.629 612.495 436.84C611.748 436.051 610.831 435.656 609.743 435.656C608.655 435.656 607.727 436.051 606.959 436.84C606.212 437.608 605.839 438.675 605.839 440.04C605.839 441.405 606.212 442.493 606.959 443.304C607.727 444.093 608.655 444.488 609.743 444.488C610.831 444.488 611.748 444.093 612.495 443.304C613.263 442.515 613.647 441.437 613.647 440.072Z" fill="white"/>
<rect x="274" y="523" width="232" height="66" rx="33" fill="#8A08F0"/>
<path d="M314.055 567L306.503 557.08V567H301.031V544.536H306.503V554.392L313.991 544.536H320.423L311.719 555.544L320.743 567H314.055ZM334.223 548.952C336.314 548.952 337.978 549.635 339.215 551C340.474 552.344 341.103 554.2 341.103 556.568V567H335.663V557.304C335.663 556.109 335.354 555.181 334.735 554.52C334.117 553.859 333.285 553.528 332.239 553.528C331.194 553.528 330.362 553.859 329.743 554.52C329.125 555.181 328.815 556.109 328.815 557.304V567H323.343V549.144H328.815V551.512C329.37 550.723 330.117 550.104 331.055 549.656C331.994 549.187 333.05 548.952 334.223 548.952ZM353.034 567.256C351.285 567.256 349.706 566.883 348.298 566.136C346.911 565.389 345.813 564.323 345.002 562.936C344.213 561.549 343.818 559.928 343.818 558.072C343.818 556.237 344.223 554.627 345.034 553.24C345.845 551.832 346.954 550.755 348.362 550.008C349.77 549.261 351.349 548.888 353.098 548.888C354.847 548.888 356.426 549.261 357.834 550.008C359.242 550.755 360.351 551.832 361.162 553.24C361.973 554.627 362.378 556.237 362.378 558.072C362.378 559.907 361.962 561.528 361.13 562.936C360.319 564.323 359.199 565.389 357.77 566.136C356.362 566.883 354.783 567.256 353.034 567.256ZM353.034 562.52C354.079 562.52 354.965 562.136 355.69 561.368C356.437 560.6 356.81 559.501 356.81 558.072C356.81 556.643 356.447 555.544 355.722 554.776C355.018 554.008 354.143 553.624 353.098 553.624C352.031 553.624 351.146 554.008 350.442 554.776C349.738 555.523 349.386 556.621 349.386 558.072C349.386 559.501 349.727 560.6 350.41 561.368C351.114 562.136 351.989 562.52 353.034 562.52ZM390.913 549.144L386.081 567H380.033L377.217 555.416L374.305 567H368.289L363.425 549.144H368.897L371.425 561.912L374.433 549.144H380.225L383.265 561.848L385.761 549.144H390.913ZM425.221 544.536V567H419.749V553.528L414.725 567H410.309L405.253 553.496V567H399.781V544.536H406.245L412.549 560.088L418.789 544.536H425.221ZM437.284 567.256C435.535 567.256 433.956 566.883 432.548 566.136C431.161 565.389 430.063 564.323 429.252 562.936C428.463 561.549 428.068 559.928 428.068 558.072C428.068 556.237 428.473 554.627 429.284 553.24C430.095 551.832 431.204 550.755 432.612 550.008C434.02 549.261 435.599 548.888 437.348 548.888C439.097 548.888 440.676 549.261 442.084 550.008C443.492 550.755 444.601 551.832 445.412 553.24C446.223 554.627 446.628 556.237 446.628 558.072C446.628 559.907 446.212 561.528 445.38 562.936C444.569 564.323 443.449 565.389 442.02 566.136C440.612 566.883 439.033 567.256 437.284 567.256ZM437.284 562.52C438.329 562.52 439.215 562.136 439.94 561.368C440.687 560.6 441.06 559.501 441.06 558.072C441.06 556.643 440.697 555.544 439.972 554.776C439.268 554.008 438.393 553.624 437.348 553.624C436.281 553.624 435.396 554.008 434.692 554.776C433.988 555.523 433.636 556.621 433.636 558.072C433.636 559.501 433.977 560.6 434.66 561.368C435.364 562.136 436.239 562.52 437.284 562.52ZM455.003 552.12C455.643 551.139 456.443 550.371 457.403 549.816C458.363 549.24 459.43 548.952 460.603 548.952V554.744H459.099C457.734 554.744 456.71 555.043 456.027 555.64C455.344 556.216 455.003 557.24 455.003 558.712V567H449.531V549.144H455.003V552.12ZM480.05 557.784C480.05 558.296 480.018 558.829 479.954 559.384H467.57C467.656 560.493 468.008 561.347 468.626 561.944C469.266 562.52 470.045 562.808 470.962 562.808C472.328 562.808 473.277 562.232 473.81 561.08H479.634C479.336 562.253 478.792 563.309 478.002 564.248C477.234 565.187 476.264 565.923 475.09 566.456C473.917 566.989 472.605 567.256 471.154 567.256C469.405 567.256 467.848 566.883 466.482 566.136C465.117 565.389 464.05 564.323 463.282 562.936C462.514 561.549 462.13 559.928 462.13 558.072C462.13 556.216 462.504 554.595 463.25 553.208C464.018 551.821 465.085 550.755 466.45 550.008C467.816 549.261 469.384 548.888 471.154 548.888C472.882 548.888 474.418 549.251 475.762 549.976C477.106 550.701 478.152 551.736 478.898 553.08C479.666 554.424 480.05 555.992 480.05 557.784ZM474.45 556.344C474.45 555.405 474.13 554.659 473.49 554.104C472.85 553.549 472.05 553.272 471.09 553.272C470.173 553.272 469.394 553.539 468.754 554.072C468.136 554.605 467.752 555.363 467.602 556.344H474.45Z" fill="white"/>
<path d="M390 762L398 770L390 778L382 770L390 762Z" fill="#8A08F0"/>
</svg>
