<svg width="780" height="780" viewBox="0 0 780 780" fill="none" xmlns="http://www.w3.org/2000/svg">
<path d="M9.19239 390L390 9.19239L770.808 390L390 770.808L9.19239 390Z" stroke="#8F00FF" stroke-width="13"/>
<path d="M290.5 182.9V218H281.95V203.55H268.65V218H260.1V182.9H268.65V196.65H281.95V182.9H290.5ZM322.972 203.6C322.972 204.4 322.922 205.233 322.822 206.1H303.472C303.606 207.833 304.156 209.167 305.122 210.1C306.122 211 307.339 211.45 308.772 211.45C310.906 211.45 312.389 210.55 313.222 208.75H322.322C321.856 210.583 321.006 212.233 319.772 213.7C318.572 215.167 317.056 216.317 315.222 217.15C313.389 217.983 311.339 218.4 309.072 218.4C306.339 218.4 303.906 217.817 301.772 216.65C299.639 215.483 297.972 213.817 296.772 211.65C295.572 209.483 294.972 206.95 294.972 204.05C294.972 201.15 295.556 198.617 296.722 196.45C297.922 194.283 299.589 192.617 301.722 191.45C303.856 190.283 306.306 189.7 309.072 189.7C311.772 189.7 314.172 190.267 316.272 191.4C318.372 192.533 320.006 194.15 321.172 196.25C322.372 198.35 322.972 200.8 322.972 203.6ZM314.222 201.35C314.222 199.883 313.722 198.717 312.722 197.85C311.722 196.983 310.472 196.55 308.972 196.55C307.539 196.55 306.322 196.967 305.322 197.8C304.356 198.633 303.756 199.817 303.522 201.35H314.222ZM338.833 218.4C336.399 218.4 334.233 217.983 332.333 217.15C330.433 216.317 328.933 215.183 327.833 213.75C326.733 212.283 326.116 210.65 325.983 208.85H334.433C334.533 209.817 334.983 210.6 335.783 211.2C336.583 211.8 337.566 212.1 338.733 212.1C339.799 212.1 340.616 211.9 341.183 211.5C341.783 211.067 342.083 210.517 342.083 209.85C342.083 209.05 341.666 208.467 340.833 208.1C339.999 207.7 338.649 207.267 336.783 206.8C334.783 206.333 333.116 205.85 331.783 205.35C330.449 204.817 329.299 204 328.333 202.9C327.366 201.767 326.883 200.25 326.883 198.35C326.883 196.75 327.316 195.3 328.183 194C329.083 192.667 330.383 191.617 332.083 190.85C333.816 190.083 335.866 189.7 338.233 189.7C341.733 189.7 344.483 190.567 346.483 192.3C348.516 194.033 349.683 196.333 349.983 199.2H342.083C341.949 198.233 341.516 197.467 340.783 196.9C340.083 196.333 339.149 196.05 337.983 196.05C336.983 196.05 336.216 196.25 335.683 196.65C335.149 197.017 334.883 197.533 334.883 198.2C334.883 199 335.299 199.6 336.133 200C336.999 200.4 338.333 200.8 340.133 201.2C342.199 201.733 343.883 202.267 345.183 202.8C346.483 203.3 347.616 204.133 348.583 205.3C349.583 206.433 350.099 207.967 350.133 209.9C350.133 211.533 349.666 213 348.733 214.3C347.833 215.567 346.516 216.567 344.783 217.3C343.083 218.033 341.099 218.4 338.833 218.4ZM359.664 187.2C358.164 187.2 356.93 186.767 355.964 185.9C355.03 185 354.564 183.9 354.564 182.6C354.564 181.267 355.03 180.167 355.964 179.3C356.93 178.4 358.164 177.95 359.664 177.95C361.13 177.95 362.33 178.4 363.264 179.3C364.23 180.167 364.714 181.267 364.714 182.6C364.714 183.9 364.23 185 363.264 185.9C362.33 186.767 361.13 187.2 359.664 187.2ZM363.914 190.1V218H355.364V190.1H363.914ZM385.66 210.75V218H381.31C378.21 218 375.793 217.25 374.06 215.75C372.326 214.217 371.46 211.733 371.46 208.3V197.2H368.06V190.1H371.46V183.3H380.01V190.1H385.61V197.2H380.01V208.4C380.01 209.233 380.21 209.833 380.61 210.2C381.01 210.567 381.676 210.75 382.61 210.75H385.66ZM388.722 204C388.722 201.133 389.256 198.617 390.322 196.45C391.422 194.283 392.906 192.617 394.772 191.45C396.639 190.283 398.722 189.7 401.022 189.7C402.989 189.7 404.706 190.1 406.172 190.9C407.672 191.7 408.822 192.75 409.622 194.05V190.1H418.172V218H409.622V214.05C408.789 215.35 407.622 216.4 406.122 217.2C404.656 218 402.939 218.4 400.972 218.4C398.706 218.4 396.639 217.817 394.772 216.65C392.906 215.45 391.422 213.767 390.322 211.6C389.256 209.4 388.722 206.867 388.722 204ZM409.622 204.05C409.622 201.917 409.022 200.233 407.822 199C406.656 197.767 405.222 197.15 403.522 197.15C401.822 197.15 400.372 197.767 399.172 199C398.006 200.2 397.422 201.867 397.422 204C397.422 206.133 398.006 207.833 399.172 209.1C400.372 210.333 401.822 210.95 403.522 210.95C405.222 210.95 406.656 210.333 407.822 209.1C409.022 207.867 409.622 206.183 409.622 204.05ZM439.908 210.75V218H435.558C432.458 218 430.041 217.25 428.308 215.75C426.574 214.217 425.708 211.733 425.708 208.3V197.2H422.308V190.1H425.708V183.3H434.258V190.1H439.858V197.2H434.258V208.4C434.258 209.233 434.458 209.833 434.858 210.2C435.258 210.567 435.924 210.75 436.858 210.75H439.908ZM448.97 187.2C447.47 187.2 446.237 186.767 445.27 185.9C444.337 185 443.87 183.9 443.87 182.6C443.87 181.267 444.337 180.167 445.27 179.3C446.237 178.4 447.47 177.95 448.97 177.95C450.437 177.95 451.637 178.4 452.57 179.3C453.537 180.167 454.02 181.267 454.02 182.6C454.02 183.9 453.537 185 452.57 185.9C451.637 186.767 450.437 187.2 448.97 187.2ZM453.22 190.1V218H444.67V190.1H453.22ZM472.116 218.4C469.383 218.4 466.916 217.817 464.716 216.65C462.55 215.483 460.833 213.817 459.566 211.65C458.333 209.483 457.716 206.95 457.716 204.05C457.716 201.183 458.35 198.667 459.616 196.5C460.883 194.3 462.616 192.617 464.816 191.45C467.016 190.283 469.483 189.7 472.216 189.7C474.95 189.7 477.416 190.283 479.616 191.45C481.816 192.617 483.55 194.3 484.816 196.5C486.083 198.667 486.716 201.183 486.716 204.05C486.716 206.917 486.066 209.45 484.766 211.65C483.5 213.817 481.75 215.483 479.516 216.65C477.316 217.817 474.85 218.4 472.116 218.4ZM472.116 211C473.75 211 475.133 210.4 476.266 209.2C477.433 208 478.016 206.283 478.016 204.05C478.016 201.817 477.45 200.1 476.316 198.9C475.216 197.7 473.85 197.1 472.216 197.1C470.55 197.1 469.166 197.7 468.066 198.9C466.966 200.067 466.416 201.783 466.416 204.05C466.416 206.283 466.95 208 468.016 209.2C469.116 210.4 470.483 211 472.116 211ZM508.252 189.8C511.519 189.8 514.119 190.867 516.052 193C518.019 195.1 519.002 198 519.002 201.7V218H510.502V202.85C510.502 200.983 510.019 199.533 509.052 198.5C508.086 197.467 506.786 196.95 505.152 196.95C503.519 196.95 502.219 197.467 501.252 198.5C500.286 199.533 499.802 200.983 499.802 202.85V218H491.252V190.1H499.802V193.8C500.669 192.567 501.836 191.6 503.302 190.9C504.769 190.167 506.419 189.8 508.252 189.8Z" fill="white"/>
<path d="M235 238H545" stroke="#8A08F0" stroke-width="13" stroke-linecap="round"/>
<path d="M165.779 330.536L158.003 345.576V353H152.531V345.576L144.755 330.536H150.963L155.315 339.944L159.635 330.536H165.779ZM176.112 353.256C174.363 353.256 172.784 352.883 171.376 352.136C169.989 351.389 168.891 350.323 168.08 348.936C167.291 347.549 166.896 345.928 166.896 344.072C166.896 342.237 167.301 340.627 168.112 339.24C168.923 337.832 170.032 336.755 171.44 336.008C172.848 335.261 174.427 334.888 176.176 334.888C177.925 334.888 179.504 335.261 180.912 336.008C182.32 336.755 183.429 337.832 184.24 339.24C185.051 340.627 185.456 342.237 185.456 344.072C185.456 345.907 185.04 347.528 184.208 348.936C183.397 350.323 182.277 351.389 180.848 352.136C179.44 352.883 177.861 353.256 176.112 353.256ZM176.112 348.52C177.157 348.52 178.043 348.136 178.768 347.368C179.515 346.6 179.888 345.501 179.888 344.072C179.888 342.643 179.525 341.544 178.8 340.776C178.096 340.008 177.221 339.624 176.176 339.624C175.109 339.624 174.224 340.008 173.52 340.776C172.816 341.523 172.464 342.621 172.464 344.072C172.464 345.501 172.805 346.6 173.488 347.368C174.192 348.136 175.067 348.52 176.112 348.52ZM205.991 335.144V353H200.519V350.568C199.964 351.357 199.207 351.997 198.247 352.488C197.308 352.957 196.263 353.192 195.111 353.192C193.746 353.192 192.54 352.893 191.495 352.296C190.45 351.677 189.639 350.792 189.063 349.64C188.487 348.488 188.199 347.133 188.199 345.576V335.144H193.639V344.84C193.639 346.035 193.948 346.963 194.567 347.624C195.186 348.285 196.018 348.616 197.063 348.616C198.13 348.616 198.972 348.285 199.591 347.624C200.21 346.963 200.519 346.035 200.519 344.84V335.144H205.991ZM242.335 335.144L237.503 353H231.455L228.639 341.416L225.727 353H219.711L214.847 335.144H220.319L222.847 347.912L225.855 335.144H231.647L234.687 347.848L237.183 335.144H242.335ZM261.253 343.784C261.253 344.296 261.222 344.829 261.158 345.384H248.774C248.859 346.493 249.211 347.347 249.83 347.944C250.47 348.52 251.248 348.808 252.166 348.808C253.531 348.808 254.48 348.232 255.014 347.08H260.838C260.539 348.253 259.995 349.309 259.206 350.248C258.438 351.187 257.467 351.923 256.294 352.456C255.12 352.989 253.808 353.256 252.358 353.256C250.608 353.256 249.051 352.883 247.686 352.136C246.32 351.389 245.254 350.323 244.486 348.936C243.718 347.549 243.334 345.928 243.334 344.072C243.334 342.216 243.707 340.595 244.454 339.208C245.222 337.821 246.288 336.755 247.654 336.008C249.019 335.261 250.587 334.888 252.358 334.888C254.086 334.888 255.622 335.251 256.966 335.976C258.31 336.701 259.355 337.736 260.102 339.08C260.87 340.424 261.253 341.992 261.253 343.784ZM255.654 342.344C255.654 341.405 255.334 340.659 254.694 340.104C254.054 339.549 253.254 339.272 252.294 339.272C251.376 339.272 250.598 339.539 249.958 340.072C249.339 340.605 248.955 341.363 248.806 342.344H255.654ZM269.612 338.12C270.252 337.139 271.052 336.371 272.012 335.816C272.972 335.24 274.039 334.952 275.212 334.952V340.744H273.708C272.343 340.744 271.319 341.043 270.636 341.64C269.954 342.216 269.612 343.24 269.612 344.712V353H264.14V335.144H269.612V338.12ZM294.66 343.784C294.66 344.296 294.628 344.829 294.564 345.384H282.18C282.265 346.493 282.617 347.347 283.236 347.944C283.876 348.52 284.654 348.808 285.572 348.808C286.937 348.808 287.886 348.232 288.42 347.08H294.244C293.945 348.253 293.401 349.309 292.612 350.248C291.844 351.187 290.873 351.923 289.7 352.456C288.526 352.989 287.214 353.256 285.764 353.256C284.014 353.256 282.457 352.883 281.092 352.136C279.726 351.389 278.66 350.323 277.892 348.936C277.124 347.549 276.74 345.928 276.74 344.072C276.74 342.216 277.113 340.595 277.86 339.208C278.628 337.821 279.694 336.755 281.06 336.008C282.425 335.261 283.993 334.888 285.764 334.888C287.492 334.888 289.028 335.251 290.372 335.976C291.716 336.701 292.761 337.736 293.508 339.08C294.276 340.424 294.66 341.992 294.66 343.784ZM289.06 342.344C289.06 341.405 288.74 340.659 288.1 340.104C287.46 339.549 286.66 339.272 285.7 339.272C284.782 339.272 284.004 339.539 283.364 340.072C282.745 340.605 282.361 341.363 282.212 342.344H289.06ZM315.304 334.952C317.352 334.952 318.994 335.635 320.232 337C321.469 338.344 322.088 340.2 322.088 342.568V353H316.648V343.304C316.648 342.109 316.338 341.181 315.72 340.52C315.101 339.859 314.269 339.528 313.224 339.528C312.178 339.528 311.346 339.859 310.728 340.52C310.109 341.181 309.8 342.109 309.8 343.304V353H304.328V329.32H309.8V337.544C310.354 336.755 311.112 336.125 312.072 335.656C313.032 335.187 314.109 334.952 315.304 334.952ZM342.722 343.784C342.722 344.296 342.69 344.829 342.626 345.384H330.242C330.328 346.493 330.68 347.347 331.298 347.944C331.938 348.52 332.717 348.808 333.634 348.808C335 348.808 335.949 348.232 336.482 347.08H342.306C342.008 348.253 341.464 349.309 340.674 350.248C339.906 351.187 338.936 351.923 337.762 352.456C336.589 352.989 335.277 353.256 333.826 353.256C332.077 353.256 330.52 352.883 329.154 352.136C327.789 351.389 326.722 350.323 325.954 348.936C325.186 347.549 324.802 345.928 324.802 344.072C324.802 342.216 325.176 340.595 325.922 339.208C326.69 337.821 327.757 336.755 329.122 336.008C330.488 335.261 332.056 334.888 333.826 334.888C335.554 334.888 337.09 335.251 338.434 335.976C339.778 336.701 340.824 337.736 341.57 339.08C342.338 340.424 342.722 341.992 342.722 343.784ZM337.122 342.344C337.122 341.405 336.802 340.659 336.162 340.104C335.522 339.549 334.722 339.272 333.762 339.272C332.845 339.272 332.066 339.539 331.426 340.072C330.808 340.605 330.424 341.363 330.274 342.344H337.122ZM352.873 353.256C351.316 353.256 349.929 352.989 348.713 352.456C347.497 351.923 346.537 351.197 345.833 350.28C345.129 349.341 344.734 348.296 344.649 347.144H350.057C350.121 347.763 350.409 348.264 350.921 348.648C351.433 349.032 352.062 349.224 352.809 349.224C353.492 349.224 354.014 349.096 354.377 348.84C354.761 348.563 354.953 348.211 354.953 347.784C354.953 347.272 354.686 346.899 354.153 346.664C353.62 346.408 352.756 346.131 351.561 345.832C350.281 345.533 349.214 345.224 348.361 344.904C347.508 344.563 346.772 344.04 346.153 343.336C345.534 342.611 345.225 341.64 345.225 340.424C345.225 339.4 345.502 338.472 346.057 337.64C346.633 336.787 347.465 336.115 348.553 335.624C349.662 335.133 350.974 334.888 352.489 334.888C354.729 334.888 356.489 335.443 357.769 336.552C359.07 337.661 359.817 339.133 360.009 340.968H354.953C354.868 340.349 354.59 339.859 354.121 339.496C353.673 339.133 353.076 338.952 352.329 338.952C351.689 338.952 351.198 339.08 350.857 339.336C350.516 339.571 350.345 339.901 350.345 340.328C350.345 340.84 350.612 341.224 351.145 341.48C351.7 341.736 352.553 341.992 353.705 342.248C355.028 342.589 356.105 342.931 356.937 343.272C357.769 343.592 358.494 344.125 359.113 344.872C359.753 345.597 360.084 346.579 360.105 347.816C360.105 348.861 359.806 349.8 359.209 350.632C358.633 351.443 357.79 352.083 356.681 352.552C355.593 353.021 354.324 353.256 352.873 353.256ZM366.205 333.288C365.245 333.288 364.455 333.011 363.837 332.456C363.239 331.88 362.941 331.176 362.941 330.344C362.941 329.491 363.239 328.787 363.837 328.232C364.455 327.656 365.245 327.368 366.205 327.368C367.143 327.368 367.911 327.656 368.509 328.232C369.127 328.787 369.437 329.491 369.437 330.344C369.437 331.176 369.127 331.88 368.509 332.456C367.911 333.011 367.143 333.288 366.205 333.288ZM368.925 335.144V353H363.453V335.144H368.925ZM382.842 348.36V353H380.058C378.074 353 376.528 352.52 375.418 351.56C374.309 350.579 373.754 348.989 373.754 346.792V339.688H371.578V335.144H373.754V330.792H379.226V335.144H382.81V339.688H379.226V346.856C379.226 347.389 379.354 347.773 379.61 348.008C379.866 348.243 380.293 348.36 380.89 348.36H382.842ZM384.802 344.04C384.802 342.205 385.144 340.595 385.826 339.208C386.53 337.821 387.48 336.755 388.674 336.008C389.869 335.261 391.202 334.888 392.674 334.888C393.933 334.888 395.032 335.144 395.97 335.656C396.93 336.168 397.666 336.84 398.178 337.672V335.144H403.65V353H398.178V350.472C397.645 351.304 396.898 351.976 395.938 352.488C395 353 393.901 353.256 392.642 353.256C391.192 353.256 389.869 352.883 388.674 352.136C387.48 351.368 386.53 350.291 385.826 348.904C385.144 347.496 384.802 345.875 384.802 344.04ZM398.178 344.072C398.178 342.707 397.794 341.629 397.026 340.84C396.28 340.051 395.362 339.656 394.274 339.656C393.186 339.656 392.258 340.051 391.49 340.84C390.744 341.608 390.37 342.675 390.37 344.04C390.37 345.405 390.744 346.493 391.49 347.304C392.258 348.093 393.186 348.488 394.274 348.488C395.362 348.488 396.28 348.093 397.026 347.304C397.794 346.515 398.178 345.437 398.178 344.072ZM417.561 348.36V353H414.777C412.793 353 411.246 352.52 410.137 351.56C409.028 350.579 408.473 348.989 408.473 346.792V339.688H406.297V335.144H408.473V330.792H413.945V335.144H417.529V339.688H413.945V346.856C413.945 347.389 414.073 347.773 414.329 348.008C414.585 348.243 415.012 348.36 415.609 348.36H417.561ZM437.441 343.784C437.441 344.296 437.409 344.829 437.345 345.384H424.961C425.046 346.493 425.398 347.347 426.017 347.944C426.657 348.52 427.436 348.808 428.353 348.808C429.718 348.808 430.668 348.232 431.201 347.08H437.025C436.726 348.253 436.182 349.309 435.393 350.248C434.625 351.187 433.654 351.923 432.481 352.456C431.308 352.989 429.996 353.256 428.545 353.256C426.796 353.256 425.238 352.883 423.873 352.136C422.508 351.389 421.441 350.323 420.673 348.936C419.905 347.549 419.521 345.928 419.521 344.072C419.521 342.216 419.894 340.595 420.641 339.208C421.409 337.821 422.476 336.755 423.841 336.008C425.206 335.261 426.774 334.888 428.545 334.888C430.273 334.888 431.809 335.251 433.153 335.976C434.497 336.701 435.542 337.736 436.289 339.08C437.057 340.424 437.441 341.992 437.441 343.784ZM431.841 342.344C431.841 341.405 431.521 340.659 430.881 340.104C430.241 339.549 429.441 339.272 428.481 339.272C427.564 339.272 426.785 339.539 426.145 340.072C425.526 340.605 425.142 341.363 424.993 342.344H431.841ZM449.861 333.288C448.901 333.288 448.112 333.011 447.493 332.456C446.896 331.88 446.597 331.176 446.597 330.344C446.597 329.491 446.896 328.787 447.493 328.232C448.112 327.656 448.901 327.368 449.861 327.368C450.8 327.368 451.568 327.656 452.165 328.232C452.784 328.787 453.093 329.491 453.093 330.344C453.093 331.176 452.784 331.88 452.165 332.456C451.568 333.011 450.8 333.288 449.861 333.288ZM452.581 335.144V353H447.109V335.144H452.581ZM467.427 334.952C469.517 334.952 471.181 335.635 472.419 337C473.677 338.344 474.307 340.2 474.307 342.568V353H468.867V343.304C468.867 342.109 468.557 341.181 467.939 340.52C467.32 339.859 466.488 339.528 465.443 339.528C464.397 339.528 463.565 339.859 462.947 340.52C462.328 341.181 462.019 342.109 462.019 343.304V353H456.547V335.144H462.019V337.512C462.573 336.723 463.32 336.104 464.259 335.656C465.197 335.187 466.253 334.952 467.427 334.952ZM494.842 348.36V353H492.058C490.074 353 488.528 352.52 487.418 351.56C486.309 350.579 485.754 348.989 485.754 346.792V339.688H483.578V335.144H485.754V330.792H491.226V335.144H494.81V339.688H491.226V346.856C491.226 347.389 491.354 347.773 491.61 348.008C491.866 348.243 492.293 348.36 492.89 348.36H494.842ZM508.866 334.952C510.914 334.952 512.557 335.635 513.794 337C515.032 338.344 515.65 340.2 515.65 342.568V353H510.21V343.304C510.21 342.109 509.901 341.181 509.282 340.52C508.664 339.859 507.832 339.528 506.786 339.528C505.741 339.528 504.909 339.859 504.29 340.52C503.672 341.181 503.362 342.109 503.362 343.304V353H497.89V329.32H503.362V337.544C503.917 336.755 504.674 336.125 505.634 335.656C506.594 335.187 507.672 334.952 508.866 334.952ZM536.285 343.784C536.285 344.296 536.253 344.829 536.189 345.384H523.805C523.89 346.493 524.242 347.347 524.861 347.944C525.501 348.52 526.279 348.808 527.197 348.808C528.562 348.808 529.511 348.232 530.045 347.08H535.869C535.57 348.253 535.026 349.309 534.237 350.248C533.469 351.187 532.498 351.923 531.325 352.456C530.151 352.989 528.839 353.256 527.389 353.256C525.639 353.256 524.082 352.883 522.717 352.136C521.351 351.389 520.285 350.323 519.517 348.936C518.749 347.549 518.365 345.928 518.365 344.072C518.365 342.216 518.738 340.595 519.485 339.208C520.253 337.821 521.319 336.755 522.685 336.008C524.05 335.261 525.618 334.888 527.389 334.888C529.117 334.888 530.653 335.251 531.997 335.976C533.341 336.701 534.386 337.736 535.133 339.08C535.901 340.424 536.285 341.992 536.285 343.784ZM530.685 342.344C530.685 341.405 530.365 340.659 529.725 340.104C529.085 339.549 528.285 339.272 527.325 339.272C526.407 339.272 525.629 339.539 524.989 340.072C524.37 340.605 523.986 341.363 523.837 342.344H530.685ZM571.585 335.144L566.753 353H560.705L557.889 341.416L554.977 353H548.961L544.097 335.144H549.569L552.097 347.912L555.105 335.144H560.897L563.937 347.848L566.433 335.144H571.585ZM581.8 353.256C580.05 353.256 578.472 352.883 577.064 352.136C575.677 351.389 574.578 350.323 573.768 348.936C572.978 347.549 572.584 345.928 572.584 344.072C572.584 342.237 572.989 340.627 573.799 339.24C574.61 337.832 575.72 336.755 577.128 336.008C578.536 335.261 580.114 334.888 581.864 334.888C583.613 334.888 585.192 335.261 586.6 336.008C588.008 336.755 589.117 337.832 589.928 339.24C590.738 340.627 591.144 342.237 591.144 344.072C591.144 345.907 590.728 347.528 589.896 348.936C589.085 350.323 587.965 351.389 586.536 352.136C585.128 352.883 583.549 353.256 581.8 353.256ZM581.8 348.52C582.845 348.52 583.73 348.136 584.456 347.368C585.202 346.6 585.576 345.501 585.576 344.072C585.576 342.643 585.213 341.544 584.488 340.776C583.784 340.008 582.909 339.624 581.864 339.624C580.797 339.624 579.912 340.008 579.208 340.776C578.504 341.523 578.152 342.621 578.152 344.072C578.152 345.501 578.493 346.6 579.176 347.368C579.88 348.136 580.754 348.52 581.8 348.52ZM599.519 338.12C600.159 337.139 600.959 336.371 601.919 335.816C602.879 335.24 603.945 334.952 605.119 334.952V340.744H603.615C602.249 340.744 601.225 341.043 600.543 341.64C599.86 342.216 599.519 343.24 599.519 344.712V353H594.047V335.144H599.519V338.12ZM606.646 344.04C606.646 342.205 606.987 340.595 607.67 339.208C608.374 337.821 609.323 336.755 610.518 336.008C611.713 335.261 613.046 334.888 614.518 334.888C615.691 334.888 616.758 335.133 617.718 335.624C618.699 336.115 619.467 336.776 620.022 337.608V329.32H625.494V353H620.022V350.44C619.51 351.293 618.774 351.976 617.814 352.488C616.875 353 615.777 353.256 614.518 353.256C613.046 353.256 611.713 352.883 610.518 352.136C609.323 351.368 608.374 350.291 607.67 348.904C606.987 347.496 606.646 345.875 606.646 344.04ZM620.022 344.072C620.022 342.707 619.638 341.629 618.87 340.84C618.123 340.051 617.206 339.656 616.118 339.656C615.03 339.656 614.102 340.051 613.334 340.84C612.587 341.608 612.214 342.675 612.214 344.04C612.214 345.405 612.587 346.493 613.334 347.304C614.102 348.093 615.03 348.488 616.118 348.488C617.206 348.488 618.123 348.093 618.87 347.304C619.638 346.515 620.022 345.437 620.022 344.072ZM189.284 385.672C189.817 384.84 190.553 384.168 191.492 383.656C192.431 383.144 193.529 382.888 194.788 382.888C196.26 382.888 197.593 383.261 198.788 384.008C199.983 384.755 200.921 385.821 201.604 387.208C202.308 388.595 202.66 390.205 202.66 392.04C202.66 393.875 202.308 395.496 201.604 396.904C200.921 398.291 199.983 399.368 198.788 400.136C197.593 400.883 196.26 401.256 194.788 401.256C193.551 401.256 192.452 401 191.492 400.488C190.553 399.976 189.817 399.315 189.284 398.504V409.512H183.812V383.144H189.284V385.672ZM197.092 392.04C197.092 390.675 196.708 389.608 195.94 388.84C195.193 388.051 194.265 387.656 193.156 387.656C192.068 387.656 191.14 388.051 190.372 388.84C189.625 389.629 189.252 390.707 189.252 392.072C189.252 393.437 189.625 394.515 190.372 395.304C191.14 396.093 192.068 396.488 193.156 396.488C194.244 396.488 195.172 396.093 195.94 395.304C196.708 394.493 197.092 393.405 197.092 392.04ZM211.003 386.12C211.643 385.139 212.443 384.371 213.403 383.816C214.363 383.24 215.43 382.952 216.603 382.952V388.744H215.099C213.734 388.744 212.71 389.043 212.027 389.64C211.344 390.216 211.003 391.24 211.003 392.712V401H205.531V383.144H211.003V386.12ZM227.346 401.256C225.597 401.256 224.018 400.883 222.61 400.136C221.224 399.389 220.125 398.323 219.314 396.936C218.525 395.549 218.13 393.928 218.13 392.072C218.13 390.237 218.536 388.627 219.346 387.24C220.157 385.832 221.266 384.755 222.674 384.008C224.082 383.261 225.661 382.888 227.41 382.888C229.16 382.888 230.738 383.261 232.146 384.008C233.554 384.755 234.664 385.832 235.474 387.24C236.285 388.627 236.69 390.237 236.69 392.072C236.69 393.907 236.274 395.528 235.442 396.936C234.632 398.323 233.512 399.389 232.082 400.136C230.674 400.883 229.096 401.256 227.346 401.256ZM227.346 396.52C228.392 396.52 229.277 396.136 230.002 395.368C230.749 394.6 231.122 393.501 231.122 392.072C231.122 390.643 230.76 389.544 230.034 388.776C229.33 388.008 228.456 387.624 227.41 387.624C226.344 387.624 225.458 388.008 224.754 388.776C224.05 389.523 223.698 390.621 223.698 392.072C223.698 393.501 224.04 394.6 224.722 395.368C225.426 396.136 226.301 396.52 227.346 396.52ZM246.377 382.888C247.636 382.888 248.735 383.144 249.673 383.656C250.633 384.168 251.369 384.84 251.881 385.672V383.144H257.353V400.968C257.353 402.611 257.023 404.093 256.361 405.416C255.721 406.76 254.729 407.827 253.385 408.616C252.063 409.405 250.409 409.8 248.425 409.8C245.78 409.8 243.636 409.171 241.993 407.912C240.351 406.675 239.412 404.989 239.177 402.856H244.585C244.756 403.539 245.161 404.072 245.801 404.456C246.441 404.861 247.231 405.064 248.169 405.064C249.3 405.064 250.196 404.733 250.857 404.072C251.54 403.432 251.881 402.397 251.881 400.968V398.44C251.348 399.272 250.612 399.955 249.673 400.488C248.735 401 247.636 401.256 246.377 401.256C244.905 401.256 243.572 400.883 242.377 400.136C241.183 399.368 240.233 398.291 239.529 396.904C238.847 395.496 238.505 393.875 238.505 392.04C238.505 390.205 238.847 388.595 239.529 387.208C240.233 385.821 241.183 384.755 242.377 384.008C243.572 383.261 244.905 382.888 246.377 382.888ZM251.881 392.072C251.881 390.707 251.497 389.629 250.729 388.84C249.983 388.051 249.065 387.656 247.977 387.656C246.889 387.656 245.961 388.051 245.193 388.84C244.447 389.608 244.073 390.675 244.073 392.04C244.073 393.405 244.447 394.493 245.193 395.304C245.961 396.093 246.889 396.488 247.977 396.488C249.065 396.488 249.983 396.093 250.729 395.304C251.497 394.515 251.881 393.437 251.881 392.072ZM266.784 386.12C267.424 385.139 268.224 384.371 269.184 383.816C270.144 383.24 271.211 382.952 272.384 382.952V388.744H270.88C269.515 388.744 268.491 389.043 267.808 389.64C267.125 390.216 266.784 391.24 266.784 392.712V401H261.312V383.144H266.784V386.12ZM273.912 392.04C273.912 390.205 274.253 388.595 274.936 387.208C275.64 385.821 276.589 384.755 277.784 384.008C278.978 383.261 280.312 382.888 281.784 382.888C283.042 382.888 284.141 383.144 285.08 383.656C286.04 384.168 286.776 384.84 287.288 385.672V383.144H292.76V401H287.288V398.472C286.754 399.304 286.008 399.976 285.048 400.488C284.109 401 283.01 401.256 281.752 401.256C280.301 401.256 278.978 400.883 277.784 400.136C276.589 399.368 275.64 398.291 274.936 396.904C274.253 395.496 273.912 393.875 273.912 392.04ZM287.288 392.072C287.288 390.707 286.904 389.629 286.136 388.84C285.389 388.051 284.472 387.656 283.384 387.656C282.296 387.656 281.368 388.051 280.6 388.84C279.853 389.608 279.48 390.675 279.48 392.04C279.48 393.405 279.853 394.493 280.6 395.304C281.368 396.093 282.296 396.488 283.384 396.488C284.472 396.488 285.389 396.093 286.136 395.304C286.904 394.515 287.288 393.437 287.288 392.072ZM319.502 382.952C321.721 382.952 323.481 383.624 324.782 384.968C326.105 386.312 326.766 388.179 326.766 390.568V401H321.326V391.304C321.326 390.152 321.017 389.267 320.398 388.648C319.801 388.008 318.969 387.688 317.902 387.688C316.836 387.688 315.993 388.008 315.374 388.648C314.777 389.267 314.478 390.152 314.478 391.304V401H309.038V391.304C309.038 390.152 308.729 389.267 308.11 388.648C307.513 388.008 306.681 387.688 305.614 387.688C304.548 387.688 303.705 388.008 303.086 388.648C302.489 389.267 302.19 390.152 302.19 391.304V401H296.718V383.144H302.19V385.384C302.745 384.637 303.47 384.051 304.366 383.624C305.262 383.176 306.276 382.952 307.406 382.952C308.75 382.952 309.945 383.24 310.99 383.816C312.057 384.392 312.889 385.213 313.486 386.28C314.105 385.299 314.948 384.499 316.014 383.88C317.081 383.261 318.244 382.952 319.502 382.952ZM353.377 382.952C355.596 382.952 357.356 383.624 358.657 384.968C359.98 386.312 360.641 388.179 360.641 390.568V401H355.201V391.304C355.201 390.152 354.892 389.267 354.273 388.648C353.676 388.008 352.844 387.688 351.777 387.688C350.711 387.688 349.868 388.008 349.249 388.648C348.652 389.267 348.353 390.152 348.353 391.304V401H342.913V391.304C342.913 390.152 342.604 389.267 341.985 388.648C341.388 388.008 340.556 387.688 339.489 387.688C338.423 387.688 337.58 388.008 336.961 388.648C336.364 389.267 336.065 390.152 336.065 391.304V401H330.593V383.144H336.065V385.384C336.62 384.637 337.345 384.051 338.241 383.624C339.137 383.176 340.151 382.952 341.281 382.952C342.625 382.952 343.82 383.24 344.865 383.816C345.932 384.392 346.764 385.213 347.361 386.28C347.98 385.299 348.823 384.499 349.889 383.88C350.956 383.261 352.119 382.952 353.377 382.952ZM367.22 381.288C366.26 381.288 365.471 381.011 364.852 380.456C364.255 379.88 363.956 379.176 363.956 378.344C363.956 377.491 364.255 376.787 364.852 376.232C365.471 375.656 366.26 375.368 367.22 375.368C368.159 375.368 368.927 375.656 369.524 376.232C370.143 376.787 370.452 377.491 370.452 378.344C370.452 379.176 370.143 379.88 369.524 380.456C368.927 381.011 368.159 381.288 367.22 381.288ZM369.94 383.144V401H364.468V383.144H369.94ZM384.786 382.952C386.877 382.952 388.541 383.635 389.778 385C391.037 386.344 391.666 388.2 391.666 390.568V401H386.226V391.304C386.226 390.109 385.917 389.181 385.298 388.52C384.679 387.859 383.847 387.528 382.802 387.528C381.757 387.528 380.925 387.859 380.306 388.52C379.687 389.181 379.378 390.109 379.378 391.304V401H373.906V383.144H379.378V385.512C379.933 384.723 380.679 384.104 381.618 383.656C382.557 383.187 383.613 382.952 384.786 382.952ZM402.252 382.888C403.511 382.888 404.61 383.144 405.548 383.656C406.508 384.168 407.244 384.84 407.756 385.672V383.144H413.228V400.968C413.228 402.611 412.898 404.093 412.236 405.416C411.596 406.76 410.604 407.827 409.26 408.616C407.938 409.405 406.284 409.8 404.3 409.8C401.655 409.8 399.511 409.171 397.868 407.912C396.226 406.675 395.287 404.989 395.052 402.856H400.46C400.631 403.539 401.036 404.072 401.676 404.456C402.316 404.861 403.106 405.064 404.044 405.064C405.175 405.064 406.071 404.733 406.732 404.072C407.415 403.432 407.756 402.397 407.756 400.968V398.44C407.223 399.272 406.487 399.955 405.548 400.488C404.61 401 403.511 401.256 402.252 401.256C400.78 401.256 399.447 400.883 398.252 400.136C397.058 399.368 396.108 398.291 395.404 396.904C394.722 395.496 394.38 393.875 394.38 392.04C394.38 390.205 394.722 388.595 395.404 387.208C396.108 385.821 397.058 384.755 398.252 384.008C399.447 383.261 400.78 382.888 402.252 382.888ZM407.756 392.072C407.756 390.707 407.372 389.629 406.604 388.84C405.858 388.051 404.94 387.656 403.852 387.656C402.764 387.656 401.836 388.051 401.068 388.84C400.322 389.608 399.948 390.675 399.948 392.04C399.948 393.405 400.322 394.493 401.068 395.304C401.836 396.093 402.764 396.488 403.852 396.488C404.94 396.488 405.858 396.093 406.604 395.304C407.372 394.515 407.756 393.437 407.756 392.072ZM429.44 377.32V401H423.968V377.32H429.44ZM432.318 392.04C432.318 390.205 432.659 388.595 433.342 387.208C434.046 385.821 434.995 384.755 436.19 384.008C437.385 383.261 438.718 382.888 440.19 382.888C441.449 382.888 442.547 383.144 443.486 383.656C444.446 384.168 445.182 384.84 445.694 385.672V383.144H451.166V401H445.694V398.472C445.161 399.304 444.414 399.976 443.454 400.488C442.515 401 441.417 401.256 440.158 401.256C438.707 401.256 437.385 400.883 436.19 400.136C434.995 399.368 434.046 398.291 433.342 396.904C432.659 395.496 432.318 393.875 432.318 392.04ZM445.694 392.072C445.694 390.707 445.31 389.629 444.542 388.84C443.795 388.051 442.878 387.656 441.79 387.656C440.702 387.656 439.774 388.051 439.006 388.84C438.259 389.608 437.886 390.675 437.886 392.04C437.886 393.405 438.259 394.493 439.006 395.304C439.774 396.093 440.702 396.488 441.79 396.488C442.878 396.488 443.795 396.093 444.542 395.304C445.31 394.515 445.694 393.437 445.694 392.072ZM466.005 382.952C468.095 382.952 469.759 383.635 470.997 385C472.255 386.344 472.885 388.2 472.885 390.568V401H467.445V391.304C467.445 390.109 467.135 389.181 466.517 388.52C465.898 387.859 465.066 387.528 464.021 387.528C462.975 387.528 462.143 387.859 461.525 388.52C460.906 389.181 460.597 390.109 460.597 391.304V401H455.125V383.144H460.597V385.512C461.151 384.723 461.898 384.104 462.837 383.656C463.775 383.187 464.831 382.952 466.005 382.952ZM483.471 382.888C484.73 382.888 485.828 383.144 486.767 383.656C487.727 384.168 488.463 384.84 488.975 385.672V383.144H494.447V400.968C494.447 402.611 494.116 404.093 493.455 405.416C492.815 406.76 491.823 407.827 490.479 408.616C489.156 409.405 487.503 409.8 485.519 409.8C482.874 409.8 480.73 409.171 479.087 407.912C477.444 406.675 476.506 404.989 476.271 402.856H481.679C481.85 403.539 482.255 404.072 482.895 404.456C483.535 404.861 484.324 405.064 485.263 405.064C486.394 405.064 487.29 404.733 487.951 404.072C488.634 403.432 488.975 402.397 488.975 400.968V398.44C488.442 399.272 487.706 399.955 486.767 400.488C485.828 401 484.73 401.256 483.471 401.256C481.999 401.256 480.666 400.883 479.471 400.136C478.276 399.368 477.327 398.291 476.623 396.904C475.94 395.496 475.599 393.875 475.599 392.04C475.599 390.205 475.94 388.595 476.623 387.208C477.327 385.821 478.276 384.755 479.471 384.008C480.666 383.261 481.999 382.888 483.471 382.888ZM488.975 392.072C488.975 390.707 488.591 389.629 487.823 388.84C487.076 388.051 486.159 387.656 485.071 387.656C483.983 387.656 483.055 388.051 482.287 388.84C481.54 389.608 481.167 390.675 481.167 392.04C481.167 393.405 481.54 394.493 482.287 395.304C483.055 396.093 483.983 396.488 485.071 396.488C486.159 396.488 487.076 396.093 487.823 395.304C488.591 394.515 488.975 393.437 488.975 392.072ZM516.038 383.144V401H510.566V398.568C510.011 399.357 509.254 399.997 508.294 400.488C507.355 400.957 506.31 401.192 505.158 401.192C503.793 401.192 502.587 400.893 501.542 400.296C500.497 399.677 499.686 398.792 499.11 397.64C498.534 396.488 498.246 395.133 498.246 393.576V383.144H503.686V392.84C503.686 394.035 503.995 394.963 504.614 395.624C505.233 396.285 506.065 396.616 507.11 396.616C508.177 396.616 509.019 396.285 509.638 395.624C510.257 394.963 510.566 394.035 510.566 392.84V383.144H516.038ZM518.88 392.04C518.88 390.205 519.222 388.595 519.904 387.208C520.608 385.821 521.558 384.755 522.752 384.008C523.947 383.261 525.28 382.888 526.752 382.888C528.011 382.888 529.11 383.144 530.048 383.656C531.008 384.168 531.744 384.84 532.256 385.672V383.144H537.728V401H532.256V398.472C531.723 399.304 530.976 399.976 530.016 400.488C529.078 401 527.979 401.256 526.72 401.256C525.27 401.256 523.947 400.883 522.752 400.136C521.558 399.368 520.608 398.291 519.904 396.904C519.222 395.496 518.88 393.875 518.88 392.04ZM532.256 392.072C532.256 390.707 531.872 389.629 531.104 388.84C530.358 388.051 529.44 387.656 528.352 387.656C527.264 387.656 526.336 388.051 525.568 388.84C524.822 389.608 524.448 390.675 524.448 392.04C524.448 393.405 524.822 394.493 525.568 395.304C526.336 396.093 527.264 396.488 528.352 396.488C529.44 396.488 530.358 396.093 531.104 395.304C531.872 394.515 532.256 393.437 532.256 392.072ZM548.471 382.888C549.73 382.888 550.828 383.144 551.767 383.656C552.727 384.168 553.463 384.84 553.975 385.672V383.144H559.447V400.968C559.447 402.611 559.116 404.093 558.455 405.416C557.815 406.76 556.823 407.827 555.479 408.616C554.156 409.405 552.503 409.8 550.519 409.8C547.874 409.8 545.73 409.171 544.087 407.912C542.444 406.675 541.506 404.989 541.271 402.856H546.679C546.85 403.539 547.255 404.072 547.895 404.456C548.535 404.861 549.324 405.064 550.263 405.064C551.394 405.064 552.29 404.733 552.951 404.072C553.634 403.432 553.975 402.397 553.975 400.968V398.44C553.442 399.272 552.706 399.955 551.767 400.488C550.828 401 549.73 401.256 548.471 401.256C546.999 401.256 545.666 400.883 544.471 400.136C543.276 399.368 542.327 398.291 541.623 396.904C540.94 395.496 540.599 393.875 540.599 392.04C540.599 390.205 540.94 388.595 541.623 387.208C542.327 385.821 543.276 384.755 544.471 384.008C545.666 383.261 546.999 382.888 548.471 382.888ZM553.975 392.072C553.975 390.707 553.591 389.629 552.823 388.84C552.076 388.051 551.159 387.656 550.071 387.656C548.983 387.656 548.055 388.051 547.287 388.84C546.54 389.608 546.167 390.675 546.167 392.04C546.167 393.405 546.54 394.493 547.287 395.304C548.055 396.093 548.983 396.488 550.071 396.488C551.159 396.488 552.076 396.093 552.823 395.304C553.591 394.515 553.975 393.437 553.975 392.072ZM580.238 391.784C580.238 392.296 580.206 392.829 580.142 393.384H567.758C567.843 394.493 568.195 395.347 568.814 395.944C569.454 396.52 570.233 396.808 571.15 396.808C572.515 396.808 573.465 396.232 573.998 395.08H579.822C579.523 396.253 578.979 397.309 578.19 398.248C577.422 399.187 576.451 399.923 575.278 400.456C574.105 400.989 572.793 401.256 571.342 401.256C569.593 401.256 568.035 400.883 566.67 400.136C565.305 399.389 564.238 398.323 563.47 396.936C562.702 395.549 562.318 393.928 562.318 392.072C562.318 390.216 562.691 388.595 563.438 387.208C564.206 385.821 565.273 384.755 566.638 384.008C568.003 383.261 569.571 382.888 571.342 382.888C573.07 382.888 574.606 383.251 575.95 383.976C577.294 384.701 578.339 385.736 579.086 387.08C579.854 388.424 580.238 389.992 580.238 391.784ZM574.638 390.344C574.638 389.405 574.318 388.659 573.678 388.104C573.038 387.549 572.238 387.272 571.278 387.272C570.361 387.272 569.582 387.539 568.942 388.072C568.323 388.605 567.939 389.363 567.79 390.344H574.638ZM585.685 401.256C584.725 401.256 583.935 400.979 583.317 400.424C582.719 399.848 582.421 399.144 582.421 398.312C582.421 397.459 582.719 396.744 583.317 396.168C583.935 395.592 584.725 395.304 585.685 395.304C586.623 395.304 587.391 395.592 587.989 396.168C588.607 396.744 588.917 397.459 588.917 398.312C588.917 399.144 588.607 399.848 587.989 400.424C587.391 400.979 586.623 401.256 585.685 401.256Z" fill="white"/>
<rect x="274" y="523" width="232" height="66" rx="33" fill="#8A08F0"/>
<path d="M314.055 567L306.503 557.08V567H301.031V544.536H306.503V554.392L313.991 544.536H320.423L311.719 555.544L320.743 567H314.055ZM334.223 548.952C336.314 548.952 337.978 549.635 339.215 551C340.474 552.344 341.103 554.2 341.103 556.568V567H335.663V557.304C335.663 556.109 335.354 555.181 334.735 554.52C334.117 553.859 333.285 553.528 332.239 553.528C331.194 553.528 330.362 553.859 329.743 554.52C329.125 555.181 328.815 556.109 328.815 557.304V567H323.343V549.144H328.815V551.512C329.37 550.723 330.117 550.104 331.055 549.656C331.994 549.187 333.05 548.952 334.223 548.952ZM353.034 567.256C351.285 567.256 349.706 566.883 348.298 566.136C346.911 565.389 345.813 564.323 345.002 562.936C344.213 561.549 343.818 559.928 343.818 558.072C343.818 556.237 344.223 554.627 345.034 553.24C345.845 551.832 346.954 550.755 348.362 550.008C349.77 549.261 351.349 548.888 353.098 548.888C354.847 548.888 356.426 549.261 357.834 550.008C359.242 550.755 360.351 551.832 361.162 553.24C361.973 554.627 362.378 556.237 362.378 558.072C362.378 559.907 361.962 561.528 361.13 562.936C360.319 564.323 359.199 565.389 357.77 566.136C356.362 566.883 354.783 567.256 353.034 567.256ZM353.034 562.52C354.079 562.52 354.965 562.136 355.69 561.368C356.437 560.6 356.81 559.501 356.81 558.072C356.81 556.643 356.447 555.544 355.722 554.776C355.018 554.008 354.143 553.624 353.098 553.624C352.031 553.624 351.146 554.008 350.442 554.776C349.738 555.523 349.386 556.621 349.386 558.072C349.386 559.501 349.727 560.6 350.41 561.368C351.114 562.136 351.989 562.52 353.034 562.52ZM390.913 549.144L386.081 567H380.033L377.217 555.416L374.305 567H368.289L363.425 549.144H368.897L371.425 561.912L374.433 549.144H380.225L383.265 561.848L385.761 549.144H390.913ZM425.221 544.536V567H419.749V553.528L414.725 567H410.309L405.253 553.496V567H399.781V544.536H406.245L412.549 560.088L418.789 544.536H425.221ZM437.284 567.256C435.535 567.256 433.956 566.883 432.548 566.136C431.161 565.389 430.063 564.323 429.252 562.936C428.463 561.549 428.068 559.928 428.068 558.072C428.068 556.237 428.473 554.627 429.284 553.24C430.095 551.832 431.204 550.755 432.612 550.008C434.02 549.261 435.599 548.888 437.348 548.888C439.097 548.888 440.676 549.261 442.084 550.008C443.492 550.755 444.601 551.832 445.412 553.24C446.223 554.627 446.628 556.237 446.628 558.072C446.628 559.907 446.212 561.528 445.38 562.936C444.569 564.323 443.449 565.389 442.02 566.136C440.612 566.883 439.033 567.256 437.284 567.256ZM437.284 562.52C438.329 562.52 439.215 562.136 439.94 561.368C440.687 560.6 441.06 559.501 441.06 558.072C441.06 556.643 440.697 555.544 439.972 554.776C439.268 554.008 438.393 553.624 437.348 553.624C436.281 553.624 435.396 554.008 434.692 554.776C433.988 555.523 433.636 556.621 433.636 558.072C433.636 559.501 433.977 560.6 434.66 561.368C435.364 562.136 436.239 562.52 437.284 562.52ZM455.003 552.12C455.643 551.139 456.443 550.371 457.403 549.816C458.363 549.24 459.43 548.952 460.603 548.952V554.744H459.099C457.734 554.744 456.71 555.043 456.027 555.64C455.344 556.216 455.003 557.24 455.003 558.712V567H449.531V549.144H455.003V552.12ZM480.05 557.784C480.05 558.296 480.018 558.829 479.954 559.384H467.57C467.656 560.493 468.008 561.347 468.626 561.944C469.266 562.52 470.045 562.808 470.962 562.808C472.328 562.808 473.277 562.232 473.81 561.08H479.634C479.336 562.253 478.792 563.309 478.002 564.248C477.234 565.187 476.264 565.923 475.09 566.456C473.917 566.989 472.605 567.256 471.154 567.256C469.405 567.256 467.848 566.883 466.482 566.136C465.117 565.389 464.05 564.323 463.282 562.936C462.514 561.549 462.13 559.928 462.13 558.072C462.13 556.216 462.504 554.595 463.25 553.208C464.018 551.821 465.085 550.755 466.45 550.008C467.816 549.261 469.384 548.888 471.154 548.888C472.882 548.888 474.418 549.251 475.762 549.976C477.106 550.701 478.152 551.736 478.898 553.08C479.666 554.424 480.05 555.992 480.05 557.784ZM474.45 556.344C474.45 555.405 474.13 554.659 473.49 554.104C472.85 553.549 472.05 553.272 471.09 553.272C470.173 553.272 469.394 553.539 468.754 554.072C468.136 554.605 467.752 555.363 467.602 556.344H474.45Z" fill="white"/>
<path d="M390 762L398 770L390 778L382 770L390 762Z" fill="#8A08F0"/>
</svg>
