<svg width="780" height="780" viewBox="0 0 780 780" fill="none" xmlns="http://www.w3.org/2000/svg">
<path d="M9.19239 390L390 9.19239L770.808 390L390 770.808L9.19239 390Z" stroke="#8F00FF" stroke-width="13"/>
<path d="M266.65 182.9V218H258.1V182.9H266.65ZM289.846 189.8C293.113 189.8 295.713 190.867 297.646 193C299.613 195.1 300.596 198 300.596 201.7V218H292.096V202.85C292.096 200.983 291.613 199.533 290.646 198.5C289.679 197.467 288.379 196.95 286.746 196.95C285.113 196.95 283.813 197.467 282.846 198.5C281.879 199.533 281.396 200.983 281.396 202.85V218H272.846V190.1H281.396V193.8C282.263 192.567 283.429 191.6 284.896 190.9C286.363 190.167 288.013 189.8 289.846 189.8ZM322.088 210.75V218H317.738C314.638 218 312.221 217.25 310.488 215.75C308.754 214.217 307.888 211.733 307.888 208.3V197.2H304.488V190.1H307.888V183.3H316.438V190.1H322.038V197.2H316.438V208.4C316.438 209.233 316.638 209.833 317.038 210.2C317.438 210.567 318.104 210.75 319.038 210.75H322.088ZM339.55 218.4C336.817 218.4 334.35 217.817 332.15 216.65C329.983 215.483 328.267 213.817 327 211.65C325.767 209.483 325.15 206.95 325.15 204.05C325.15 201.183 325.783 198.667 327.05 196.5C328.317 194.3 330.05 192.617 332.25 191.45C334.45 190.283 336.917 189.7 339.65 189.7C342.383 189.7 344.85 190.283 347.05 191.45C349.25 192.617 350.983 194.3 352.25 196.5C353.517 198.667 354.15 201.183 354.15 204.05C354.15 206.917 353.5 209.45 352.2 211.65C350.933 213.817 349.183 215.483 346.95 216.65C344.75 217.817 342.283 218.4 339.55 218.4ZM339.55 211C341.183 211 342.567 210.4 343.7 209.2C344.867 208 345.45 206.283 345.45 204.05C345.45 201.817 344.883 200.1 343.75 198.9C342.65 197.7 341.283 197.1 339.65 197.1C337.983 197.1 336.6 197.7 335.5 198.9C334.4 200.067 333.85 201.783 333.85 204.05C333.85 206.283 334.383 208 335.45 209.2C336.55 210.4 337.917 211 339.55 211ZM375.686 189.8C378.953 189.8 381.553 190.867 383.486 193C385.453 195.1 386.436 198 386.436 201.7V218H377.936V202.85C377.936 200.983 377.453 199.533 376.486 198.5C375.519 197.467 374.219 196.95 372.586 196.95C370.953 196.95 369.653 197.467 368.686 198.5C367.719 199.533 367.236 200.983 367.236 202.85V218H358.686V190.1H367.236V193.8C368.103 192.567 369.269 191.6 370.736 190.9C372.203 190.167 373.853 189.8 375.686 189.8ZM390.677 204C390.677 201.133 391.211 198.617 392.277 196.45C393.377 194.283 394.861 192.617 396.727 191.45C398.594 190.283 400.677 189.7 402.977 189.7C404.944 189.7 406.661 190.1 408.127 190.9C409.627 191.7 410.777 192.75 411.577 194.05V190.1H420.127V218H411.577V214.05C410.744 215.35 409.577 216.4 408.077 217.2C406.611 218 404.894 218.4 402.927 218.4C400.661 218.4 398.594 217.817 396.727 216.65C394.861 215.45 393.377 213.767 392.277 211.6C391.211 209.4 390.677 206.867 390.677 204ZM411.577 204.05C411.577 201.917 410.977 200.233 409.777 199C408.611 197.767 407.177 197.15 405.477 197.15C403.777 197.15 402.327 197.767 401.127 199C399.961 200.2 399.377 201.867 399.377 204C399.377 206.133 399.961 207.833 401.127 209.1C402.327 210.333 403.777 210.95 405.477 210.95C407.177 210.95 408.611 210.333 409.777 209.1C410.977 207.867 411.577 206.183 411.577 204.05ZM441.863 210.75V218H437.513C434.413 218 431.996 217.25 430.263 215.75C428.53 214.217 427.663 211.733 427.663 208.3V197.2H424.263V190.1H427.663V183.3H436.213V190.1H441.813V197.2H436.213V208.4C436.213 209.233 436.413 209.833 436.813 210.2C437.213 210.567 437.88 210.75 438.813 210.75H441.863ZM450.925 187.2C449.425 187.2 448.192 186.767 447.225 185.9C446.292 185 445.825 183.9 445.825 182.6C445.825 181.267 446.292 180.167 447.225 179.3C448.192 178.4 449.425 177.95 450.925 177.95C452.392 177.95 453.592 178.4 454.525 179.3C455.492 180.167 455.975 181.267 455.975 182.6C455.975 183.9 455.492 185 454.525 185.9C453.592 186.767 452.392 187.2 450.925 187.2ZM455.175 190.1V218H446.625V190.1H455.175ZM474.071 218.4C471.338 218.4 468.871 217.817 466.671 216.65C464.505 215.483 462.788 213.817 461.521 211.65C460.288 209.483 459.671 206.95 459.671 204.05C459.671 201.183 460.305 198.667 461.571 196.5C462.838 194.3 464.571 192.617 466.771 191.45C468.971 190.283 471.438 189.7 474.171 189.7C476.905 189.7 479.371 190.283 481.571 191.45C483.771 192.617 485.505 194.3 486.771 196.5C488.038 198.667 488.671 201.183 488.671 204.05C488.671 206.917 488.021 209.45 486.721 211.65C485.455 213.817 483.705 215.483 481.471 216.65C479.271 217.817 476.805 218.4 474.071 218.4ZM474.071 211C475.705 211 477.088 210.4 478.221 209.2C479.388 208 479.971 206.283 479.971 204.05C479.971 201.817 479.405 200.1 478.271 198.9C477.171 197.7 475.805 197.1 474.171 197.1C472.505 197.1 471.121 197.7 470.021 198.9C468.921 200.067 468.371 201.783 468.371 204.05C468.371 206.283 468.905 208 469.971 209.2C471.071 210.4 472.438 211 474.071 211ZM510.207 189.8C513.474 189.8 516.074 190.867 518.007 193C519.974 195.1 520.957 198 520.957 201.7V218H512.457V202.85C512.457 200.983 511.974 199.533 511.007 198.5C510.041 197.467 508.741 196.95 507.107 196.95C505.474 196.95 504.174 197.467 503.207 198.5C502.241 199.533 501.757 200.983 501.757 202.85V218H493.207V190.1H501.757V193.8C502.624 192.567 503.791 191.6 505.257 190.9C506.724 190.167 508.374 189.8 510.207 189.8Z" fill="white"/>
<path d="M235 238H545" stroke="#8A08F0" stroke-width="13" stroke-linecap="round"/>
<path d="M209.983 330.536V334.92H200.831V339.656H207.679V343.912H200.831V353H195.359V330.536H209.983ZM218.331 338.12C218.971 337.139 219.771 336.371 220.731 335.816C221.691 335.24 222.758 334.952 223.931 334.952V340.744H222.427C221.062 340.744 220.038 341.043 219.355 341.64C218.672 342.216 218.331 343.24 218.331 344.712V353H212.859V335.144H218.331V338.12ZM234.675 353.256C232.925 353.256 231.347 352.883 229.939 352.136C228.552 351.389 227.453 350.323 226.643 348.936C225.853 347.549 225.459 345.928 225.459 344.072C225.459 342.237 225.864 340.627 226.674 339.24C227.485 337.832 228.595 336.755 230.003 336.008C231.411 335.261 232.989 334.888 234.739 334.888C236.488 334.888 238.067 335.261 239.475 336.008C240.883 336.755 241.992 337.832 242.803 339.24C243.613 340.627 244.019 342.237 244.019 344.072C244.019 345.907 243.603 347.528 242.771 348.936C241.96 350.323 240.84 351.389 239.411 352.136C238.003 352.883 236.424 353.256 234.675 353.256ZM234.675 348.52C235.72 348.52 236.605 348.136 237.331 347.368C238.077 346.6 238.451 345.501 238.451 344.072C238.451 342.643 238.088 341.544 237.363 340.776C236.659 340.008 235.784 339.624 234.739 339.624C233.672 339.624 232.787 340.008 232.083 340.776C231.379 341.523 231.027 342.621 231.027 344.072C231.027 345.501 231.368 346.6 232.051 347.368C232.755 348.136 233.629 348.52 234.675 348.52ZM269.706 334.952C271.924 334.952 273.684 335.624 274.986 336.968C276.308 338.312 276.97 340.179 276.97 342.568V353H271.53V343.304C271.53 342.152 271.22 341.267 270.602 340.648C270.004 340.008 269.172 339.688 268.106 339.688C267.039 339.688 266.196 340.008 265.578 340.648C264.98 341.267 264.682 342.152 264.682 343.304V353H259.242V343.304C259.242 342.152 258.932 341.267 258.314 340.648C257.716 340.008 256.884 339.688 255.818 339.688C254.751 339.688 253.908 340.008 253.29 340.648C252.692 341.267 252.394 342.152 252.394 343.304V353H246.922V335.144H252.394V337.384C252.948 336.637 253.674 336.051 254.57 335.624C255.466 335.176 256.479 334.952 257.61 334.952C258.954 334.952 260.148 335.24 261.194 335.816C262.26 336.392 263.092 337.213 263.69 338.28C264.308 337.299 265.151 336.499 266.218 335.88C267.284 335.261 268.447 334.952 269.706 334.952ZM304.698 337.768C304.698 339.069 304.399 340.264 303.802 341.352C303.204 342.419 302.287 343.283 301.05 343.944C299.812 344.605 298.276 344.936 296.442 344.936H293.05V353H287.578V330.536H296.442C298.234 330.536 299.748 330.845 300.986 331.464C302.223 332.083 303.151 332.936 303.77 334.024C304.388 335.112 304.698 336.36 304.698 337.768ZM296.026 340.584C297.071 340.584 297.85 340.339 298.362 339.848C298.874 339.357 299.13 338.664 299.13 337.768C299.13 336.872 298.874 336.179 298.362 335.688C297.85 335.197 297.071 334.952 296.026 334.952H293.05V340.584H296.026ZM325.787 335.144L314.587 361.48H308.699L312.795 352.392L305.53 335.144H311.643L315.771 346.312L319.867 335.144H325.787ZM337.717 348.36V353H334.933C332.949 353 331.403 352.52 330.293 351.56C329.184 350.579 328.629 348.989 328.629 346.792V339.688H326.453V335.144H328.629V330.792H334.101V335.144H337.685V339.688H334.101V346.856C334.101 347.389 334.229 347.773 334.485 348.008C334.741 348.243 335.168 348.36 335.765 348.36H337.717ZM351.741 334.952C353.789 334.952 355.432 335.635 356.669 337C357.907 338.344 358.525 340.2 358.525 342.568V353H353.085V343.304C353.085 342.109 352.776 341.181 352.157 340.52C351.539 339.859 350.707 339.528 349.661 339.528C348.616 339.528 347.784 339.859 347.165 340.52C346.547 341.181 346.237 342.109 346.237 343.304V353H340.765V329.32H346.237V337.544C346.792 336.755 347.549 336.125 348.509 335.656C349.469 335.187 350.547 334.952 351.741 334.952ZM370.456 353.256C368.706 353.256 367.128 352.883 365.72 352.136C364.333 351.389 363.234 350.323 362.424 348.936C361.634 347.549 361.24 345.928 361.24 344.072C361.24 342.237 361.645 340.627 362.456 339.24C363.266 337.832 364.376 336.755 365.784 336.008C367.192 335.261 368.77 334.888 370.52 334.888C372.269 334.888 373.848 335.261 375.256 336.008C376.664 336.755 377.773 337.832 378.584 339.24C379.394 340.627 379.8 342.237 379.8 344.072C379.8 345.907 379.384 347.528 378.552 348.936C377.741 350.323 376.621 351.389 375.192 352.136C373.784 352.883 372.205 353.256 370.456 353.256ZM370.456 348.52C371.501 348.52 372.386 348.136 373.112 347.368C373.858 346.6 374.232 345.501 374.232 344.072C374.232 342.643 373.869 341.544 373.144 340.776C372.44 340.008 371.565 339.624 370.52 339.624C369.453 339.624 368.568 340.008 367.864 340.776C367.16 341.523 366.808 342.621 366.808 344.072C366.808 345.501 367.149 346.6 367.832 347.368C368.536 348.136 369.41 348.52 370.456 348.52ZM393.583 334.952C395.673 334.952 397.337 335.635 398.575 337C399.833 338.344 400.463 340.2 400.463 342.568V353H395.023V343.304C395.023 342.109 394.713 341.181 394.095 340.52C393.476 339.859 392.644 339.528 391.599 339.528C390.553 339.528 389.721 339.859 389.103 340.52C388.484 341.181 388.175 342.109 388.175 343.304V353H382.703V335.144H388.175V337.512C388.729 336.723 389.476 336.104 390.415 335.656C391.353 335.187 392.409 334.952 393.583 334.952ZM413.799 333.288C412.839 333.288 412.049 333.011 411.431 332.456C410.833 331.88 410.535 331.176 410.535 330.344C410.535 329.491 410.833 328.787 411.431 328.232C412.049 327.656 412.839 327.368 413.799 327.368C414.737 327.368 415.505 327.656 416.103 328.232C416.721 328.787 417.031 329.491 417.031 330.344C417.031 331.176 416.721 331.88 416.103 332.456C415.505 333.011 414.737 333.288 413.799 333.288ZM416.519 335.144V353H411.047V335.144H416.519ZM430.436 348.36V353H427.652C425.668 353 424.121 352.52 423.012 351.56C421.903 350.579 421.348 348.989 421.348 346.792V339.688H419.172V335.144H421.348V330.792H426.82V335.144H430.404V339.688H426.82V346.856C426.82 347.389 426.948 347.773 427.204 348.008C427.46 348.243 427.887 348.36 428.484 348.36H430.436ZM465.897 335.144L461.065 353H455.017L452.201 341.416L449.289 353H443.273L438.409 335.144H443.881L446.409 347.912L449.417 335.144H455.209L458.249 347.848L460.745 335.144H465.897ZM466.896 344.04C466.896 342.205 467.237 340.595 467.92 339.208C468.624 337.821 469.573 336.755 470.768 336.008C471.963 335.261 473.296 334.888 474.768 334.888C476.027 334.888 477.125 335.144 478.064 335.656C479.024 336.168 479.76 336.84 480.272 337.672V335.144H485.744V353H480.272V350.472C479.739 351.304 478.992 351.976 478.032 352.488C477.093 353 475.995 353.256 474.736 353.256C473.285 353.256 471.963 352.883 470.768 352.136C469.573 351.368 468.624 350.291 467.92 348.904C467.237 347.496 466.896 345.875 466.896 344.04ZM480.272 344.072C480.272 342.707 479.888 341.629 479.12 340.84C478.373 340.051 477.456 339.656 476.368 339.656C475.28 339.656 474.352 340.051 473.584 340.84C472.837 341.608 472.464 342.675 472.464 344.04C472.464 345.405 472.837 346.493 473.584 347.304C474.352 348.093 475.28 348.488 476.368 348.488C477.456 348.488 478.373 348.093 479.12 347.304C479.888 346.515 480.272 345.437 480.272 344.072ZM496.967 353.256C495.409 353.256 494.023 352.989 492.807 352.456C491.591 351.923 490.631 351.197 489.927 350.28C489.223 349.341 488.828 348.296 488.743 347.144H494.151C494.215 347.763 494.503 348.264 495.015 348.648C495.527 349.032 496.156 349.224 496.903 349.224C497.585 349.224 498.108 349.096 498.471 348.84C498.855 348.563 499.047 348.211 499.047 347.784C499.047 347.272 498.78 346.899 498.247 346.664C497.713 346.408 496.849 346.131 495.655 345.832C494.375 345.533 493.308 345.224 492.455 344.904C491.601 344.563 490.865 344.04 490.247 343.336C489.628 342.611 489.319 341.64 489.319 340.424C489.319 339.4 489.596 338.472 490.151 337.64C490.727 336.787 491.559 336.115 492.647 335.624C493.756 335.133 495.068 334.888 496.583 334.888C498.823 334.888 500.583 335.443 501.863 336.552C503.164 337.661 503.911 339.133 504.103 340.968H499.047C498.961 340.349 498.684 339.859 498.215 339.496C497.767 339.133 497.169 338.952 496.423 338.952C495.783 338.952 495.292 339.08 494.951 339.336C494.609 339.571 494.439 339.901 494.439 340.328C494.439 340.84 494.705 341.224 495.239 341.48C495.793 341.736 496.647 341.992 497.799 342.248C499.121 342.589 500.199 342.931 501.031 343.272C501.863 343.592 502.588 344.125 503.207 344.872C503.847 345.597 504.177 346.579 504.199 347.816C504.199 348.861 503.9 349.8 503.303 350.632C502.727 351.443 501.884 352.083 500.775 352.552C499.687 353.021 498.417 353.256 496.967 353.256ZM525.304 334.952C527.352 334.952 528.994 335.635 530.232 337C531.469 338.344 532.088 340.2 532.088 342.568V353H526.648V343.304C526.648 342.109 526.338 341.181 525.72 340.52C525.101 339.859 524.269 339.528 523.224 339.528C522.178 339.528 521.346 339.859 520.728 340.52C520.109 341.181 519.8 342.109 519.8 343.304V353H514.328V329.32H519.8V337.544C520.354 336.755 521.112 336.125 522.072 335.656C523.032 335.187 524.109 334.952 525.304 334.952ZM538.642 333.288C537.682 333.288 536.893 333.011 536.274 332.456C535.677 331.88 535.378 331.176 535.378 330.344C535.378 329.491 535.677 328.787 536.274 328.232C536.893 327.656 537.682 327.368 538.642 327.368C539.581 327.368 540.349 327.656 540.946 328.232C541.565 328.787 541.874 329.491 541.874 330.344C541.874 331.176 541.565 331.88 540.946 332.456C540.349 333.011 539.581 333.288 538.642 333.288ZM541.362 335.144V353H535.89V335.144H541.362ZM552.112 334.888C553.37 334.888 554.469 335.144 555.408 335.656C556.368 336.168 557.104 336.84 557.616 337.672V335.144H563.088V352.968C563.088 354.611 562.757 356.093 562.096 357.416C561.456 358.76 560.464 359.827 559.12 360.616C557.797 361.405 556.144 361.8 554.16 361.8C551.514 361.8 549.37 361.171 547.728 359.912C546.085 358.675 545.146 356.989 544.912 354.856H550.32C550.49 355.539 550.896 356.072 551.536 356.456C552.176 356.861 552.965 357.064 553.904 357.064C555.034 357.064 555.93 356.733 556.592 356.072C557.274 355.432 557.616 354.397 557.616 352.968V350.44C557.082 351.272 556.346 351.955 555.408 352.488C554.469 353 553.37 353.256 552.112 353.256C550.64 353.256 549.306 352.883 548.112 352.136C546.917 351.368 545.968 350.291 545.264 348.904C544.581 347.496 544.24 345.875 544.24 344.04C544.24 342.205 544.581 340.595 545.264 339.208C545.968 337.821 546.917 336.755 548.112 336.008C549.306 335.261 550.64 334.888 552.112 334.888ZM557.616 344.072C557.616 342.707 557.232 341.629 556.464 340.84C555.717 340.051 554.8 339.656 553.712 339.656C552.624 339.656 551.696 340.051 550.928 340.84C550.181 341.608 549.808 342.675 549.808 344.04C549.808 345.405 550.181 346.493 550.928 347.304C551.696 348.093 552.624 348.488 553.712 348.488C554.8 348.488 555.717 348.093 556.464 347.304C557.232 346.515 557.616 345.437 557.616 344.072ZM578.023 334.952C580.071 334.952 581.713 335.635 582.951 337C584.188 338.344 584.807 340.2 584.807 342.568V353H579.367V343.304C579.367 342.109 579.057 341.181 578.439 340.52C577.82 339.859 576.988 339.528 575.943 339.528C574.897 339.528 574.065 339.859 573.447 340.52C572.828 341.181 572.519 342.109 572.519 343.304V353H567.047V329.32H572.519V337.544C573.073 336.755 573.831 336.125 574.791 335.656C575.751 335.187 576.828 334.952 578.023 334.952ZM202.753 385.672C203.265 384.84 204.001 384.168 204.961 383.656C205.921 383.144 207.02 382.888 208.257 382.888C209.729 382.888 211.062 383.261 212.257 384.008C213.452 384.755 214.39 385.821 215.073 387.208C215.777 388.595 216.129 390.205 216.129 392.04C216.129 393.875 215.777 395.496 215.073 396.904C214.39 398.291 213.452 399.368 212.257 400.136C211.062 400.883 209.729 401.256 208.257 401.256C206.998 401.256 205.9 401.011 204.961 400.52C204.022 400.008 203.286 399.336 202.753 398.504V401H197.281V377.32H202.753V385.672ZM210.561 392.04C210.561 390.675 210.177 389.608 209.409 388.84C208.662 388.051 207.734 387.656 206.625 387.656C205.537 387.656 204.609 388.051 203.841 388.84C203.094 389.629 202.721 390.707 202.721 392.072C202.721 393.437 203.094 394.515 203.841 395.304C204.609 396.093 205.537 396.488 206.625 396.488C207.713 396.488 208.641 396.093 209.409 395.304C210.177 394.493 210.561 393.405 210.561 392.04ZM236.632 383.144V401H231.16V398.568C230.605 399.357 229.848 399.997 228.888 400.488C227.949 400.957 226.904 401.192 225.752 401.192C224.386 401.192 223.181 400.893 222.136 400.296C221.09 399.677 220.28 398.792 219.704 397.64C219.128 396.488 218.84 395.133 218.84 393.576V383.144H224.28V392.84C224.28 394.035 224.589 394.963 225.208 395.624C225.826 396.285 226.658 396.616 227.704 396.616C228.77 396.616 229.613 396.285 230.232 395.624C230.85 394.963 231.16 394.035 231.16 392.84V383.144H236.632ZM250.514 396.36V401H247.73C245.746 401 244.199 400.52 243.09 399.56C241.981 398.579 241.426 396.989 241.426 394.792V387.688H239.25V383.144H241.426V378.792H246.898V383.144H250.482V387.688H246.898V394.856C246.898 395.389 247.026 395.773 247.282 396.008C247.538 396.243 247.965 396.36 248.562 396.36H250.514ZM259.255 392.04C259.255 390.205 259.597 388.595 260.279 387.208C260.983 385.821 261.933 384.755 263.127 384.008C264.322 383.261 265.655 382.888 267.127 382.888C268.386 382.888 269.485 383.144 270.423 383.656C271.383 384.168 272.119 384.84 272.631 385.672V383.144H278.103V401H272.631V398.472C272.098 399.304 271.351 399.976 270.391 400.488C269.453 401 268.354 401.256 267.095 401.256C265.645 401.256 264.322 400.883 263.127 400.136C261.933 399.368 260.983 398.291 260.279 396.904C259.597 395.496 259.255 393.875 259.255 392.04ZM272.631 392.072C272.631 390.707 272.247 389.629 271.479 388.84C270.733 388.051 269.815 387.656 268.727 387.656C267.639 387.656 266.711 388.051 265.943 388.84C265.197 389.608 264.823 390.675 264.823 392.04C264.823 393.405 265.197 394.493 265.943 395.304C266.711 396.093 267.639 396.488 268.727 396.488C269.815 396.488 270.733 396.093 271.479 395.304C272.247 394.515 272.631 393.437 272.631 392.072ZM291.022 387.688H288.078V401H282.606V387.688H280.622V383.144H282.606V382.632C282.606 380.435 283.235 378.771 284.494 377.64C285.753 376.488 287.598 375.912 290.03 375.912C290.435 375.912 290.734 375.923 290.926 375.944V380.584C289.881 380.52 289.145 380.669 288.718 381.032C288.291 381.395 288.078 382.045 288.078 382.984V383.144H291.022V387.688ZM303.545 396.36V401H300.761C298.777 401 297.231 400.52 296.121 399.56C295.012 398.579 294.457 396.989 294.457 394.792V387.688H292.281V383.144H294.457V378.792H299.929V383.144H303.513V387.688H299.929V394.856C299.929 395.389 300.057 395.773 300.313 396.008C300.569 396.243 300.996 396.36 301.593 396.36H303.545ZM323.425 391.784C323.425 392.296 323.393 392.829 323.329 393.384H310.945C311.031 394.493 311.383 395.347 312.001 395.944C312.641 396.52 313.42 396.808 314.337 396.808C315.703 396.808 316.652 396.232 317.185 395.08H323.009C322.711 396.253 322.167 397.309 321.377 398.248C320.609 399.187 319.639 399.923 318.465 400.456C317.292 400.989 315.98 401.256 314.529 401.256C312.78 401.256 311.223 400.883 309.857 400.136C308.492 399.389 307.425 398.323 306.657 396.936C305.889 395.549 305.505 393.928 305.505 392.072C305.505 390.216 305.879 388.595 306.625 387.208C307.393 385.821 308.46 384.755 309.825 384.008C311.191 383.261 312.759 382.888 314.529 382.888C316.257 382.888 317.793 383.251 319.137 383.976C320.481 384.701 321.527 385.736 322.273 387.08C323.041 388.424 323.425 389.992 323.425 391.784ZM317.825 390.344C317.825 389.405 317.505 388.659 316.865 388.104C316.225 387.549 315.425 387.272 314.465 387.272C313.548 387.272 312.769 387.539 312.129 388.072C311.511 388.605 311.127 389.363 310.977 390.344H317.825ZM331.784 386.12C332.424 385.139 333.224 384.371 334.184 383.816C335.144 383.24 336.211 382.952 337.384 382.952V388.744H335.88C334.515 388.744 333.491 389.043 332.808 389.64C332.125 390.216 331.784 391.24 331.784 392.712V401H326.312V383.144H331.784V386.12ZM352.253 385.672C352.786 384.84 353.522 384.168 354.461 383.656C355.4 383.144 356.498 382.888 357.757 382.888C359.229 382.888 360.562 383.261 361.757 384.008C362.952 384.755 363.89 385.821 364.573 387.208C365.277 388.595 365.629 390.205 365.629 392.04C365.629 393.875 365.277 395.496 364.573 396.904C363.89 398.291 362.952 399.368 361.757 400.136C360.562 400.883 359.229 401.256 357.757 401.256C356.52 401.256 355.421 401 354.461 400.488C353.522 399.976 352.786 399.315 352.253 398.504V409.512H346.781V383.144H352.253V385.672ZM360.061 392.04C360.061 390.675 359.677 389.608 358.909 388.84C358.162 388.051 357.234 387.656 356.125 387.656C355.037 387.656 354.109 388.051 353.341 388.84C352.594 389.629 352.221 390.707 352.221 392.072C352.221 393.437 352.594 394.515 353.341 395.304C354.109 396.093 355.037 396.488 356.125 396.488C357.213 396.488 358.141 396.093 358.909 395.304C359.677 394.493 360.061 393.405 360.061 392.04ZM386.132 383.144V401H380.66V398.568C380.105 399.357 379.348 399.997 378.388 400.488C377.449 400.957 376.404 401.192 375.252 401.192C373.886 401.192 372.681 400.893 371.636 400.296C370.59 399.677 369.78 398.792 369.204 397.64C368.628 396.488 368.34 395.133 368.34 393.576V383.144H373.78V392.84C373.78 394.035 374.089 394.963 374.708 395.624C375.326 396.285 376.158 396.616 377.204 396.616C378.27 396.616 379.113 396.285 379.732 395.624C380.35 394.963 380.66 394.035 380.66 392.84V383.144H386.132ZM395.534 386.12C396.174 385.139 396.974 384.371 397.934 383.816C398.894 383.24 399.961 382.952 401.134 382.952V388.744H399.63C398.265 388.744 397.241 389.043 396.558 389.64C395.875 390.216 395.534 391.24 395.534 392.712V401H390.062V383.144H395.534V386.12ZM409.222 385.672C409.755 384.84 410.491 384.168 411.43 383.656C412.368 383.144 413.467 382.888 414.726 382.888C416.198 382.888 417.531 383.261 418.726 384.008C419.92 384.755 420.859 385.821 421.542 387.208C422.246 388.595 422.598 390.205 422.598 392.04C422.598 393.875 422.246 395.496 421.542 396.904C420.859 398.291 419.92 399.368 418.726 400.136C417.531 400.883 416.198 401.256 414.726 401.256C413.488 401.256 412.39 401 411.43 400.488C410.491 399.976 409.755 399.315 409.222 398.504V409.512H403.75V383.144H409.222V385.672ZM417.03 392.04C417.03 390.675 416.646 389.608 415.878 388.84C415.131 388.051 414.203 387.656 413.094 387.656C412.006 387.656 411.078 388.051 410.31 388.84C409.563 389.629 409.19 390.707 409.19 392.072C409.19 393.437 409.563 394.515 410.31 395.304C411.078 396.093 412.006 396.488 413.094 396.488C414.182 396.488 415.11 396.093 415.878 395.304C416.646 394.493 417.03 393.405 417.03 392.04ZM433.596 401.256C431.847 401.256 430.268 400.883 428.86 400.136C427.474 399.389 426.375 398.323 425.564 396.936C424.775 395.549 424.38 393.928 424.38 392.072C424.38 390.237 424.786 388.627 425.596 387.24C426.407 385.832 427.516 384.755 428.924 384.008C430.332 383.261 431.911 382.888 433.66 382.888C435.41 382.888 436.988 383.261 438.396 384.008C439.804 384.755 440.914 385.832 441.724 387.24C442.535 388.627 442.94 390.237 442.94 392.072C442.94 393.907 442.524 395.528 441.692 396.936C440.882 398.323 439.762 399.389 438.332 400.136C436.924 400.883 435.346 401.256 433.596 401.256ZM433.596 396.52C434.642 396.52 435.527 396.136 436.252 395.368C436.999 394.6 437.372 393.501 437.372 392.072C437.372 390.643 437.01 389.544 436.284 388.776C435.58 388.008 434.706 387.624 433.66 387.624C432.594 387.624 431.708 388.008 431.004 388.776C430.3 389.523 429.948 390.621 429.948 392.072C429.948 393.501 430.29 394.6 430.972 395.368C431.676 396.136 432.551 396.52 433.596 396.52ZM453.107 401.256C451.55 401.256 450.163 400.989 448.947 400.456C447.731 399.923 446.771 399.197 446.067 398.28C445.363 397.341 444.969 396.296 444.883 395.144H450.291C450.355 395.763 450.643 396.264 451.155 396.648C451.667 397.032 452.297 397.224 453.043 397.224C453.726 397.224 454.249 397.096 454.611 396.84C454.995 396.563 455.187 396.211 455.187 395.784C455.187 395.272 454.921 394.899 454.387 394.664C453.854 394.408 452.99 394.131 451.795 393.832C450.515 393.533 449.449 393.224 448.595 392.904C447.742 392.563 447.006 392.04 446.387 391.336C445.769 390.611 445.459 389.64 445.459 388.424C445.459 387.4 445.737 386.472 446.291 385.64C446.867 384.787 447.699 384.115 448.787 383.624C449.897 383.133 451.209 382.888 452.723 382.888C454.963 382.888 456.723 383.443 458.003 384.552C459.305 385.661 460.051 387.133 460.243 388.968H455.187C455.102 388.349 454.825 387.859 454.355 387.496C453.907 387.133 453.31 386.952 452.563 386.952C451.923 386.952 451.433 387.08 451.091 387.336C450.75 387.571 450.579 387.901 450.579 388.328C450.579 388.84 450.846 389.224 451.379 389.48C451.934 389.736 452.787 389.992 453.939 390.248C455.262 390.589 456.339 390.931 457.171 391.272C458.003 391.592 458.729 392.125 459.347 392.872C459.987 393.597 460.318 394.579 460.339 395.816C460.339 396.861 460.041 397.8 459.443 398.632C458.867 399.443 458.025 400.083 456.915 400.552C455.827 401.021 454.558 401.256 453.107 401.256ZM480.519 391.784C480.519 392.296 480.487 392.829 480.423 393.384H468.039C468.124 394.493 468.476 395.347 469.095 395.944C469.735 396.52 470.514 396.808 471.431 396.808C472.796 396.808 473.746 396.232 474.279 395.08H480.103C479.804 396.253 479.26 397.309 478.471 398.248C477.703 399.187 476.732 399.923 475.559 400.456C474.386 400.989 473.074 401.256 471.623 401.256C469.874 401.256 468.316 400.883 466.951 400.136C465.586 399.389 464.519 398.323 463.751 396.936C462.983 395.549 462.599 393.928 462.599 392.072C462.599 390.216 462.972 388.595 463.719 387.208C464.487 385.821 465.554 384.755 466.919 384.008C468.284 383.261 469.852 382.888 471.623 382.888C473.351 382.888 474.887 383.251 476.231 383.976C477.575 384.701 478.62 385.736 479.367 387.08C480.135 388.424 480.519 389.992 480.519 391.784ZM474.919 390.344C474.919 389.405 474.599 388.659 473.959 388.104C473.319 387.549 472.519 387.272 471.559 387.272C470.642 387.272 469.863 387.539 469.223 388.072C468.604 388.605 468.22 389.363 468.071 390.344H474.919ZM492.939 381.288C491.979 381.288 491.19 381.011 490.571 380.456C489.974 379.88 489.675 379.176 489.675 378.344C489.675 377.491 489.974 376.787 490.571 376.232C491.19 375.656 491.979 375.368 492.939 375.368C493.878 375.368 494.646 375.656 495.243 376.232C495.862 376.787 496.171 377.491 496.171 378.344C496.171 379.176 495.862 379.88 495.243 380.456C494.646 381.011 493.878 381.288 492.939 381.288ZM495.659 383.144V401H490.187V383.144H495.659ZM509.577 396.36V401H506.793C504.809 401 503.262 400.52 502.153 399.56C501.043 398.579 500.489 396.989 500.489 394.792V387.688H498.313V383.144H500.489V378.792H505.961V383.144H509.545V387.688H505.961V394.856C505.961 395.389 506.089 395.773 506.345 396.008C506.601 396.243 507.027 396.36 507.625 396.36H509.577ZM545.038 383.144L540.206 401H534.158L531.342 389.416L528.43 401H522.414L517.55 383.144H523.022L525.55 395.912L528.558 383.144H534.35L537.39 395.848L539.886 383.144H545.038ZM546.037 392.04C546.037 390.205 546.378 388.595 547.061 387.208C547.765 385.821 548.714 384.755 549.909 384.008C551.103 383.261 552.437 382.888 553.909 382.888C555.167 382.888 556.266 383.144 557.205 383.656C558.165 384.168 558.901 384.84 559.413 385.672V383.144H564.885V401H559.413V398.472C558.879 399.304 558.133 399.976 557.173 400.488C556.234 401 555.135 401.256 553.877 401.256C552.426 401.256 551.103 400.883 549.909 400.136C548.714 399.368 547.765 398.291 547.061 396.904C546.378 395.496 546.037 393.875 546.037 392.04ZM559.413 392.072C559.413 390.707 559.029 389.629 558.261 388.84C557.514 388.051 556.597 387.656 555.509 387.656C554.421 387.656 553.493 388.051 552.725 388.84C551.978 389.608 551.605 390.675 551.605 392.04C551.605 393.405 551.978 394.493 552.725 395.304C553.493 396.093 554.421 396.488 555.509 396.488C556.597 396.488 557.514 396.093 558.261 395.304C559.029 394.515 559.413 393.437 559.413 392.072ZM576.107 401.256C574.55 401.256 573.163 400.989 571.947 400.456C570.731 399.923 569.771 399.197 569.067 398.28C568.363 397.341 567.969 396.296 567.883 395.144H573.291C573.355 395.763 573.643 396.264 574.155 396.648C574.667 397.032 575.297 397.224 576.043 397.224C576.726 397.224 577.249 397.096 577.611 396.84C577.995 396.563 578.187 396.211 578.187 395.784C578.187 395.272 577.921 394.899 577.387 394.664C576.854 394.408 575.99 394.131 574.795 393.832C573.515 393.533 572.449 393.224 571.595 392.904C570.742 392.563 570.006 392.04 569.387 391.336C568.769 390.611 568.459 389.64 568.459 388.424C568.459 387.4 568.737 386.472 569.291 385.64C569.867 384.787 570.699 384.115 571.787 383.624C572.897 383.133 574.209 382.888 575.723 382.888C577.963 382.888 579.723 383.443 581.003 384.552C582.305 385.661 583.051 387.133 583.243 388.968H578.187C578.102 388.349 577.825 387.859 577.355 387.496C576.907 387.133 576.31 386.952 575.563 386.952C574.923 386.952 574.433 387.08 574.091 387.336C573.75 387.571 573.579 387.901 573.579 388.328C573.579 388.84 573.846 389.224 574.379 389.48C574.934 389.736 575.787 389.992 576.939 390.248C578.262 390.589 579.339 390.931 580.171 391.272C581.003 391.592 581.729 392.125 582.347 392.872C582.987 393.597 583.318 394.579 583.339 395.816C583.339 396.861 583.041 397.8 582.443 398.632C581.867 399.443 581.025 400.083 579.915 400.552C578.827 401.021 577.558 401.256 576.107 401.256ZM368.69 425.32V449H363.218V425.32H368.69ZM380.784 449.256C379.035 449.256 377.456 448.883 376.048 448.136C374.661 447.389 373.563 446.323 372.752 444.936C371.963 443.549 371.568 441.928 371.568 440.072C371.568 438.237 371.973 436.627 372.784 435.24C373.595 433.832 374.704 432.755 376.112 432.008C377.52 431.261 379.099 430.888 380.848 430.888C382.597 430.888 384.176 431.261 385.584 432.008C386.992 432.755 388.101 433.832 388.912 435.24C389.723 436.627 390.128 438.237 390.128 440.072C390.128 441.907 389.712 443.528 388.88 444.936C388.069 446.323 386.949 447.389 385.52 448.136C384.112 448.883 382.533 449.256 380.784 449.256ZM380.784 444.52C381.829 444.52 382.715 444.136 383.44 443.368C384.187 442.6 384.56 441.501 384.56 440.072C384.56 438.643 384.197 437.544 383.472 436.776C382.768 436.008 381.893 435.624 380.848 435.624C379.781 435.624 378.896 436.008 378.192 436.776C377.488 437.523 377.136 438.621 377.136 440.072C377.136 441.501 377.477 442.6 378.16 443.368C378.864 444.136 379.739 444.52 380.784 444.52ZM418.663 431.144L413.831 449H407.783L404.967 437.416L402.055 449H396.039L391.175 431.144H396.647L399.175 443.912L402.183 431.144H407.975L411.015 443.848L413.511 431.144H418.663Z" fill="white"/>
<rect x="274" y="523" width="232" height="66" rx="33" fill="#8A08F0"/>
<path d="M314.055 567L306.503 557.08V567H301.031V544.536H306.503V554.392L313.991 544.536H320.423L311.719 555.544L320.743 567H314.055ZM334.223 548.952C336.314 548.952 337.978 549.635 339.215 551C340.474 552.344 341.103 554.2 341.103 556.568V567H335.663V557.304C335.663 556.109 335.354 555.181 334.735 554.52C334.117 553.859 333.285 553.528 332.239 553.528C331.194 553.528 330.362 553.859 329.743 554.52C329.125 555.181 328.815 556.109 328.815 557.304V567H323.343V549.144H328.815V551.512C329.37 550.723 330.117 550.104 331.055 549.656C331.994 549.187 333.05 548.952 334.223 548.952ZM353.034 567.256C351.285 567.256 349.706 566.883 348.298 566.136C346.911 565.389 345.813 564.323 345.002 562.936C344.213 561.549 343.818 559.928 343.818 558.072C343.818 556.237 344.223 554.627 345.034 553.24C345.845 551.832 346.954 550.755 348.362 550.008C349.77 549.261 351.349 548.888 353.098 548.888C354.847 548.888 356.426 549.261 357.834 550.008C359.242 550.755 360.351 551.832 361.162 553.24C361.973 554.627 362.378 556.237 362.378 558.072C362.378 559.907 361.962 561.528 361.13 562.936C360.319 564.323 359.199 565.389 357.77 566.136C356.362 566.883 354.783 567.256 353.034 567.256ZM353.034 562.52C354.079 562.52 354.965 562.136 355.69 561.368C356.437 560.6 356.81 559.501 356.81 558.072C356.81 556.643 356.447 555.544 355.722 554.776C355.018 554.008 354.143 553.624 353.098 553.624C352.031 553.624 351.146 554.008 350.442 554.776C349.738 555.523 349.386 556.621 349.386 558.072C349.386 559.501 349.727 560.6 350.41 561.368C351.114 562.136 351.989 562.52 353.034 562.52ZM390.913 549.144L386.081 567H380.033L377.217 555.416L374.305 567H368.289L363.425 549.144H368.897L371.425 561.912L374.433 549.144H380.225L383.265 561.848L385.761 549.144H390.913ZM425.221 544.536V567H419.749V553.528L414.725 567H410.309L405.253 553.496V567H399.781V544.536H406.245L412.549 560.088L418.789 544.536H425.221ZM437.284 567.256C435.535 567.256 433.956 566.883 432.548 566.136C431.161 565.389 430.063 564.323 429.252 562.936C428.463 561.549 428.068 559.928 428.068 558.072C428.068 556.237 428.473 554.627 429.284 553.24C430.095 551.832 431.204 550.755 432.612 550.008C434.02 549.261 435.599 548.888 437.348 548.888C439.097 548.888 440.676 549.261 442.084 550.008C443.492 550.755 444.601 551.832 445.412 553.24C446.223 554.627 446.628 556.237 446.628 558.072C446.628 559.907 446.212 561.528 445.38 562.936C444.569 564.323 443.449 565.389 442.02 566.136C440.612 566.883 439.033 567.256 437.284 567.256ZM437.284 562.52C438.329 562.52 439.215 562.136 439.94 561.368C440.687 560.6 441.06 559.501 441.06 558.072C441.06 556.643 440.697 555.544 439.972 554.776C439.268 554.008 438.393 553.624 437.348 553.624C436.281 553.624 435.396 554.008 434.692 554.776C433.988 555.523 433.636 556.621 433.636 558.072C433.636 559.501 433.977 560.6 434.66 561.368C435.364 562.136 436.239 562.52 437.284 562.52ZM455.003 552.12C455.643 551.139 456.443 550.371 457.403 549.816C458.363 549.24 459.43 548.952 460.603 548.952V554.744H459.099C457.734 554.744 456.71 555.043 456.027 555.64C455.344 556.216 455.003 557.24 455.003 558.712V567H449.531V549.144H455.003V552.12ZM480.05 557.784C480.05 558.296 480.018 558.829 479.954 559.384H467.57C467.656 560.493 468.008 561.347 468.626 561.944C469.266 562.52 470.045 562.808 470.962 562.808C472.328 562.808 473.277 562.232 473.81 561.08H479.634C479.336 562.253 478.792 563.309 478.002 564.248C477.234 565.187 476.264 565.923 475.09 566.456C473.917 566.989 472.605 567.256 471.154 567.256C469.405 567.256 467.848 566.883 466.482 566.136C465.117 565.389 464.05 564.323 463.282 562.936C462.514 561.549 462.13 559.928 462.13 558.072C462.13 556.216 462.504 554.595 463.25 553.208C464.018 551.821 465.085 550.755 466.45 550.008C467.816 549.261 469.384 548.888 471.154 548.888C472.882 548.888 474.418 549.251 475.762 549.976C477.106 550.701 478.152 551.736 478.898 553.08C479.666 554.424 480.05 555.992 480.05 557.784ZM474.45 556.344C474.45 555.405 474.13 554.659 473.49 554.104C472.85 553.549 472.05 553.272 471.09 553.272C470.173 553.272 469.394 553.539 468.754 554.072C468.136 554.605 467.752 555.363 467.602 556.344H474.45Z" fill="white"/>
</svg>
