<svg width="780" height="780" viewBox="0 0 780 780" fill="none" xmlns="http://www.w3.org/2000/svg">
<path d="M9.19239 390L390 9.19239L770.808 390L390 770.808L9.19239 390Z" stroke="#8F00FF" stroke-width="13"/>
<path d="M286.4 182.9L277.25 218H266.9L261.3 194.9L255.5 218H245.15L236.25 182.9H245.4L250.45 208.45L256.7 182.9H266.1L272.1 208.45L277.2 182.9H286.4ZM303.388 218.4C300.655 218.4 298.188 217.817 295.988 216.65C293.821 215.483 292.105 213.817 290.838 211.65C289.605 209.483 288.988 206.95 288.988 204.05C288.988 201.183 289.621 198.667 290.888 196.5C292.155 194.3 293.888 192.617 296.088 191.45C298.288 190.283 300.755 189.7 303.488 189.7C306.221 189.7 308.688 190.283 310.888 191.45C313.088 192.617 314.821 194.3 316.088 196.5C317.355 198.667 317.988 201.183 317.988 204.05C317.988 206.917 317.338 209.45 316.038 211.65C314.771 213.817 313.021 215.483 310.788 216.65C308.588 217.817 306.121 218.4 303.388 218.4ZM303.388 211C305.021 211 306.405 210.4 307.538 209.2C308.705 208 309.288 206.283 309.288 204.05C309.288 201.817 308.721 200.1 307.588 198.9C306.488 197.7 305.121 197.1 303.488 197.1C301.821 197.1 300.438 197.7 299.338 198.9C298.238 200.067 297.688 201.783 297.688 204.05C297.688 206.283 298.221 208 299.288 209.2C300.388 210.4 301.755 211 303.388 211ZM331.074 194.75C332.074 193.217 333.324 192.017 334.824 191.15C336.324 190.25 337.99 189.8 339.824 189.8V198.85H337.474C335.34 198.85 333.74 199.317 332.674 200.25C331.607 201.15 331.074 202.75 331.074 205.05V218H322.524V190.1H331.074V194.75ZM342.211 204C342.211 201.133 342.744 198.617 343.811 196.45C344.911 194.283 346.394 192.617 348.261 191.45C350.127 190.283 352.211 189.7 354.511 189.7C356.344 189.7 358.011 190.083 359.511 190.85C361.044 191.617 362.244 192.65 363.111 193.95V181H371.661V218H363.111V214C362.311 215.333 361.161 216.4 359.661 217.2C358.194 218 356.477 218.4 354.511 218.4C352.211 218.4 350.127 217.817 348.261 216.65C346.394 215.45 344.911 213.767 343.811 211.6C342.744 209.4 342.211 206.867 342.211 204ZM363.111 204.05C363.111 201.917 362.511 200.233 361.311 199C360.144 197.767 358.711 197.15 357.011 197.15C355.311 197.15 353.861 197.767 352.661 199C351.494 200.2 350.911 201.867 350.911 204C350.911 206.133 351.494 207.833 352.661 209.1C353.861 210.333 355.311 210.95 357.011 210.95C358.711 210.95 360.144 210.333 361.311 209.1C362.511 207.867 363.111 206.183 363.111 204.05ZM401.142 218.35C398.575 218.35 396.275 217.933 394.242 217.1C392.208 216.267 390.575 215.033 389.342 213.4C388.142 211.767 387.508 209.8 387.442 207.5H396.542C396.675 208.8 397.125 209.8 397.892 210.5C398.658 211.167 399.658 211.5 400.892 211.5C402.158 211.5 403.158 211.217 403.892 210.65C404.625 210.05 404.992 209.233 404.992 208.2C404.992 207.333 404.692 206.617 404.092 206.05C403.525 205.483 402.808 205.017 401.942 204.65C401.108 204.283 399.908 203.867 398.342 203.4C396.075 202.7 394.225 202 392.792 201.3C391.358 200.6 390.125 199.567 389.092 198.2C388.058 196.833 387.542 195.05 387.542 192.85C387.542 189.583 388.725 187.033 391.092 185.2C393.458 183.333 396.542 182.4 400.342 182.4C404.208 182.4 407.325 183.333 409.692 185.2C412.058 187.033 413.325 189.6 413.492 192.9H404.242C404.175 191.767 403.758 190.883 402.992 190.25C402.225 189.583 401.242 189.25 400.042 189.25C399.008 189.25 398.175 189.533 397.542 190.1C396.908 190.633 396.592 191.417 396.592 192.45C396.592 193.583 397.125 194.467 398.192 195.1C399.258 195.733 400.925 196.417 403.192 197.15C405.458 197.917 407.292 198.65 408.692 199.35C410.125 200.05 411.358 201.067 412.392 202.4C413.425 203.733 413.942 205.45 413.942 207.55C413.942 209.55 413.425 211.367 412.392 213C411.392 214.633 409.925 215.933 407.992 216.9C406.058 217.867 403.775 218.35 401.142 218.35ZM434.754 210.75V218H430.404C427.304 218 424.887 217.25 423.154 215.75C421.42 214.217 420.554 211.733 420.554 208.3V197.2H417.154V190.1H420.554V183.3H429.104V190.1H434.704V197.2H429.104V208.4C429.104 209.233 429.304 209.833 429.704 210.2C430.104 210.567 430.77 210.75 431.704 210.75H434.754ZM448.066 194.75C449.066 193.217 450.316 192.017 451.816 191.15C453.316 190.25 454.983 189.8 456.816 189.8V198.85H454.466C452.333 198.85 450.733 199.317 449.666 200.25C448.599 201.15 448.066 202.75 448.066 205.05V218H439.516V190.1H448.066V194.75ZM487.203 203.6C487.203 204.4 487.153 205.233 487.053 206.1H467.703C467.836 207.833 468.386 209.167 469.353 210.1C470.353 211 471.569 211.45 473.003 211.45C475.136 211.45 476.619 210.55 477.453 208.75H486.553C486.086 210.583 485.236 212.233 484.003 213.7C482.803 215.167 481.286 216.317 479.453 217.15C477.619 217.983 475.569 218.4 473.303 218.4C470.569 218.4 468.136 217.817 466.003 216.65C463.869 215.483 462.203 213.817 461.003 211.65C459.803 209.483 459.203 206.95 459.203 204.05C459.203 201.15 459.786 198.617 460.953 196.45C462.153 194.283 463.819 192.617 465.953 191.45C468.086 190.283 470.536 189.7 473.303 189.7C476.003 189.7 478.403 190.267 480.503 191.4C482.603 192.533 484.236 194.15 485.403 196.25C486.603 198.35 487.203 200.8 487.203 203.6ZM478.453 201.35C478.453 199.883 477.953 198.717 476.953 197.85C475.953 196.983 474.703 196.55 473.203 196.55C471.769 196.55 470.553 196.967 469.553 197.8C468.586 198.633 467.986 199.817 467.753 201.35H478.453ZM503.063 218.4C500.63 218.4 498.463 217.983 496.563 217.15C494.663 216.317 493.163 215.183 492.063 213.75C490.963 212.283 490.347 210.65 490.213 208.85H498.663C498.763 209.817 499.213 210.6 500.013 211.2C500.813 211.8 501.797 212.1 502.963 212.1C504.03 212.1 504.847 211.9 505.413 211.5C506.013 211.067 506.313 210.517 506.313 209.85C506.313 209.05 505.897 208.467 505.063 208.1C504.23 207.7 502.88 207.267 501.013 206.8C499.013 206.333 497.347 205.85 496.013 205.35C494.68 204.817 493.53 204 492.563 202.9C491.597 201.767 491.113 200.25 491.113 198.35C491.113 196.75 491.547 195.3 492.413 194C493.313 192.667 494.613 191.617 496.313 190.85C498.047 190.083 500.097 189.7 502.463 189.7C505.963 189.7 508.713 190.567 510.713 192.3C512.747 194.033 513.913 196.333 514.213 199.2H506.313C506.18 198.233 505.747 197.467 505.013 196.9C504.313 196.333 503.38 196.05 502.213 196.05C501.213 196.05 500.447 196.25 499.913 196.65C499.38 197.017 499.113 197.533 499.113 198.2C499.113 199 499.53 199.6 500.363 200C501.23 200.4 502.563 200.8 504.363 201.2C506.43 201.733 508.113 202.267 509.413 202.8C510.713 203.3 511.847 204.133 512.813 205.3C513.813 206.433 514.33 207.967 514.363 209.9C514.363 211.533 513.897 213 512.963 214.3C512.063 215.567 510.747 216.567 509.013 217.3C507.313 218.033 505.33 218.4 503.063 218.4ZM530.944 218.4C528.511 218.4 526.344 217.983 524.444 217.15C522.544 216.317 521.044 215.183 519.944 213.75C518.844 212.283 518.227 210.65 518.094 208.85H526.544C526.644 209.817 527.094 210.6 527.894 211.2C528.694 211.8 529.677 212.1 530.844 212.1C531.911 212.1 532.727 211.9 533.294 211.5C533.894 211.067 534.194 210.517 534.194 209.85C534.194 209.05 533.777 208.467 532.944 208.1C532.111 207.7 530.761 207.267 528.894 206.8C526.894 206.333 525.227 205.85 523.894 205.35C522.561 204.817 521.411 204 520.444 202.9C519.477 201.767 518.994 200.25 518.994 198.35C518.994 196.75 519.427 195.3 520.294 194C521.194 192.667 522.494 191.617 524.194 190.85C525.927 190.083 527.977 189.7 530.344 189.7C533.844 189.7 536.594 190.567 538.594 192.3C540.627 194.033 541.794 196.333 542.094 199.2H534.194C534.061 198.233 533.627 197.467 532.894 196.9C532.194 196.333 531.261 196.05 530.094 196.05C529.094 196.05 528.327 196.25 527.794 196.65C527.261 197.017 526.994 197.533 526.994 198.2C526.994 199 527.411 199.6 528.244 200C529.111 200.4 530.444 200.8 532.244 201.2C534.311 201.733 535.994 202.267 537.294 202.8C538.594 203.3 539.727 204.133 540.694 205.3C541.694 206.433 542.211 207.967 542.244 209.9C542.244 211.533 541.777 213 540.844 214.3C539.944 215.567 538.627 216.567 536.894 217.3C535.194 218.033 533.211 218.4 530.944 218.4Z" fill="white"/>
<path d="M235 238H545" stroke="#8A08F0" stroke-width="13" stroke-linecap="round"/>
<path d="M254.292 337.768C254.292 339.069 253.993 340.264 253.396 341.352C252.798 342.419 251.881 343.283 250.644 343.944C249.406 344.605 247.87 344.936 246.036 344.936H242.644V353H237.172V330.536H246.036C247.828 330.536 249.342 330.845 250.58 331.464C251.817 332.083 252.745 332.936 253.364 334.024C253.982 335.112 254.292 336.36 254.292 337.768ZM245.62 340.584C246.665 340.584 247.444 340.339 247.956 339.848C248.468 339.357 248.724 338.664 248.724 337.768C248.724 336.872 248.468 336.179 247.956 335.688C247.444 335.197 246.665 334.952 245.62 334.952H242.644V340.584H245.62ZM275.38 335.144L264.18 361.48H258.292L262.388 352.392L255.124 335.144H261.236L265.364 346.312L269.46 335.144H275.38ZM287.311 348.36V353H284.527C282.543 353 280.996 352.52 279.887 351.56C278.778 350.579 278.223 348.989 278.223 346.792V339.688H276.047V335.144H278.223V330.792H283.695V335.144H287.279V339.688H283.695V346.856C283.695 347.389 283.823 347.773 284.079 348.008C284.335 348.243 284.762 348.36 285.359 348.36H287.311ZM301.335 334.952C303.383 334.952 305.026 335.635 306.263 337C307.5 338.344 308.119 340.2 308.119 342.568V353H302.679V343.304C302.679 342.109 302.37 341.181 301.751 340.52C301.132 339.859 300.3 339.528 299.255 339.528C298.21 339.528 297.378 339.859 296.759 340.52C296.14 341.181 295.831 342.109 295.831 343.304V353H290.359V329.32H295.831V337.544C296.386 336.755 297.143 336.125 298.103 335.656C299.063 335.187 300.14 334.952 301.335 334.952ZM320.05 353.256C318.3 353.256 316.722 352.883 315.314 352.136C313.927 351.389 312.828 350.323 312.018 348.936C311.228 347.549 310.834 345.928 310.834 344.072C310.834 342.237 311.239 340.627 312.049 339.24C312.86 337.832 313.97 336.755 315.378 336.008C316.786 335.261 318.364 334.888 320.114 334.888C321.863 334.888 323.442 335.261 324.85 336.008C326.258 336.755 327.367 337.832 328.178 339.24C328.988 340.627 329.394 342.237 329.394 344.072C329.394 345.907 328.978 347.528 328.146 348.936C327.335 350.323 326.215 351.389 324.786 352.136C323.378 352.883 321.799 353.256 320.05 353.256ZM320.05 348.52C321.095 348.52 321.98 348.136 322.706 347.368C323.452 346.6 323.826 345.501 323.826 344.072C323.826 342.643 323.463 341.544 322.738 340.776C322.034 340.008 321.159 339.624 320.114 339.624C319.047 339.624 318.162 340.008 317.458 340.776C316.754 341.523 316.402 342.621 316.402 344.072C316.402 345.501 316.743 346.6 317.426 347.368C318.13 348.136 319.004 348.52 320.05 348.52ZM343.177 334.952C345.267 334.952 346.931 335.635 348.169 337C349.427 338.344 350.057 340.2 350.057 342.568V353H344.617V343.304C344.617 342.109 344.307 341.181 343.689 340.52C343.07 339.859 342.238 339.528 341.193 339.528C340.147 339.528 339.315 339.859 338.697 340.52C338.078 341.181 337.769 342.109 337.769 343.304V353H332.297V335.144H337.769V337.512C338.323 336.723 339.07 336.104 340.009 335.656C340.947 335.187 342.003 334.952 343.177 334.952ZM366.528 347.944L362.976 357.128H359.488L361.344 347.944H366.528ZM387.585 334.952C389.633 334.952 391.276 335.635 392.513 337C393.75 338.344 394.369 340.2 394.369 342.568V353H388.929V343.304C388.929 342.109 388.62 341.181 388.001 340.52C387.382 339.859 386.55 339.528 385.505 339.528C384.46 339.528 383.628 339.859 383.009 340.52C382.39 341.181 382.081 342.109 382.081 343.304V353H376.609V329.32H382.081V337.544C382.636 336.755 383.393 336.125 384.353 335.656C385.313 335.187 386.39 334.952 387.585 334.952ZM400.924 333.288C399.964 333.288 399.174 333.011 398.556 332.456C397.958 331.88 397.66 331.176 397.66 330.344C397.66 329.491 397.958 328.787 398.556 328.232C399.174 327.656 399.964 327.368 400.924 327.368C401.862 327.368 402.63 327.656 403.228 328.232C403.846 328.787 404.156 329.491 404.156 330.344C404.156 331.176 403.846 331.88 403.228 332.456C402.63 333.011 401.862 333.288 400.924 333.288ZM403.644 335.144V353H398.172V335.144H403.644ZM414.393 334.888C415.652 334.888 416.75 335.144 417.689 335.656C418.649 336.168 419.385 336.84 419.897 337.672V335.144H425.369V352.968C425.369 354.611 425.038 356.093 424.377 357.416C423.737 358.76 422.745 359.827 421.401 360.616C420.078 361.405 418.425 361.8 416.441 361.8C413.796 361.8 411.652 361.171 410.009 359.912C408.366 358.675 407.428 356.989 407.193 354.856H412.601C412.772 355.539 413.177 356.072 413.817 356.456C414.457 356.861 415.246 357.064 416.185 357.064C417.316 357.064 418.212 356.733 418.873 356.072C419.556 355.432 419.897 354.397 419.897 352.968V350.44C419.364 351.272 418.628 351.955 417.689 352.488C416.75 353 415.652 353.256 414.393 353.256C412.921 353.256 411.588 352.883 410.393 352.136C409.198 351.368 408.249 350.291 407.545 348.904C406.862 347.496 406.521 345.875 406.521 344.04C406.521 342.205 406.862 340.595 407.545 339.208C408.249 337.821 409.198 336.755 410.393 336.008C411.588 335.261 412.921 334.888 414.393 334.888ZM419.897 344.072C419.897 342.707 419.513 341.629 418.745 340.84C417.998 340.051 417.081 339.656 415.993 339.656C414.905 339.656 413.977 340.051 413.209 340.84C412.462 341.608 412.089 342.675 412.089 344.04C412.089 345.405 412.462 346.493 413.209 347.304C413.977 348.093 414.905 348.488 415.993 348.488C417.081 348.488 417.998 348.093 418.745 347.304C419.513 346.515 419.897 345.437 419.897 344.072ZM440.304 334.952C442.352 334.952 443.994 335.635 445.232 337C446.469 338.344 447.088 340.2 447.088 342.568V353H441.648V343.304C441.648 342.109 441.338 341.181 440.72 340.52C440.101 339.859 439.269 339.528 438.224 339.528C437.178 339.528 436.346 339.859 435.728 340.52C435.109 341.181 434.8 342.109 434.8 343.304V353H429.328V329.32H434.8V337.544C435.354 336.755 436.112 336.125 437.072 335.656C438.032 335.187 439.109 334.952 440.304 334.952ZM464.65 339.496V344.04H450.57V339.496H464.65ZM474.925 329.32V353H469.453V329.32H474.925ZM495.722 343.784C495.722 344.296 495.69 344.829 495.626 345.384H483.242C483.328 346.493 483.68 347.347 484.298 347.944C484.938 348.52 485.717 348.808 486.634 348.808C488 348.808 488.949 348.232 489.482 347.08H495.306C495.008 348.253 494.464 349.309 493.674 350.248C492.906 351.187 491.936 351.923 490.762 352.456C489.589 352.989 488.277 353.256 486.826 353.256C485.077 353.256 483.52 352.883 482.154 352.136C480.789 351.389 479.722 350.323 478.954 348.936C478.186 347.549 477.802 345.928 477.802 344.072C477.802 342.216 478.176 340.595 478.922 339.208C479.69 337.821 480.757 336.755 482.122 336.008C483.488 335.261 485.056 334.888 486.826 334.888C488.554 334.888 490.09 335.251 491.434 335.976C492.778 336.701 493.824 337.736 494.57 339.08C495.338 340.424 495.722 341.992 495.722 343.784ZM490.122 342.344C490.122 341.405 489.802 340.659 489.162 340.104C488.522 339.549 487.722 339.272 486.762 339.272C485.845 339.272 485.066 339.539 484.426 340.072C483.808 340.605 483.424 341.363 483.274 342.344H490.122ZM506.641 347.88L510.513 335.144H516.337L510.001 353H503.249L496.913 335.144H502.769L506.641 347.88ZM535.472 343.784C535.472 344.296 535.44 344.829 535.376 345.384H522.992C523.078 346.493 523.43 347.347 524.048 347.944C524.688 348.52 525.467 348.808 526.384 348.808C527.75 348.808 528.699 348.232 529.232 347.08H535.056C534.758 348.253 534.214 349.309 533.424 350.248C532.656 351.187 531.686 351.923 530.512 352.456C529.339 352.989 528.027 353.256 526.576 353.256C524.827 353.256 523.27 352.883 521.904 352.136C520.539 351.389 519.472 350.323 518.704 348.936C517.936 347.549 517.552 345.928 517.552 344.072C517.552 342.216 517.926 340.595 518.672 339.208C519.44 337.821 520.507 336.755 521.872 336.008C523.238 335.261 524.806 334.888 526.576 334.888C528.304 334.888 529.84 335.251 531.184 335.976C532.528 336.701 533.574 337.736 534.32 339.08C535.088 340.424 535.472 341.992 535.472 343.784ZM529.872 342.344C529.872 341.405 529.552 340.659 528.912 340.104C528.272 339.549 527.472 339.272 526.512 339.272C525.595 339.272 524.816 339.539 524.176 340.072C523.558 340.605 523.174 341.363 523.024 342.344H529.872ZM543.831 329.32V353H538.359V329.32H543.831ZM238.818 392.04C238.818 390.205 239.159 388.595 239.842 387.208C240.546 385.821 241.495 384.755 242.69 384.008C243.885 383.261 245.218 382.888 246.69 382.888C247.949 382.888 249.047 383.144 249.986 383.656C250.946 384.168 251.682 384.84 252.194 385.672V383.144H257.666V401H252.194V398.472C251.661 399.304 250.914 399.976 249.954 400.488C249.015 401 247.917 401.256 246.658 401.256C245.207 401.256 243.885 400.883 242.69 400.136C241.495 399.368 240.546 398.291 239.842 396.904C239.159 395.496 238.818 393.875 238.818 392.04ZM252.194 392.072C252.194 390.707 251.81 389.629 251.042 388.84C250.295 388.051 249.378 387.656 248.29 387.656C247.202 387.656 246.274 388.051 245.506 388.84C244.759 389.608 244.386 390.675 244.386 392.04C244.386 393.405 244.759 394.493 245.506 395.304C246.274 396.093 247.202 396.488 248.29 396.488C249.378 396.488 250.295 396.093 251.042 395.304C251.81 394.515 252.194 393.437 252.194 392.072ZM272.505 382.952C274.595 382.952 276.259 383.635 277.497 385C278.755 386.344 279.385 388.2 279.385 390.568V401H273.945V391.304C273.945 390.109 273.635 389.181 273.017 388.52C272.398 387.859 271.566 387.528 270.521 387.528C269.475 387.528 268.643 387.859 268.025 388.52C267.406 389.181 267.097 390.109 267.097 391.304V401H261.625V383.144H267.097V385.512C267.651 384.723 268.398 384.104 269.337 383.656C270.275 383.187 271.331 382.952 272.505 382.952ZM282.099 392.04C282.099 390.205 282.44 388.595 283.123 387.208C283.827 385.821 284.776 384.755 285.971 384.008C287.166 383.261 288.499 382.888 289.971 382.888C291.144 382.888 292.211 383.133 293.171 383.624C294.152 384.115 294.92 384.776 295.475 385.608V377.32H300.947V401H295.475V398.44C294.963 399.293 294.227 399.976 293.267 400.488C292.328 401 291.23 401.256 289.971 401.256C288.499 401.256 287.166 400.883 285.971 400.136C284.776 399.368 283.827 398.291 283.123 396.904C282.44 395.496 282.099 393.875 282.099 392.04ZM295.475 392.072C295.475 390.707 295.091 389.629 294.323 388.84C293.576 388.051 292.659 387.656 291.571 387.656C290.483 387.656 289.555 388.051 288.787 388.84C288.04 389.608 287.667 390.675 287.667 392.04C287.667 393.405 288.04 394.493 288.787 395.304C289.555 396.093 290.483 396.488 291.571 396.488C292.659 396.488 293.576 396.093 294.323 395.304C295.091 394.515 295.475 393.437 295.475 392.072ZM317.159 385.672C317.692 384.84 318.428 384.168 319.367 383.656C320.306 383.144 321.404 382.888 322.663 382.888C324.135 382.888 325.468 383.261 326.663 384.008C327.858 384.755 328.796 385.821 329.479 387.208C330.183 388.595 330.535 390.205 330.535 392.04C330.535 393.875 330.183 395.496 329.479 396.904C328.796 398.291 327.858 399.368 326.663 400.136C325.468 400.883 324.135 401.256 322.663 401.256C321.426 401.256 320.327 401 319.367 400.488C318.428 399.976 317.692 399.315 317.159 398.504V409.512H311.687V383.144H317.159V385.672ZM324.967 392.04C324.967 390.675 324.583 389.608 323.815 388.84C323.068 388.051 322.14 387.656 321.031 387.656C319.943 387.656 319.015 388.051 318.247 388.84C317.5 389.629 317.127 390.707 317.127 392.072C317.127 393.437 317.5 394.515 318.247 395.304C319.015 396.093 319.943 396.488 321.031 396.488C322.119 396.488 323.047 396.093 323.815 395.304C324.583 394.493 324.967 393.405 324.967 392.04ZM338.878 386.12C339.518 385.139 340.318 384.371 341.278 383.816C342.238 383.24 343.305 382.952 344.478 382.952V388.744H342.974C341.609 388.744 340.585 389.043 339.902 389.64C339.219 390.216 338.878 391.24 338.878 392.712V401H333.406V383.144H338.878V386.12ZM355.221 401.256C353.472 401.256 351.893 400.883 350.485 400.136C349.099 399.389 348 398.323 347.189 396.936C346.4 395.549 346.005 393.928 346.005 392.072C346.005 390.237 346.411 388.627 347.221 387.24C348.032 385.832 349.141 384.755 350.549 384.008C351.957 383.261 353.536 382.888 355.285 382.888C357.035 382.888 358.613 383.261 360.021 384.008C361.429 384.755 362.539 385.832 363.349 387.24C364.16 388.627 364.565 390.237 364.565 392.072C364.565 393.907 364.149 395.528 363.317 396.936C362.507 398.323 361.387 399.389 359.957 400.136C358.549 400.883 356.971 401.256 355.221 401.256ZM355.221 396.52C356.267 396.52 357.152 396.136 357.877 395.368C358.624 394.6 358.997 393.501 358.997 392.072C358.997 390.643 358.635 389.544 357.909 388.776C357.205 388.008 356.331 387.624 355.285 387.624C354.219 387.624 353.333 388.008 352.629 388.776C351.925 389.523 351.573 390.621 351.573 392.072C351.573 393.501 351.915 394.6 352.597 395.368C353.301 396.136 354.176 396.52 355.221 396.52ZM374.252 382.888C375.511 382.888 376.61 383.144 377.548 383.656C378.508 384.168 379.244 384.84 379.756 385.672V383.144H385.228V400.968C385.228 402.611 384.898 404.093 384.236 405.416C383.596 406.76 382.604 407.827 381.26 408.616C379.938 409.405 378.284 409.8 376.3 409.8C373.655 409.8 371.511 409.171 369.868 407.912C368.226 406.675 367.287 404.989 367.052 402.856H372.46C372.631 403.539 373.036 404.072 373.676 404.456C374.316 404.861 375.106 405.064 376.044 405.064C377.175 405.064 378.071 404.733 378.732 404.072C379.415 403.432 379.756 402.397 379.756 400.968V398.44C379.223 399.272 378.487 399.955 377.548 400.488C376.61 401 375.511 401.256 374.252 401.256C372.78 401.256 371.447 400.883 370.252 400.136C369.058 399.368 368.108 398.291 367.404 396.904C366.722 395.496 366.38 393.875 366.38 392.04C366.38 390.205 366.722 388.595 367.404 387.208C368.108 385.821 369.058 384.755 370.252 384.008C371.447 383.261 372.78 382.888 374.252 382.888ZM379.756 392.072C379.756 390.707 379.372 389.629 378.604 388.84C377.858 388.051 376.94 387.656 375.852 387.656C374.764 387.656 373.836 388.051 373.068 388.84C372.322 389.608 371.948 390.675 371.948 392.04C371.948 393.405 372.322 394.493 373.068 395.304C373.836 396.093 374.764 396.488 375.852 396.488C376.94 396.488 377.858 396.093 378.604 395.304C379.372 394.515 379.756 393.437 379.756 392.072ZM394.659 386.12C395.299 385.139 396.099 384.371 397.059 383.816C398.019 383.24 399.086 382.952 400.259 382.952V388.744H398.755C397.39 388.744 396.366 389.043 395.683 389.64C395 390.216 394.659 391.24 394.659 392.712V401H389.187V383.144H394.659V386.12ZM401.787 392.04C401.787 390.205 402.128 388.595 402.811 387.208C403.515 385.821 404.464 384.755 405.659 384.008C406.853 383.261 408.187 382.888 409.659 382.888C410.917 382.888 412.016 383.144 412.955 383.656C413.915 384.168 414.651 384.84 415.163 385.672V383.144H420.635V401H415.163V398.472C414.629 399.304 413.883 399.976 412.923 400.488C411.984 401 410.885 401.256 409.627 401.256C408.176 401.256 406.853 400.883 405.659 400.136C404.464 399.368 403.515 398.291 402.811 396.904C402.128 395.496 401.787 393.875 401.787 392.04ZM415.163 392.072C415.163 390.707 414.779 389.629 414.011 388.84C413.264 388.051 412.347 387.656 411.259 387.656C410.171 387.656 409.243 388.051 408.475 388.84C407.728 389.608 407.355 390.675 407.355 392.04C407.355 393.405 407.728 394.493 408.475 395.304C409.243 396.093 410.171 396.488 411.259 396.488C412.347 396.488 413.264 396.093 414.011 395.304C414.779 394.515 415.163 393.437 415.163 392.072ZM447.377 382.952C449.596 382.952 451.356 383.624 452.657 384.968C453.98 386.312 454.641 388.179 454.641 390.568V401H449.201V391.304C449.201 390.152 448.892 389.267 448.273 388.648C447.676 388.008 446.844 387.688 445.777 387.688C444.711 387.688 443.868 388.008 443.249 388.648C442.652 389.267 442.353 390.152 442.353 391.304V401H436.913V391.304C436.913 390.152 436.604 389.267 435.985 388.648C435.388 388.008 434.556 387.688 433.489 387.688C432.423 387.688 431.58 388.008 430.961 388.648C430.364 389.267 430.065 390.152 430.065 391.304V401H424.593V383.144H430.065V385.384C430.62 384.637 431.345 384.051 432.241 383.624C433.137 383.176 434.151 382.952 435.281 382.952C436.625 382.952 437.82 383.24 438.865 383.816C439.932 384.392 440.764 385.213 441.361 386.28C441.98 385.299 442.823 384.499 443.889 383.88C444.956 383.261 446.119 382.952 447.377 382.952ZM481.252 382.952C483.471 382.952 485.231 383.624 486.532 384.968C487.855 386.312 488.516 388.179 488.516 390.568V401H483.076V391.304C483.076 390.152 482.767 389.267 482.148 388.648C481.551 388.008 480.719 387.688 479.652 387.688C478.586 387.688 477.743 388.008 477.124 388.648C476.527 389.267 476.228 390.152 476.228 391.304V401H470.788V391.304C470.788 390.152 470.479 389.267 469.86 388.648C469.263 388.008 468.431 387.688 467.364 387.688C466.298 387.688 465.455 388.008 464.836 388.648C464.239 389.267 463.94 390.152 463.94 391.304V401H458.468V383.144H463.94V385.384C464.495 384.637 465.22 384.051 466.116 383.624C467.012 383.176 468.026 382.952 469.156 382.952C470.5 382.952 471.695 383.24 472.74 383.816C473.807 384.392 474.639 385.213 475.236 386.28C475.855 385.299 476.698 384.499 477.764 383.88C478.831 383.261 479.994 382.952 481.252 382.952ZM495.095 381.288C494.135 381.288 493.346 381.011 492.727 380.456C492.13 379.88 491.831 379.176 491.831 378.344C491.831 377.491 492.13 376.787 492.727 376.232C493.346 375.656 494.135 375.368 495.095 375.368C496.034 375.368 496.802 375.656 497.399 376.232C498.018 376.787 498.327 377.491 498.327 378.344C498.327 379.176 498.018 379.88 497.399 380.456C496.802 381.011 496.034 381.288 495.095 381.288ZM497.815 383.144V401H492.343V383.144H497.815ZM512.661 382.952C514.752 382.952 516.416 383.635 517.653 385C518.912 386.344 519.541 388.2 519.541 390.568V401H514.101V391.304C514.101 390.109 513.792 389.181 513.173 388.52C512.554 387.859 511.722 387.528 510.677 387.528C509.632 387.528 508.8 387.859 508.181 388.52C507.562 389.181 507.253 390.109 507.253 391.304V401H501.781V383.144H507.253V385.512C507.808 384.723 508.554 384.104 509.493 383.656C510.432 383.187 511.488 382.952 512.661 382.952ZM530.127 382.888C531.386 382.888 532.485 383.144 533.423 383.656C534.383 384.168 535.119 384.84 535.631 385.672V383.144H541.103V400.968C541.103 402.611 540.773 404.093 540.111 405.416C539.471 406.76 538.479 407.827 537.135 408.616C535.813 409.405 534.159 409.8 532.175 409.8C529.53 409.8 527.386 409.171 525.743 407.912C524.101 406.675 523.162 404.989 522.927 402.856H528.335C528.506 403.539 528.911 404.072 529.551 404.456C530.191 404.861 530.981 405.064 531.919 405.064C533.05 405.064 533.946 404.733 534.607 404.072C535.29 403.432 535.631 402.397 535.631 400.968V398.44C535.098 399.272 534.362 399.955 533.423 400.488C532.485 401 531.386 401.256 530.127 401.256C528.655 401.256 527.322 400.883 526.127 400.136C524.933 399.368 523.983 398.291 523.279 396.904C522.597 395.496 522.255 393.875 522.255 392.04C522.255 390.205 522.597 388.595 523.279 387.208C523.983 385.821 524.933 384.755 526.127 384.008C527.322 383.261 528.655 382.888 530.127 382.888ZM535.631 392.072C535.631 390.707 535.247 389.629 534.479 388.84C533.733 388.051 532.815 387.656 531.727 387.656C530.639 387.656 529.711 388.051 528.943 388.84C528.197 389.608 527.823 390.675 527.823 392.04C527.823 393.405 528.197 394.493 528.943 395.304C529.711 396.093 530.639 396.488 531.727 396.488C532.815 396.488 533.733 396.093 534.479 395.304C535.247 394.515 535.631 393.437 535.631 392.072Z" fill="white"/>
<rect x="274" y="523" width="232" height="66" rx="33" fill="#8A08F0"/>
<path d="M314.055 567L306.503 557.08V567H301.031V544.536H306.503V554.392L313.991 544.536H320.423L311.719 555.544L320.743 567H314.055ZM334.223 548.952C336.314 548.952 337.978 549.635 339.215 551C340.474 552.344 341.103 554.2 341.103 556.568V567H335.663V557.304C335.663 556.109 335.354 555.181 334.735 554.52C334.117 553.859 333.285 553.528 332.239 553.528C331.194 553.528 330.362 553.859 329.743 554.52C329.125 555.181 328.815 556.109 328.815 557.304V567H323.343V549.144H328.815V551.512C329.37 550.723 330.117 550.104 331.055 549.656C331.994 549.187 333.05 548.952 334.223 548.952ZM353.034 567.256C351.285 567.256 349.706 566.883 348.298 566.136C346.911 565.389 345.813 564.323 345.002 562.936C344.213 561.549 343.818 559.928 343.818 558.072C343.818 556.237 344.223 554.627 345.034 553.24C345.845 551.832 346.954 550.755 348.362 550.008C349.77 549.261 351.349 548.888 353.098 548.888C354.847 548.888 356.426 549.261 357.834 550.008C359.242 550.755 360.351 551.832 361.162 553.24C361.973 554.627 362.378 556.237 362.378 558.072C362.378 559.907 361.962 561.528 361.13 562.936C360.319 564.323 359.199 565.389 357.77 566.136C356.362 566.883 354.783 567.256 353.034 567.256ZM353.034 562.52C354.079 562.52 354.965 562.136 355.69 561.368C356.437 560.6 356.81 559.501 356.81 558.072C356.81 556.643 356.447 555.544 355.722 554.776C355.018 554.008 354.143 553.624 353.098 553.624C352.031 553.624 351.146 554.008 350.442 554.776C349.738 555.523 349.386 556.621 349.386 558.072C349.386 559.501 349.727 560.6 350.41 561.368C351.114 562.136 351.989 562.52 353.034 562.52ZM390.913 549.144L386.081 567H380.033L377.217 555.416L374.305 567H368.289L363.425 549.144H368.897L371.425 561.912L374.433 549.144H380.225L383.265 561.848L385.761 549.144H390.913ZM425.221 544.536V567H419.749V553.528L414.725 567H410.309L405.253 553.496V567H399.781V544.536H406.245L412.549 560.088L418.789 544.536H425.221ZM437.284 567.256C435.535 567.256 433.956 566.883 432.548 566.136C431.161 565.389 430.063 564.323 429.252 562.936C428.463 561.549 428.068 559.928 428.068 558.072C428.068 556.237 428.473 554.627 429.284 553.24C430.095 551.832 431.204 550.755 432.612 550.008C434.02 549.261 435.599 548.888 437.348 548.888C439.097 548.888 440.676 549.261 442.084 550.008C443.492 550.755 444.601 551.832 445.412 553.24C446.223 554.627 446.628 556.237 446.628 558.072C446.628 559.907 446.212 561.528 445.38 562.936C444.569 564.323 443.449 565.389 442.02 566.136C440.612 566.883 439.033 567.256 437.284 567.256ZM437.284 562.52C438.329 562.52 439.215 562.136 439.94 561.368C440.687 560.6 441.06 559.501 441.06 558.072C441.06 556.643 440.697 555.544 439.972 554.776C439.268 554.008 438.393 553.624 437.348 553.624C436.281 553.624 435.396 554.008 434.692 554.776C433.988 555.523 433.636 556.621 433.636 558.072C433.636 559.501 433.977 560.6 434.66 561.368C435.364 562.136 436.239 562.52 437.284 562.52ZM455.003 552.12C455.643 551.139 456.443 550.371 457.403 549.816C458.363 549.24 459.43 548.952 460.603 548.952V554.744H459.099C457.734 554.744 456.71 555.043 456.027 555.64C455.344 556.216 455.003 557.24 455.003 558.712V567H449.531V549.144H455.003V552.12ZM480.05 557.784C480.05 558.296 480.018 558.829 479.954 559.384H467.57C467.656 560.493 468.008 561.347 468.626 561.944C469.266 562.52 470.045 562.808 470.962 562.808C472.328 562.808 473.277 562.232 473.81 561.08H479.634C479.336 562.253 478.792 563.309 478.002 564.248C477.234 565.187 476.264 565.923 475.09 566.456C473.917 566.989 472.605 567.256 471.154 567.256C469.405 567.256 467.848 566.883 466.482 566.136C465.117 565.389 464.05 564.323 463.282 562.936C462.514 561.549 462.13 559.928 462.13 558.072C462.13 556.216 462.504 554.595 463.25 553.208C464.018 551.821 465.085 550.755 466.45 550.008C467.816 549.261 469.384 548.888 471.154 548.888C472.882 548.888 474.418 549.251 475.762 549.976C477.106 550.701 478.152 551.736 478.898 553.08C479.666 554.424 480.05 555.992 480.05 557.784ZM474.45 556.344C474.45 555.405 474.13 554.659 473.49 554.104C472.85 553.549 472.05 553.272 471.09 553.272C470.173 553.272 469.394 553.539 468.754 554.072C468.136 554.605 467.752 555.363 467.602 556.344H474.45Z" fill="white"/>
<path d="M390 762L398 770L390 778L382 770L390 762Z" fill="#8A08F0"/>
</svg>
