<svg width="74" height="108" viewBox="0 0 74 108" fill="none" xmlns="http://www.w3.org/2000/svg">
<path d="M0.655 89.135C3.94167 86.525 5.44 85.3167 5.15 85.51C14.6233 77.68 22.0667 71.2517 27.48 66.225C32.99 61.1983 37.63 55.93 41.4 50.42C45.17 44.91 47.055 39.545 47.055 34.325C47.055 30.3617 46.1367 27.2683 44.3 25.045C42.4633 22.8217 39.7083 21.71 36.035 21.71C32.3617 21.71 29.4617 23.1117 27.335 25.915C25.305 28.6217 24.29 32.4883 24.29 37.515H0.365C0.558333 29.2983 2.29833 22.435 5.585 16.925C8.96833 11.415 13.3667 7.35499 18.78 4.74499C24.29 2.13499 30.38 0.829993 37.05 0.829993C48.5533 0.829993 57.205 3.77833 63.005 9.67499C68.9017 15.5717 71.85 23.2567 71.85 32.73C71.85 43.0733 68.3217 52.6917 61.265 61.585C54.2083 70.3817 45.2183 78.985 34.295 87.395H73.445V107.55H0.655V89.135Z" fill="white"/>
</svg>
