<svg width="780" height="780" viewBox="0 0 780 780" fill="none" xmlns="http://www.w3.org/2000/svg">
<path d="M9.19239 390L390 9.19239L770.808 390L390 770.808L9.19239 390Z" stroke="#8F00FF" stroke-width="13"/>
<path d="M313.95 182.9V189.75H299.65V197.15H310.35V203.8H299.65V218H291.1V182.9H313.95ZM326.994 181V218H318.444V181H326.994ZM360.74 190.1V218H352.19V214.2C351.323 215.433 350.14 216.433 348.64 217.2C347.173 217.933 345.54 218.3 343.74 218.3C341.607 218.3 339.723 217.833 338.09 216.9C336.457 215.933 335.19 214.55 334.29 212.75C333.39 210.95 332.94 208.833 332.94 206.4V190.1H341.44V205.25C341.44 207.117 341.923 208.567 342.89 209.6C343.857 210.633 345.157 211.15 346.79 211.15C348.457 211.15 349.773 210.633 350.74 209.6C351.707 208.567 352.19 207.117 352.19 205.25V190.1H360.74ZM393.181 203.6C393.181 204.4 393.131 205.233 393.031 206.1H373.681C373.815 207.833 374.365 209.167 375.331 210.1C376.331 211 377.548 211.45 378.981 211.45C381.115 211.45 382.598 210.55 383.431 208.75H392.531C392.065 210.583 391.215 212.233 389.981 213.7C388.781 215.167 387.265 216.317 385.431 217.15C383.598 217.983 381.548 218.4 379.281 218.4C376.548 218.4 374.115 217.817 371.981 216.65C369.848 215.483 368.181 213.817 366.981 211.65C365.781 209.483 365.181 206.95 365.181 204.05C365.181 201.15 365.765 198.617 366.931 196.45C368.131 194.283 369.798 192.617 371.931 191.45C374.065 190.283 376.515 189.7 379.281 189.7C381.981 189.7 384.381 190.267 386.481 191.4C388.581 192.533 390.215 194.15 391.381 196.25C392.581 198.35 393.181 200.8 393.181 203.6ZM384.431 201.35C384.431 199.883 383.931 198.717 382.931 197.85C381.931 196.983 380.681 196.55 379.181 196.55C377.748 196.55 376.531 196.967 375.531 197.8C374.565 198.633 373.965 199.817 373.731 201.35H384.431ZM414.692 189.8C417.958 189.8 420.558 190.867 422.492 193C424.458 195.1 425.442 198 425.442 201.7V218H416.942V202.85C416.942 200.983 416.458 199.533 415.492 198.5C414.525 197.467 413.225 196.95 411.592 196.95C409.958 196.95 408.658 197.467 407.692 198.5C406.725 199.533 406.242 200.983 406.242 202.85V218H397.692V190.1H406.242V193.8C407.108 192.567 408.275 191.6 409.742 190.9C411.208 190.167 412.858 189.8 414.692 189.8ZM429.683 204.05C429.683 201.15 430.267 198.617 431.433 196.45C432.633 194.283 434.283 192.617 436.383 191.45C438.517 190.283 440.95 189.7 443.683 189.7C447.183 189.7 450.1 190.617 452.433 192.45C454.8 194.283 456.35 196.867 457.083 200.2H447.983C447.217 198.067 445.733 197 443.533 197C441.967 197 440.717 197.617 439.783 198.85C438.85 200.05 438.383 201.783 438.383 204.05C438.383 206.317 438.85 208.067 439.783 209.3C440.717 210.5 441.967 211.1 443.533 211.1C445.733 211.1 447.217 210.033 447.983 207.9H457.083C456.35 211.167 454.8 213.733 452.433 215.6C450.067 217.467 447.15 218.4 443.683 218.4C440.95 218.4 438.517 217.817 436.383 216.65C434.283 215.483 432.633 213.817 431.433 211.65C430.267 209.483 429.683 206.95 429.683 204.05ZM490.157 190.1L472.657 231.25H463.457L469.857 217.05L458.507 190.1H468.057L474.507 207.55L480.907 190.1H490.157Z" fill="white"/>
<path d="M235 238H545" stroke="#8A08F0" stroke-width="13" stroke-linecap="round"/>
<path d="M175.749 330.536V334.92H166.597V339.656H173.445V343.912H166.597V353H161.125V330.536H175.749ZM184.097 329.32V353H178.625V329.32H184.097ZM205.694 335.144V353H200.222V350.568C199.667 351.357 198.91 351.997 197.95 352.488C197.011 352.957 195.966 353.192 194.814 353.192C193.449 353.192 192.243 352.893 191.198 352.296C190.153 351.677 189.342 350.792 188.766 349.64C188.19 348.488 187.902 347.133 187.902 345.576V335.144H193.342V344.84C193.342 346.035 193.651 346.963 194.27 347.624C194.889 348.285 195.721 348.616 196.766 348.616C197.833 348.616 198.675 348.285 199.294 347.624C199.913 346.963 200.222 346.035 200.222 344.84V335.144H205.694ZM226.457 343.784C226.457 344.296 226.425 344.829 226.361 345.384H213.977C214.062 346.493 214.414 347.347 215.033 347.944C215.673 348.52 216.451 348.808 217.369 348.808C218.734 348.808 219.683 348.232 220.217 347.08H226.041C225.742 348.253 225.198 349.309 224.409 350.248C223.641 351.187 222.67 351.923 221.497 352.456C220.323 352.989 219.011 353.256 217.561 353.256C215.811 353.256 214.254 352.883 212.889 352.136C211.523 351.389 210.457 350.323 209.689 348.936C208.921 347.549 208.537 345.928 208.537 344.072C208.537 342.216 208.91 340.595 209.657 339.208C210.425 337.821 211.491 336.755 212.857 336.008C214.222 335.261 215.79 334.888 217.561 334.888C219.289 334.888 220.825 335.251 222.169 335.976C223.513 336.701 224.558 337.736 225.305 339.08C226.073 340.424 226.457 341.992 226.457 343.784ZM220.857 342.344C220.857 341.405 220.537 340.659 219.897 340.104C219.257 339.549 218.457 339.272 217.497 339.272C216.579 339.272 215.801 339.539 215.161 340.072C214.542 340.605 214.158 341.363 214.009 342.344H220.857ZM240.223 334.952C242.314 334.952 243.978 335.635 245.215 337C246.474 338.344 247.103 340.2 247.103 342.568V353H241.663V343.304C241.663 342.109 241.354 341.181 240.735 340.52C240.117 339.859 239.285 339.528 238.239 339.528C237.194 339.528 236.362 339.859 235.743 340.52C235.125 341.181 234.815 342.109 234.815 343.304V353H229.343V335.144H234.815V337.512C235.37 336.723 236.117 336.104 237.055 335.656C237.994 335.187 239.05 334.952 240.223 334.952ZM249.818 344.072C249.818 342.216 250.191 340.595 250.938 339.208C251.706 337.821 252.762 336.755 254.106 336.008C255.471 335.261 257.029 334.888 258.778 334.888C261.018 334.888 262.885 335.475 264.378 336.648C265.893 337.821 266.885 339.475 267.354 341.608H261.53C261.039 340.243 260.09 339.56 258.682 339.56C257.679 339.56 256.879 339.955 256.282 340.744C255.685 341.512 255.386 342.621 255.386 344.072C255.386 345.523 255.685 346.643 256.282 347.432C256.879 348.2 257.679 348.584 258.682 348.584C260.09 348.584 261.039 347.901 261.53 346.536H267.354C266.885 348.627 265.893 350.269 264.378 351.464C262.863 352.659 260.997 353.256 258.778 353.256C257.029 353.256 255.471 352.883 254.106 352.136C252.762 351.389 251.706 350.323 250.938 348.936C250.191 347.549 249.818 345.928 249.818 344.072ZM288.521 335.144L277.321 361.48H271.433L275.529 352.392L268.265 335.144H274.377L278.505 346.312L282.601 335.144H288.521ZM305.409 353.256C303.66 353.256 302.081 352.883 300.673 352.136C299.286 351.389 298.188 350.323 297.377 348.936C296.588 347.549 296.193 345.928 296.193 344.072C296.193 342.237 296.598 340.627 297.409 339.24C298.22 337.832 299.329 336.755 300.737 336.008C302.145 335.261 303.724 334.888 305.473 334.888C307.222 334.888 308.801 335.261 310.209 336.008C311.617 336.755 312.726 337.832 313.537 339.24C314.348 340.627 314.753 342.237 314.753 344.072C314.753 345.907 314.337 347.528 313.505 348.936C312.694 350.323 311.574 351.389 310.145 352.136C308.737 352.883 307.158 353.256 305.409 353.256ZM305.409 348.52C306.454 348.52 307.34 348.136 308.065 347.368C308.812 346.6 309.185 345.501 309.185 344.072C309.185 342.643 308.822 341.544 308.097 340.776C307.393 340.008 306.518 339.624 305.473 339.624C304.406 339.624 303.521 340.008 302.817 340.776C302.113 341.523 301.761 342.621 301.761 344.072C301.761 345.501 302.102 346.6 302.785 347.368C303.489 348.136 304.364 348.52 305.409 348.52ZM326.616 339.688H323.672V353H318.2V339.688H316.216V335.144H318.2V334.632C318.2 332.435 318.829 330.771 320.088 329.64C321.347 328.488 323.192 327.912 325.624 327.912C326.029 327.912 326.328 327.923 326.52 327.944V332.584C325.475 332.52 324.739 332.669 324.312 333.032C323.885 333.395 323.672 334.045 323.672 334.984V335.144H326.616V339.688ZM353.088 337.768C353.088 339.069 352.79 340.264 352.192 341.352C351.595 342.419 350.678 343.283 349.44 343.944C348.203 344.605 346.667 344.936 344.832 344.936H341.44V353H335.968V330.536H344.832C346.624 330.536 348.139 330.845 349.376 331.464C350.614 332.083 351.542 332.936 352.16 334.024C352.779 335.112 353.088 336.36 353.088 337.768ZM344.416 340.584C345.462 340.584 346.24 340.339 346.752 339.848C347.264 339.357 347.52 338.664 347.52 337.768C347.52 336.872 347.264 336.179 346.752 335.688C346.24 335.197 345.462 334.952 344.416 334.952H341.44V340.584H344.416ZM374.177 335.144L362.977 361.48H357.089L361.185 352.392L353.921 335.144H360.033L364.161 346.312L368.257 335.144H374.177ZM386.108 348.36V353H383.324C381.34 353 379.793 352.52 378.684 351.56C377.575 350.579 377.02 348.989 377.02 346.792V339.688H374.844V335.144H377.02V330.792H382.492V335.144H386.076V339.688H382.492V346.856C382.492 347.389 382.62 347.773 382.876 348.008C383.132 348.243 383.559 348.36 384.156 348.36H386.108ZM400.132 334.952C402.18 334.952 403.823 335.635 405.06 337C406.297 338.344 406.916 340.2 406.916 342.568V353H401.476V343.304C401.476 342.109 401.167 341.181 400.548 340.52C399.929 339.859 399.097 339.528 398.052 339.528C397.007 339.528 396.175 339.859 395.556 340.52C394.937 341.181 394.628 342.109 394.628 343.304V353H389.156V329.32H394.628V337.544C395.183 336.755 395.94 336.125 396.9 335.656C397.86 335.187 398.937 334.952 400.132 334.952ZM418.846 353.256C417.097 353.256 415.518 352.883 414.11 352.136C412.724 351.389 411.625 350.323 410.814 348.936C410.025 347.549 409.63 345.928 409.63 344.072C409.63 342.237 410.036 340.627 410.846 339.24C411.657 337.832 412.766 336.755 414.174 336.008C415.582 335.261 417.161 334.888 418.91 334.888C420.66 334.888 422.238 335.261 423.646 336.008C425.054 336.755 426.164 337.832 426.974 339.24C427.785 340.627 428.19 342.237 428.19 344.072C428.19 345.907 427.774 347.528 426.942 348.936C426.132 350.323 425.012 351.389 423.582 352.136C422.174 352.883 420.596 353.256 418.846 353.256ZM418.846 348.52C419.892 348.52 420.777 348.136 421.502 347.368C422.249 346.6 422.622 345.501 422.622 344.072C422.622 342.643 422.26 341.544 421.534 340.776C420.83 340.008 419.956 339.624 418.91 339.624C417.844 339.624 416.958 340.008 416.254 340.776C415.55 341.523 415.198 342.621 415.198 344.072C415.198 345.501 415.54 346.6 416.222 347.368C416.926 348.136 417.801 348.52 418.846 348.52ZM441.973 334.952C444.064 334.952 445.728 335.635 446.965 337C448.224 338.344 448.853 340.2 448.853 342.568V353H443.413V343.304C443.413 342.109 443.104 341.181 442.485 340.52C441.867 339.859 441.035 339.528 439.989 339.528C438.944 339.528 438.112 339.859 437.493 340.52C436.875 341.181 436.565 342.109 436.565 343.304V353H431.093V335.144H436.565V337.512C437.12 336.723 437.867 336.104 438.805 335.656C439.744 335.187 440.8 334.952 441.973 334.952ZM462.189 333.288C461.229 333.288 460.44 333.011 459.821 332.456C459.224 331.88 458.925 331.176 458.925 330.344C458.925 329.491 459.224 328.787 459.821 328.232C460.44 327.656 461.229 327.368 462.189 327.368C463.128 327.368 463.896 327.656 464.493 328.232C465.112 328.787 465.421 329.491 465.421 330.344C465.421 331.176 465.112 331.88 464.493 332.456C463.896 333.011 463.128 333.288 462.189 333.288ZM464.909 335.144V353H459.437V335.144H464.909ZM476.139 353.256C474.581 353.256 473.195 352.989 471.979 352.456C470.763 351.923 469.803 351.197 469.099 350.28C468.395 349.341 468 348.296 467.915 347.144H473.323C473.387 347.763 473.675 348.264 474.187 348.648C474.699 349.032 475.328 349.224 476.075 349.224C476.757 349.224 477.28 349.096 477.643 348.84C478.027 348.563 478.219 348.211 478.219 347.784C478.219 347.272 477.952 346.899 477.419 346.664C476.885 346.408 476.021 346.131 474.827 345.832C473.547 345.533 472.48 345.224 471.627 344.904C470.773 344.563 470.037 344.04 469.419 343.336C468.8 342.611 468.491 341.64 468.491 340.424C468.491 339.4 468.768 338.472 469.323 337.64C469.899 336.787 470.731 336.115 471.819 335.624C472.928 335.133 474.24 334.888 475.755 334.888C477.995 334.888 479.755 335.443 481.035 336.552C482.336 337.661 483.083 339.133 483.275 340.968H478.219C478.133 340.349 477.856 339.859 477.387 339.496C476.939 339.133 476.341 338.952 475.595 338.952C474.955 338.952 474.464 339.08 474.123 339.336C473.781 339.571 473.611 339.901 473.611 340.328C473.611 340.84 473.877 341.224 474.411 341.48C474.965 341.736 475.819 341.992 476.971 342.248C478.293 342.589 479.371 342.931 480.203 343.272C481.035 343.592 481.76 344.125 482.379 344.872C483.019 345.597 483.349 346.579 483.371 347.816C483.371 348.861 483.072 349.8 482.475 350.632C481.899 351.443 481.056 352.083 479.947 352.552C478.859 353.021 477.589 353.256 476.139 353.256ZM492.412 344.04C492.412 342.205 492.753 340.595 493.436 339.208C494.14 337.821 495.089 336.755 496.284 336.008C497.478 335.261 498.812 334.888 500.284 334.888C501.542 334.888 502.641 335.144 503.58 335.656C504.54 336.168 505.276 336.84 505.788 337.672V335.144H511.26V353H505.788V350.472C505.254 351.304 504.508 351.976 503.548 352.488C502.609 353 501.51 353.256 500.252 353.256C498.801 353.256 497.478 352.883 496.284 352.136C495.089 351.368 494.14 350.291 493.436 348.904C492.753 347.496 492.412 345.875 492.412 344.04ZM505.788 344.072C505.788 342.707 505.404 341.629 504.636 340.84C503.889 340.051 502.972 339.656 501.884 339.656C500.796 339.656 499.868 340.051 499.1 340.84C498.353 341.608 497.98 342.675 497.98 344.04C497.98 345.405 498.353 346.493 499.1 347.304C499.868 348.093 500.796 348.488 501.884 348.488C502.972 348.488 503.889 348.093 504.636 347.304C505.404 346.515 505.788 345.437 505.788 344.072ZM532.976 334.952C535.024 334.952 536.666 335.635 537.904 337C539.141 338.344 539.76 340.2 539.76 342.568V353H534.32V343.304C534.32 342.109 534.01 341.181 533.392 340.52C532.773 339.859 531.941 339.528 530.896 339.528C529.85 339.528 529.018 339.859 528.4 340.52C527.781 341.181 527.472 342.109 527.472 343.304V353H522V329.32H527.472V337.544C528.026 336.755 528.784 336.125 529.744 335.656C530.704 335.187 531.781 334.952 532.976 334.952ZM546.314 333.288C545.354 333.288 544.565 333.011 543.946 332.456C543.349 331.88 543.05 331.176 543.05 330.344C543.05 329.491 543.349 328.787 543.946 328.232C544.565 327.656 545.354 327.368 546.314 327.368C547.253 327.368 548.021 327.656 548.618 328.232C549.237 328.787 549.546 329.491 549.546 330.344C549.546 331.176 549.237 331.88 548.618 332.456C548.021 333.011 547.253 333.288 546.314 333.288ZM549.034 335.144V353H543.562V335.144H549.034ZM559.784 334.888C561.042 334.888 562.141 335.144 563.08 335.656C564.04 336.168 564.776 336.84 565.288 337.672V335.144H570.76V352.968C570.76 354.611 570.429 356.093 569.768 357.416C569.128 358.76 568.136 359.827 566.792 360.616C565.469 361.405 563.816 361.8 561.832 361.8C559.186 361.8 557.042 361.171 555.4 359.912C553.757 358.675 552.818 356.989 552.584 354.856H557.992C558.162 355.539 558.568 356.072 559.208 356.456C559.848 356.861 560.637 357.064 561.576 357.064C562.706 357.064 563.602 356.733 564.264 356.072C564.946 355.432 565.288 354.397 565.288 352.968V350.44C564.754 351.272 564.018 351.955 563.08 352.488C562.141 353 561.042 353.256 559.784 353.256C558.312 353.256 556.978 352.883 555.784 352.136C554.589 351.368 553.64 350.291 552.936 348.904C552.253 347.496 551.912 345.875 551.912 344.04C551.912 342.205 552.253 340.595 552.936 339.208C553.64 337.821 554.589 336.755 555.784 336.008C556.978 335.261 558.312 334.888 559.784 334.888ZM565.288 344.072C565.288 342.707 564.904 341.629 564.136 340.84C563.389 340.051 562.472 339.656 561.384 339.656C560.296 339.656 559.368 340.051 558.6 340.84C557.853 341.608 557.48 342.675 557.48 344.04C557.48 345.405 557.853 346.493 558.6 347.304C559.368 348.093 560.296 348.488 561.384 348.488C562.472 348.488 563.389 348.093 564.136 347.304C564.904 346.515 565.288 345.437 565.288 344.072ZM585.694 334.952C587.742 334.952 589.385 335.635 590.622 337C591.86 338.344 592.478 340.2 592.478 342.568V353H587.038V343.304C587.038 342.109 586.729 341.181 586.11 340.52C585.492 339.859 584.66 339.528 583.614 339.528C582.569 339.528 581.737 339.859 581.118 340.52C580.5 341.181 580.19 342.109 580.19 343.304V353H574.718V329.32H580.19V337.544C580.745 336.755 581.502 336.125 582.462 335.656C583.422 335.187 584.5 334.952 585.694 334.952ZM610.041 339.496V344.04H595.961V339.496H610.041ZM267.253 377.32V401H261.781V377.32H267.253ZM288.05 391.784C288.05 392.296 288.018 392.829 287.954 393.384H275.57C275.656 394.493 276.008 395.347 276.626 395.944C277.266 396.52 278.045 396.808 278.962 396.808C280.328 396.808 281.277 396.232 281.81 395.08H287.634C287.336 396.253 286.792 397.309 286.002 398.248C285.234 399.187 284.264 399.923 283.09 400.456C281.917 400.989 280.605 401.256 279.154 401.256C277.405 401.256 275.848 400.883 274.482 400.136C273.117 399.389 272.05 398.323 271.282 396.936C270.514 395.549 270.13 393.928 270.13 392.072C270.13 390.216 270.504 388.595 271.25 387.208C272.018 385.821 273.085 384.755 274.45 384.008C275.816 383.261 277.384 382.888 279.154 382.888C280.882 382.888 282.418 383.251 283.762 383.976C285.106 384.701 286.152 385.736 286.898 387.08C287.666 388.424 288.05 389.992 288.05 391.784ZM282.45 390.344C282.45 389.405 282.13 388.659 281.49 388.104C280.85 387.549 280.05 387.272 279.09 387.272C278.173 387.272 277.394 387.539 276.754 388.072C276.136 388.605 275.752 389.363 275.602 390.344H282.45ZM298.969 395.88L302.841 383.144H308.665L302.329 401H295.577L289.241 383.144H295.097L298.969 395.88ZM327.8 391.784C327.8 392.296 327.768 392.829 327.704 393.384H315.32C315.406 394.493 315.758 395.347 316.376 395.944C317.016 396.52 317.795 396.808 318.712 396.808C320.078 396.808 321.027 396.232 321.56 395.08H327.384C327.086 396.253 326.542 397.309 325.752 398.248C324.984 399.187 324.014 399.923 322.84 400.456C321.667 400.989 320.355 401.256 318.904 401.256C317.155 401.256 315.598 400.883 314.232 400.136C312.867 399.389 311.8 398.323 311.032 396.936C310.264 395.549 309.88 393.928 309.88 392.072C309.88 390.216 310.254 388.595 311 387.208C311.768 385.821 312.835 384.755 314.2 384.008C315.566 383.261 317.134 382.888 318.904 382.888C320.632 382.888 322.168 383.251 323.512 383.976C324.856 384.701 325.902 385.736 326.648 387.08C327.416 388.424 327.8 389.992 327.8 391.784ZM322.2 390.344C322.2 389.405 321.88 388.659 321.24 388.104C320.6 387.549 319.8 387.272 318.84 387.272C317.923 387.272 317.144 387.539 316.504 388.072C315.886 388.605 315.502 389.363 315.352 390.344H322.2ZM336.159 377.32V401H330.687V377.32H336.159ZM372.538 383.144L367.706 401H361.658L358.842 389.416L355.93 401H349.914L345.05 383.144H350.522L353.05 395.912L356.058 383.144H361.85L364.89 395.848L367.386 383.144H372.538ZM373.537 392.04C373.537 390.205 373.878 388.595 374.561 387.208C375.265 385.821 376.214 384.755 377.409 384.008C378.603 383.261 379.937 382.888 381.409 382.888C382.667 382.888 383.766 383.144 384.705 383.656C385.665 384.168 386.401 384.84 386.913 385.672V383.144H392.385V401H386.913V398.472C386.379 399.304 385.633 399.976 384.673 400.488C383.734 401 382.635 401.256 381.377 401.256C379.926 401.256 378.603 400.883 377.409 400.136C376.214 399.368 375.265 398.291 374.561 396.904C373.878 395.496 373.537 393.875 373.537 392.04ZM386.913 392.072C386.913 390.707 386.529 389.629 385.761 388.84C385.014 388.051 384.097 387.656 383.009 387.656C381.921 387.656 380.993 388.051 380.225 388.84C379.478 389.608 379.105 390.675 379.105 392.04C379.105 393.405 379.478 394.493 380.225 395.304C380.993 396.093 381.921 396.488 383.009 396.488C384.097 396.488 385.014 396.093 385.761 395.304C386.529 394.515 386.913 393.437 386.913 392.072ZM403.607 401.256C402.05 401.256 400.663 400.989 399.447 400.456C398.231 399.923 397.271 399.197 396.567 398.28C395.863 397.341 395.469 396.296 395.383 395.144H400.791C400.855 395.763 401.143 396.264 401.655 396.648C402.167 397.032 402.797 397.224 403.543 397.224C404.226 397.224 404.749 397.096 405.111 396.84C405.495 396.563 405.687 396.211 405.687 395.784C405.687 395.272 405.421 394.899 404.887 394.664C404.354 394.408 403.49 394.131 402.295 393.832C401.015 393.533 399.949 393.224 399.095 392.904C398.242 392.563 397.506 392.04 396.887 391.336C396.269 390.611 395.959 389.64 395.959 388.424C395.959 387.4 396.237 386.472 396.791 385.64C397.367 384.787 398.199 384.115 399.287 383.624C400.397 383.133 401.709 382.888 403.223 382.888C405.463 382.888 407.223 383.443 408.503 384.552C409.805 385.661 410.551 387.133 410.743 388.968H405.687C405.602 388.349 405.325 387.859 404.855 387.496C404.407 387.133 403.81 386.952 403.063 386.952C402.423 386.952 401.933 387.08 401.591 387.336C401.25 387.571 401.079 387.901 401.079 388.328C401.079 388.84 401.346 389.224 401.879 389.48C402.434 389.736 403.287 389.992 404.439 390.248C405.762 390.589 406.839 390.931 407.671 391.272C408.503 391.592 409.229 392.125 409.847 392.872C410.487 393.597 410.818 394.579 410.839 395.816C410.839 396.861 410.541 397.8 409.943 398.632C409.367 399.443 408.525 400.083 407.415 400.552C406.327 401.021 405.058 401.256 403.607 401.256ZM427.752 382.888C429.011 382.888 430.11 383.144 431.048 383.656C432.008 384.168 432.744 384.84 433.256 385.672V383.144H438.728V400.968C438.728 402.611 438.398 404.093 437.736 405.416C437.096 406.76 436.104 407.827 434.76 408.616C433.438 409.405 431.784 409.8 429.8 409.8C427.155 409.8 425.011 409.171 423.368 407.912C421.726 406.675 420.787 404.989 420.552 402.856H425.96C426.131 403.539 426.536 404.072 427.176 404.456C427.816 404.861 428.606 405.064 429.544 405.064C430.675 405.064 431.571 404.733 432.232 404.072C432.915 403.432 433.256 402.397 433.256 400.968V398.44C432.723 399.272 431.987 399.955 431.048 400.488C430.11 401 429.011 401.256 427.752 401.256C426.28 401.256 424.947 400.883 423.752 400.136C422.558 399.368 421.608 398.291 420.904 396.904C420.222 395.496 419.88 393.875 419.88 392.04C419.88 390.205 420.222 388.595 420.904 387.208C421.608 385.821 422.558 384.755 423.752 384.008C424.947 383.261 426.28 382.888 427.752 382.888ZM433.256 392.072C433.256 390.707 432.872 389.629 432.104 388.84C431.358 388.051 430.44 387.656 429.352 387.656C428.264 387.656 427.336 388.051 426.568 388.84C425.822 389.608 425.448 390.675 425.448 392.04C425.448 393.405 425.822 394.493 426.568 395.304C427.336 396.093 428.264 396.488 429.352 396.488C430.44 396.488 431.358 396.093 432.104 395.304C432.872 394.515 433.256 393.437 433.256 392.072ZM450.815 401.256C449.066 401.256 447.487 400.883 446.079 400.136C444.692 399.389 443.594 398.323 442.783 396.936C441.994 395.549 441.599 393.928 441.599 392.072C441.599 390.237 442.004 388.627 442.815 387.24C443.626 385.832 444.735 384.755 446.143 384.008C447.551 383.261 449.13 382.888 450.879 382.888C452.628 382.888 454.207 383.261 455.615 384.008C457.023 384.755 458.132 385.832 458.943 387.24C459.754 388.627 460.159 390.237 460.159 392.072C460.159 393.907 459.743 395.528 458.911 396.936C458.1 398.323 456.98 399.389 455.551 400.136C454.143 400.883 452.564 401.256 450.815 401.256ZM450.815 396.52C451.86 396.52 452.746 396.136 453.471 395.368C454.218 394.6 454.591 393.501 454.591 392.072C454.591 390.643 454.228 389.544 453.503 388.776C452.799 388.008 451.924 387.624 450.879 387.624C449.812 387.624 448.927 388.008 448.223 388.776C447.519 389.523 447.167 390.621 447.167 392.072C447.167 393.501 447.508 394.6 448.191 395.368C448.895 396.136 449.77 396.52 450.815 396.52ZM471.19 401.256C469.441 401.256 467.862 400.883 466.454 400.136C465.067 399.389 463.969 398.323 463.158 396.936C462.369 395.549 461.974 393.928 461.974 392.072C461.974 390.237 462.379 388.627 463.19 387.24C464.001 385.832 465.11 384.755 466.518 384.008C467.926 383.261 469.505 382.888 471.254 382.888C473.003 382.888 474.582 383.261 475.99 384.008C477.398 384.755 478.507 385.832 479.318 387.24C480.129 388.627 480.534 390.237 480.534 392.072C480.534 393.907 480.118 395.528 479.286 396.936C478.475 398.323 477.355 399.389 475.926 400.136C474.518 400.883 472.939 401.256 471.19 401.256ZM471.19 396.52C472.235 396.52 473.121 396.136 473.846 395.368C474.593 394.6 474.966 393.501 474.966 392.072C474.966 390.643 474.603 389.544 473.878 388.776C473.174 388.008 472.299 387.624 471.254 387.624C470.187 387.624 469.302 388.008 468.598 388.776C467.894 389.523 467.542 390.621 467.542 392.072C467.542 393.501 467.883 394.6 468.566 395.368C469.27 396.136 470.145 396.52 471.19 396.52ZM482.349 392.04C482.349 390.205 482.69 388.595 483.373 387.208C484.077 385.821 485.026 384.755 486.221 384.008C487.416 383.261 488.749 382.888 490.221 382.888C491.394 382.888 492.461 383.133 493.421 383.624C494.402 384.115 495.17 384.776 495.725 385.608V377.32H501.197V401H495.725V398.44C495.213 399.293 494.477 399.976 493.517 400.488C492.578 401 491.48 401.256 490.221 401.256C488.749 401.256 487.416 400.883 486.221 400.136C485.026 399.368 484.077 398.291 483.373 396.904C482.69 395.496 482.349 393.875 482.349 392.04ZM495.725 392.072C495.725 390.707 495.341 389.629 494.573 388.84C493.826 388.051 492.909 387.656 491.821 387.656C490.733 387.656 489.805 388.051 489.037 388.84C488.29 389.608 487.917 390.675 487.917 392.04C487.917 393.405 488.29 394.493 489.037 395.304C489.805 396.093 490.733 396.488 491.821 396.488C492.909 396.488 493.826 396.093 494.573 395.304C495.341 394.515 495.725 393.437 495.725 392.072ZM507.716 401.256C506.756 401.256 505.967 400.979 505.348 400.424C504.751 399.848 504.452 399.144 504.452 398.312C504.452 397.459 504.751 396.744 505.348 396.168C505.967 395.592 506.756 395.304 507.716 395.304C508.655 395.304 509.423 395.592 510.02 396.168C510.639 396.744 510.948 397.459 510.948 398.312C510.948 399.144 510.639 399.848 510.02 400.424C509.423 400.979 508.655 401.256 507.716 401.256Z" fill="white"/>
<rect x="274" y="523" width="232" height="66" rx="33" fill="#8A08F0"/>
<path d="M314.055 567L306.503 557.08V567H301.031V544.536H306.503V554.392L313.991 544.536H320.423L311.719 555.544L320.743 567H314.055ZM334.223 548.952C336.314 548.952 337.978 549.635 339.215 551C340.474 552.344 341.103 554.2 341.103 556.568V567H335.663V557.304C335.663 556.109 335.354 555.181 334.735 554.52C334.117 553.859 333.285 553.528 332.239 553.528C331.194 553.528 330.362 553.859 329.743 554.52C329.125 555.181 328.815 556.109 328.815 557.304V567H323.343V549.144H328.815V551.512C329.37 550.723 330.117 550.104 331.055 549.656C331.994 549.187 333.05 548.952 334.223 548.952ZM353.034 567.256C351.285 567.256 349.706 566.883 348.298 566.136C346.911 565.389 345.813 564.323 345.002 562.936C344.213 561.549 343.818 559.928 343.818 558.072C343.818 556.237 344.223 554.627 345.034 553.24C345.845 551.832 346.954 550.755 348.362 550.008C349.77 549.261 351.349 548.888 353.098 548.888C354.847 548.888 356.426 549.261 357.834 550.008C359.242 550.755 360.351 551.832 361.162 553.24C361.973 554.627 362.378 556.237 362.378 558.072C362.378 559.907 361.962 561.528 361.13 562.936C360.319 564.323 359.199 565.389 357.77 566.136C356.362 566.883 354.783 567.256 353.034 567.256ZM353.034 562.52C354.079 562.52 354.965 562.136 355.69 561.368C356.437 560.6 356.81 559.501 356.81 558.072C356.81 556.643 356.447 555.544 355.722 554.776C355.018 554.008 354.143 553.624 353.098 553.624C352.031 553.624 351.146 554.008 350.442 554.776C349.738 555.523 349.386 556.621 349.386 558.072C349.386 559.501 349.727 560.6 350.41 561.368C351.114 562.136 351.989 562.52 353.034 562.52ZM390.913 549.144L386.081 567H380.033L377.217 555.416L374.305 567H368.289L363.425 549.144H368.897L371.425 561.912L374.433 549.144H380.225L383.265 561.848L385.761 549.144H390.913ZM425.221 544.536V567H419.749V553.528L414.725 567H410.309L405.253 553.496V567H399.781V544.536H406.245L412.549 560.088L418.789 544.536H425.221ZM437.284 567.256C435.535 567.256 433.956 566.883 432.548 566.136C431.161 565.389 430.063 564.323 429.252 562.936C428.463 561.549 428.068 559.928 428.068 558.072C428.068 556.237 428.473 554.627 429.284 553.24C430.095 551.832 431.204 550.755 432.612 550.008C434.02 549.261 435.599 548.888 437.348 548.888C439.097 548.888 440.676 549.261 442.084 550.008C443.492 550.755 444.601 551.832 445.412 553.24C446.223 554.627 446.628 556.237 446.628 558.072C446.628 559.907 446.212 561.528 445.38 562.936C444.569 564.323 443.449 565.389 442.02 566.136C440.612 566.883 439.033 567.256 437.284 567.256ZM437.284 562.52C438.329 562.52 439.215 562.136 439.94 561.368C440.687 560.6 441.06 559.501 441.06 558.072C441.06 556.643 440.697 555.544 439.972 554.776C439.268 554.008 438.393 553.624 437.348 553.624C436.281 553.624 435.396 554.008 434.692 554.776C433.988 555.523 433.636 556.621 433.636 558.072C433.636 559.501 433.977 560.6 434.66 561.368C435.364 562.136 436.239 562.52 437.284 562.52ZM455.003 552.12C455.643 551.139 456.443 550.371 457.403 549.816C458.363 549.24 459.43 548.952 460.603 548.952V554.744H459.099C457.734 554.744 456.71 555.043 456.027 555.64C455.344 556.216 455.003 557.24 455.003 558.712V567H449.531V549.144H455.003V552.12ZM480.05 557.784C480.05 558.296 480.018 558.829 479.954 559.384H467.57C467.656 560.493 468.008 561.347 468.626 561.944C469.266 562.52 470.045 562.808 470.962 562.808C472.328 562.808 473.277 562.232 473.81 561.08H479.634C479.336 562.253 478.792 563.309 478.002 564.248C477.234 565.187 476.264 565.923 475.09 566.456C473.917 566.989 472.605 567.256 471.154 567.256C469.405 567.256 467.848 566.883 466.482 566.136C465.117 565.389 464.05 564.323 463.282 562.936C462.514 561.549 462.13 559.928 462.13 558.072C462.13 556.216 462.504 554.595 463.25 553.208C464.018 551.821 465.085 550.755 466.45 550.008C467.816 549.261 469.384 548.888 471.154 548.888C472.882 548.888 474.418 549.251 475.762 549.976C477.106 550.701 478.152 551.736 478.898 553.08C479.666 554.424 480.05 555.992 480.05 557.784ZM474.45 556.344C474.45 555.405 474.13 554.659 473.49 554.104C472.85 553.549 472.05 553.272 471.09 553.272C470.173 553.272 469.394 553.539 468.754 554.072C468.136 554.605 467.752 555.363 467.602 556.344H474.45Z" fill="white"/>
<path d="M390 762L398 770L390 778L382 770L390 762Z" fill="#8A08F0"/>
</svg>
