<svg width="74" height="110" viewBox="0 0 74 110" fill="none" xmlns="http://www.w3.org/2000/svg">
<path d="M1.395 33.02C1.78167 22.6767 5.165 14.7017 11.545 9.095C17.925 3.48833 26.5767 0.684994 37.5 0.684994C44.75 0.684994 50.9367 1.94166 56.06 4.455C61.28 6.96833 65.195 10.4 67.805 14.75C70.5117 19.1 71.865 23.9817 71.865 29.395C71.865 35.775 70.27 40.995 67.08 45.055C63.89 49.0183 60.1683 51.725 55.915 53.175V53.755C61.425 55.5917 65.775 58.6367 68.965 62.89C72.155 67.1433 73.75 72.605 73.75 79.275C73.75 85.2683 72.3483 90.585 69.545 95.225C66.8383 99.7683 62.8267 103.345 57.51 105.955C52.29 108.565 46.055 109.87 38.805 109.87C27.205 109.87 17.925 107.018 10.965 101.315C4.10167 95.6117 0.476667 87.0083 0.0900005 75.505H24.16C24.2567 79.7583 25.465 83.1417 27.785 85.655C30.105 88.0717 33.4883 89.28 37.935 89.28C41.705 89.28 44.605 88.2167 46.635 86.09C48.7617 83.8667 49.825 80.9667 49.825 77.39C49.825 72.75 48.3267 69.415 45.33 67.385C42.43 65.2583 37.7417 64.195 31.265 64.195H26.625V44.04H31.265C36.195 44.04 40.1583 43.2183 43.155 41.575C46.2483 39.835 47.795 36.79 47.795 32.44C47.795 28.96 46.8283 26.2533 44.895 24.32C42.9617 22.3867 40.3033 21.42 36.92 21.42C33.2467 21.42 30.4917 22.5317 28.655 24.755C26.915 26.9783 25.9 29.7333 25.61 33.02H1.395Z" fill="white"/>
</svg>
