<svg width="358" height="185" viewBox="0 0 358 185" fill="none" xmlns="http://www.w3.org/2000/svg">
<path d="M0 92.5C0 70.6848 17.6848 53 39.5 53H213L173.5 92.5L213 132H39.5C17.6848 132 0 114.315 0 92.5V92.5Z" fill="url(#paint0_linear_21_4679)"/>
<path d="M182.192 92.5L265.5 9.19239L348.808 92.5L265.5 175.808L182.192 92.5Z" stroke="url(#paint1_linear_21_4679)" stroke-width="13"/>
<path d="M110.964 101.536H101.532L100.02 106H93.576L102.72 80.728H109.848L118.992 106H112.476L110.964 101.536ZM109.38 96.784L106.248 87.532L103.152 96.784H109.38ZM127.931 80.728V106H121.775V80.728H127.931Z" fill="white"/>
<path d="M265.5 50C259.241 50 254.167 55.0741 254.167 61.3334V72.6668H276.833V61.3334C276.833 55.0741 271.759 50 265.5 50Z" fill="#7A01D9"/>
<path d="M254.167 77.2002V88.5336C254.167 94.7927 259.241 99.867 265.5 99.867C271.759 99.867 276.833 94.7929 276.833 88.5336V77.2002H254.167Z" fill="#7A01D9"/>
<path d="M290.433 88.5332H283.633C283.633 98.532 275.499 106.667 265.5 106.667C255.501 106.667 247.366 98.532 247.366 88.5332H240.566C240.566 101.128 249.954 111.57 262.1 113.234V128.2H254.166V135H276.833V128.2H268.9V113.234C281.045 111.57 290.433 101.128 290.433 88.5332Z" fill="#7A01D9"/>
<defs>
<linearGradient id="paint0_linear_21_4679" x1="-1.49004e-06" y1="93" x2="189" y2="93" gradientUnits="userSpaceOnUse">
<stop stop-color="#8F00FF"/>
<stop offset="1" stop-color="#000001"/>
</linearGradient>
<linearGradient id="paint1_linear_21_4679" x1="178" y1="93" x2="433.5" y2="93" gradientUnits="userSpaceOnUse">
<stop stop-color="#8F00FF"/>
<stop offset="1"/>
</linearGradient>
</defs>
</svg>
