<svg width="780" height="780" viewBox="0 0 780 780" fill="none" xmlns="http://www.w3.org/2000/svg">
<path d="M9.19239 390L390 9.19239L770.808 390L390 770.808L9.19239 390Z" stroke="#8F00FF" stroke-width="13"/>
<path d="M321.95 211.8H308.85L306.75 218H297.8L310.5 182.9H320.4L333.1 218H324.05L321.95 211.8ZM319.75 205.2L315.4 192.35L311.1 205.2H319.75ZM335.265 204.05C335.265 201.15 335.849 198.617 337.015 196.45C338.215 194.283 339.865 192.617 341.965 191.45C344.099 190.283 346.532 189.7 349.265 189.7C352.765 189.7 355.682 190.617 358.015 192.45C360.382 194.283 361.932 196.867 362.665 200.2H353.565C352.799 198.067 351.315 197 349.115 197C347.549 197 346.299 197.617 345.365 198.85C344.432 200.05 343.965 201.783 343.965 204.05C343.965 206.317 344.432 208.067 345.365 209.3C346.299 210.5 347.549 211.1 349.115 211.1C351.315 211.1 352.799 210.033 353.565 207.9H362.665C361.932 211.167 360.382 213.733 358.015 215.6C355.649 217.467 352.732 218.4 349.265 218.4C346.532 218.4 344.099 217.817 341.965 216.65C339.865 215.483 338.215 213.817 337.015 211.65C335.849 209.483 335.265 206.95 335.265 204.05ZM365.539 204.05C365.539 201.15 366.122 198.617 367.289 196.45C368.489 194.283 370.139 192.617 372.239 191.45C374.372 190.283 376.805 189.7 379.539 189.7C383.039 189.7 385.955 190.617 388.289 192.45C390.655 194.283 392.205 196.867 392.939 200.2H383.839C383.072 198.067 381.589 197 379.389 197C377.822 197 376.572 197.617 375.639 198.85C374.705 200.05 374.239 201.783 374.239 204.05C374.239 206.317 374.705 208.067 375.639 209.3C376.572 210.5 377.822 211.1 379.389 211.1C381.589 211.1 383.072 210.033 383.839 207.9H392.939C392.205 211.167 390.655 213.733 388.289 215.6C385.922 217.467 383.005 218.4 379.539 218.4C376.805 218.4 374.372 217.817 372.239 216.65C370.139 215.483 368.489 213.817 367.289 211.65C366.122 209.483 365.539 206.95 365.539 204.05ZM423.812 203.6C423.812 204.4 423.762 205.233 423.662 206.1H404.312C404.445 207.833 404.995 209.167 405.962 210.1C406.962 211 408.179 211.45 409.612 211.45C411.745 211.45 413.229 210.55 414.062 208.75H423.162C422.695 210.583 421.845 212.233 420.612 213.7C419.412 215.167 417.895 216.317 416.062 217.15C414.229 217.983 412.179 218.4 409.912 218.4C407.179 218.4 404.745 217.817 402.612 216.65C400.479 215.483 398.812 213.817 397.612 211.65C396.412 209.483 395.812 206.95 395.812 204.05C395.812 201.15 396.395 198.617 397.562 196.45C398.762 194.283 400.429 192.617 402.562 191.45C404.695 190.283 407.145 189.7 409.912 189.7C412.612 189.7 415.012 190.267 417.112 191.4C419.212 192.533 420.845 194.15 422.012 196.25C423.212 198.35 423.812 200.8 423.812 203.6ZM415.062 201.35C415.062 199.883 414.562 198.717 413.562 197.85C412.562 196.983 411.312 196.55 409.812 196.55C408.379 196.55 407.162 196.967 406.162 197.8C405.195 198.633 404.595 199.817 404.362 201.35H415.062ZM445.323 189.8C448.589 189.8 451.189 190.867 453.123 193C455.089 195.1 456.073 198 456.073 201.7V218H447.573V202.85C447.573 200.983 447.089 199.533 446.123 198.5C445.156 197.467 443.856 196.95 442.223 196.95C440.589 196.95 439.289 197.467 438.323 198.5C437.356 199.533 436.873 200.983 436.873 202.85V218H428.323V190.1H436.873V193.8C437.739 192.567 438.906 191.6 440.373 190.9C441.839 190.167 443.489 189.8 445.323 189.8ZM477.564 210.75V218H473.214C470.114 218 467.697 217.25 465.964 215.75C464.231 214.217 463.364 211.733 463.364 208.3V197.2H459.964V190.1H463.364V183.3H471.914V190.1H477.514V197.2H471.914V208.4C471.914 209.233 472.114 209.833 472.514 210.2C472.914 210.567 473.581 210.75 474.514 210.75H477.564Z" fill="white"/>
<path d="M235 238H545" stroke="#8A08F0" stroke-width="13" stroke-linecap="round"/>
<path d="M175.999 349.032H167.615L166.271 353H160.543L168.671 330.536H175.007L183.135 353H177.343L175.999 349.032ZM174.591 344.808L171.807 336.584L169.055 344.808H174.591ZM184.521 344.072C184.521 342.216 184.894 340.595 185.641 339.208C186.409 337.821 187.465 336.755 188.809 336.008C190.174 335.261 191.732 334.888 193.481 334.888C195.721 334.888 197.588 335.475 199.081 336.648C200.596 337.821 201.588 339.475 202.057 341.608H196.233C195.742 340.243 194.793 339.56 193.385 339.56C192.382 339.56 191.582 339.955 190.985 340.744C190.388 341.512 190.089 342.621 190.089 344.072C190.089 345.523 190.388 346.643 190.985 347.432C191.582 348.2 192.382 348.584 193.385 348.584C194.793 348.584 195.742 347.901 196.233 346.536H202.057C201.588 348.627 200.596 350.269 199.081 351.464C197.566 352.659 195.7 353.256 193.481 353.256C191.732 353.256 190.174 352.883 188.809 352.136C187.465 351.389 186.409 350.323 185.641 348.936C184.894 347.549 184.521 345.928 184.521 344.072ZM203.896 344.072C203.896 342.216 204.269 340.595 205.016 339.208C205.784 337.821 206.84 336.755 208.184 336.008C209.549 335.261 211.107 334.888 212.856 334.888C215.096 334.888 216.963 335.475 218.456 336.648C219.971 337.821 220.963 339.475 221.432 341.608H215.608C215.117 340.243 214.168 339.56 212.76 339.56C211.757 339.56 210.957 339.955 210.36 340.744C209.763 341.512 209.464 342.621 209.464 344.072C209.464 345.523 209.763 346.643 210.36 347.432C210.957 348.2 211.757 348.584 212.76 348.584C214.168 348.584 215.117 347.901 215.608 346.536H221.432C220.963 348.627 219.971 350.269 218.456 351.464C216.941 352.659 215.075 353.256 212.856 353.256C211.107 353.256 209.549 352.883 208.184 352.136C206.84 351.389 205.784 350.323 205.016 348.936C204.269 347.549 203.896 345.928 203.896 344.072ZM241.191 343.784C241.191 344.296 241.159 344.829 241.095 345.384H228.711C228.796 346.493 229.148 347.347 229.767 347.944C230.407 348.52 231.186 348.808 232.103 348.808C233.468 348.808 234.418 348.232 234.951 347.08H240.775C240.476 348.253 239.932 349.309 239.143 350.248C238.375 351.187 237.404 351.923 236.231 352.456C235.058 352.989 233.746 353.256 232.295 353.256C230.546 353.256 228.988 352.883 227.623 352.136C226.258 351.389 225.191 350.323 224.423 348.936C223.655 347.549 223.271 345.928 223.271 344.072C223.271 342.216 223.644 340.595 224.391 339.208C225.159 337.821 226.226 336.755 227.591 336.008C228.956 335.261 230.524 334.888 232.295 334.888C234.023 334.888 235.559 335.251 236.903 335.976C238.247 336.701 239.292 337.736 240.039 339.08C240.807 340.424 241.191 341.992 241.191 343.784ZM235.591 342.344C235.591 341.405 235.271 340.659 234.631 340.104C233.991 339.549 233.191 339.272 232.231 339.272C231.314 339.272 230.535 339.539 229.895 340.072C229.276 340.605 228.892 341.363 228.743 342.344H235.591ZM254.958 334.952C257.048 334.952 258.712 335.635 259.95 337C261.208 338.344 261.838 340.2 261.838 342.568V353H256.398V343.304C256.398 342.109 256.088 341.181 255.47 340.52C254.851 339.859 254.019 339.528 252.974 339.528C251.928 339.528 251.096 339.859 250.478 340.52C249.859 341.181 249.55 342.109 249.55 343.304V353H244.078V335.144H249.55V337.512C250.104 336.723 250.851 336.104 251.79 335.656C252.728 335.187 253.784 334.952 254.958 334.952ZM275.592 348.36V353H272.808C270.824 353 269.278 352.52 268.168 351.56C267.059 350.579 266.504 348.989 266.504 346.792V339.688H264.328V335.144H266.504V330.792H271.976V335.144H275.56V339.688H271.976V346.856C271.976 347.389 272.104 347.773 272.36 348.008C272.616 348.243 273.043 348.36 273.64 348.36H275.592ZM293.55 353.256C291.8 353.256 290.222 352.883 288.814 352.136C287.427 351.389 286.328 350.323 285.518 348.936C284.728 347.549 284.334 345.928 284.334 344.072C284.334 342.237 284.739 340.627 285.549 339.24C286.36 337.832 287.47 336.755 288.878 336.008C290.286 335.261 291.864 334.888 293.614 334.888C295.363 334.888 296.942 335.261 298.35 336.008C299.758 336.755 300.867 337.832 301.678 339.24C302.488 340.627 302.894 342.237 302.894 344.072C302.894 345.907 302.478 347.528 301.646 348.936C300.835 350.323 299.715 351.389 298.286 352.136C296.878 352.883 295.299 353.256 293.55 353.256ZM293.55 348.52C294.595 348.52 295.48 348.136 296.206 347.368C296.952 346.6 297.326 345.501 297.326 344.072C297.326 342.643 296.963 341.544 296.238 340.776C295.534 340.008 294.659 339.624 293.614 339.624C292.547 339.624 291.662 340.008 290.958 340.776C290.254 341.523 289.902 342.621 289.902 344.072C289.902 345.501 290.243 346.6 290.926 347.368C291.63 348.136 292.504 348.52 293.55 348.52ZM314.757 339.688H311.812V353H306.341V339.688H304.357V335.144H306.341V334.632C306.341 332.435 306.97 330.771 308.229 329.64C309.487 328.488 311.333 327.912 313.765 327.912C314.17 327.912 314.469 327.923 314.661 327.944V332.584C313.615 332.52 312.879 332.669 312.453 333.032C312.026 333.395 311.812 334.045 311.812 334.984V335.144H314.757V339.688ZM329.581 337.672C330.114 336.84 330.85 336.168 331.789 335.656C332.728 335.144 333.826 334.888 335.085 334.888C336.557 334.888 337.89 335.261 339.085 336.008C340.28 336.755 341.218 337.821 341.901 339.208C342.605 340.595 342.957 342.205 342.957 344.04C342.957 345.875 342.605 347.496 341.901 348.904C341.218 350.291 340.28 351.368 339.085 352.136C337.89 352.883 336.557 353.256 335.085 353.256C333.848 353.256 332.749 353 331.789 352.488C330.85 351.976 330.114 351.315 329.581 350.504V361.512H324.109V335.144H329.581V337.672ZM337.389 344.04C337.389 342.675 337.005 341.608 336.237 340.84C335.49 340.051 334.562 339.656 333.453 339.656C332.365 339.656 331.437 340.051 330.669 340.84C329.922 341.629 329.549 342.707 329.549 344.072C329.549 345.437 329.922 346.515 330.669 347.304C331.437 348.093 332.365 348.488 333.453 348.488C334.541 348.488 335.469 348.093 336.237 347.304C337.005 346.493 337.389 345.405 337.389 344.04ZM364.068 335.144L352.868 361.48H346.98L351.076 352.392L343.812 335.144H349.924L354.052 346.312L358.148 335.144H364.068ZM375.999 348.36V353H373.215C371.231 353 369.684 352.52 368.575 351.56C367.465 350.579 366.911 348.989 366.911 346.792V339.688H364.735V335.144H366.911V330.792H372.383V335.144H375.967V339.688H372.383V346.856C372.383 347.389 372.511 347.773 372.767 348.008C373.023 348.243 373.449 348.36 374.047 348.36H375.999ZM390.023 334.952C392.071 334.952 393.713 335.635 394.951 337C396.188 338.344 396.807 340.2 396.807 342.568V353H391.367V343.304C391.367 342.109 391.057 341.181 390.439 340.52C389.82 339.859 388.988 339.528 387.943 339.528C386.897 339.528 386.065 339.859 385.447 340.52C384.828 341.181 384.519 342.109 384.519 343.304V353H379.047V329.32H384.519V337.544C385.073 336.755 385.831 336.125 386.791 335.656C387.751 335.187 388.828 334.952 390.023 334.952ZM408.737 353.256C406.988 353.256 405.409 352.883 404.001 352.136C402.614 351.389 401.516 350.323 400.705 348.936C399.916 347.549 399.521 345.928 399.521 344.072C399.521 342.237 399.926 340.627 400.737 339.24C401.548 337.832 402.657 336.755 404.065 336.008C405.473 335.261 407.052 334.888 408.801 334.888C410.55 334.888 412.129 335.261 413.537 336.008C414.945 336.755 416.054 337.832 416.865 339.24C417.676 340.627 418.081 342.237 418.081 344.072C418.081 345.907 417.665 347.528 416.833 348.936C416.022 350.323 414.902 351.389 413.473 352.136C412.065 352.883 410.486 353.256 408.737 353.256ZM408.737 348.52C409.782 348.52 410.668 348.136 411.393 347.368C412.14 346.6 412.513 345.501 412.513 344.072C412.513 342.643 412.15 341.544 411.425 340.776C410.721 340.008 409.846 339.624 408.801 339.624C407.734 339.624 406.849 340.008 406.145 340.776C405.441 341.523 405.089 342.621 405.089 344.072C405.089 345.501 405.43 346.6 406.113 347.368C406.817 348.136 407.692 348.52 408.737 348.52ZM431.864 334.952C433.955 334.952 435.619 335.635 436.856 337C438.115 338.344 438.744 340.2 438.744 342.568V353H433.304V343.304C433.304 342.109 432.995 341.181 432.376 340.52C431.757 339.859 430.925 339.528 429.88 339.528C428.835 339.528 428.003 339.859 427.384 340.52C426.765 341.181 426.456 342.109 426.456 343.304V353H420.984V335.144H426.456V337.512C427.011 336.723 427.757 336.104 428.696 335.656C429.635 335.187 430.691 334.952 431.864 334.952ZM448.24 344.04C448.24 342.205 448.581 340.595 449.264 339.208C449.968 337.821 450.917 336.755 452.112 336.008C453.306 335.261 454.64 334.888 456.112 334.888C457.37 334.888 458.469 335.144 459.408 335.656C460.368 336.168 461.104 336.84 461.616 337.672V335.144H467.088V353H461.616V350.472C461.082 351.304 460.336 351.976 459.376 352.488C458.437 353 457.338 353.256 456.08 353.256C454.629 353.256 453.306 352.883 452.112 352.136C450.917 351.368 449.968 350.291 449.264 348.904C448.581 347.496 448.24 345.875 448.24 344.04ZM461.616 344.072C461.616 342.707 461.232 341.629 460.464 340.84C459.717 340.051 458.8 339.656 457.712 339.656C456.624 339.656 455.696 340.051 454.928 340.84C454.181 341.608 453.808 342.675 453.808 344.04C453.808 345.405 454.181 346.493 454.928 347.304C455.696 348.093 456.624 348.488 457.712 348.488C458.8 348.488 459.717 348.093 460.464 347.304C461.232 346.515 461.616 345.437 461.616 344.072ZM481.927 334.952C484.017 334.952 485.681 335.635 486.919 337C488.177 338.344 488.807 340.2 488.807 342.568V353H483.367V343.304C483.367 342.109 483.057 341.181 482.439 340.52C481.82 339.859 480.988 339.528 479.943 339.528C478.897 339.528 478.065 339.859 477.447 340.52C476.828 341.181 476.519 342.109 476.519 343.304V353H471.047V335.144H476.519V337.512C477.073 336.723 477.82 336.104 478.759 335.656C479.697 335.187 480.753 334.952 481.927 334.952ZM491.521 344.04C491.521 342.205 491.862 340.595 492.545 339.208C493.249 337.821 494.198 336.755 495.393 336.008C496.588 335.261 497.921 334.888 499.393 334.888C500.566 334.888 501.633 335.133 502.593 335.624C503.574 336.115 504.342 336.776 504.897 337.608V329.32H510.369V353H504.897V350.44C504.385 351.293 503.649 351.976 502.689 352.488C501.75 353 500.652 353.256 499.393 353.256C497.921 353.256 496.588 352.883 495.393 352.136C494.198 351.368 493.249 350.291 492.545 348.904C491.862 347.496 491.521 345.875 491.521 344.04ZM504.897 344.072C504.897 342.707 504.513 341.629 503.745 340.84C502.998 340.051 502.081 339.656 500.993 339.656C499.905 339.656 498.977 340.051 498.209 340.84C497.462 341.608 497.089 342.675 497.089 344.04C497.089 345.405 497.462 346.493 498.209 347.304C498.977 348.093 499.905 348.488 500.993 348.488C502.081 348.488 502.998 348.093 503.745 347.304C504.513 346.515 504.897 345.437 504.897 344.072ZM532.085 334.952C534.133 334.952 535.776 335.635 537.013 337C538.25 338.344 538.869 340.2 538.869 342.568V353H533.429V343.304C533.429 342.109 533.12 341.181 532.501 340.52C531.882 339.859 531.05 339.528 530.005 339.528C528.96 339.528 528.128 339.859 527.509 340.52C526.89 341.181 526.581 342.109 526.581 343.304V353H521.109V329.32H526.581V337.544C527.136 336.755 527.893 336.125 528.853 335.656C529.813 335.187 530.89 334.952 532.085 334.952ZM545.424 333.288C544.464 333.288 543.674 333.011 543.056 332.456C542.458 331.88 542.16 331.176 542.16 330.344C542.16 329.491 542.458 328.787 543.056 328.232C543.674 327.656 544.464 327.368 545.424 327.368C546.362 327.368 547.13 327.656 547.728 328.232C548.346 328.787 548.656 329.491 548.656 330.344C548.656 331.176 548.346 331.88 547.728 332.456C547.13 333.011 546.362 333.288 545.424 333.288ZM548.144 335.144V353H542.672V335.144H548.144ZM558.893 334.888C560.152 334.888 561.25 335.144 562.189 335.656C563.149 336.168 563.885 336.84 564.397 337.672V335.144H569.869V352.968C569.869 354.611 569.538 356.093 568.877 357.416C568.237 358.76 567.245 359.827 565.901 360.616C564.578 361.405 562.925 361.8 560.941 361.8C558.296 361.8 556.152 361.171 554.509 359.912C552.866 358.675 551.928 356.989 551.693 354.856H557.101C557.272 355.539 557.677 356.072 558.317 356.456C558.957 356.861 559.746 357.064 560.685 357.064C561.816 357.064 562.712 356.733 563.373 356.072C564.056 355.432 564.397 354.397 564.397 352.968V350.44C563.864 351.272 563.128 351.955 562.189 352.488C561.25 353 560.152 353.256 558.893 353.256C557.421 353.256 556.088 352.883 554.893 352.136C553.698 351.368 552.749 350.291 552.045 348.904C551.362 347.496 551.021 345.875 551.021 344.04C551.021 342.205 551.362 340.595 552.045 339.208C552.749 337.821 553.698 336.755 554.893 336.008C556.088 335.261 557.421 334.888 558.893 334.888ZM564.397 344.072C564.397 342.707 564.013 341.629 563.245 340.84C562.498 340.051 561.581 339.656 560.493 339.656C559.405 339.656 558.477 340.051 557.709 340.84C556.962 341.608 556.589 342.675 556.589 344.04C556.589 345.405 556.962 346.493 557.709 347.304C558.477 348.093 559.405 348.488 560.493 348.488C561.581 348.488 562.498 348.093 563.245 347.304C564.013 346.515 564.397 345.437 564.397 344.072ZM584.804 334.952C586.852 334.952 588.494 335.635 589.732 337C590.969 338.344 591.588 340.2 591.588 342.568V353H586.148V343.304C586.148 342.109 585.838 341.181 585.22 340.52C584.601 339.859 583.769 339.528 582.724 339.528C581.678 339.528 580.846 339.859 580.228 340.52C579.609 341.181 579.3 342.109 579.3 343.304V353H573.828V329.32H579.3V337.544C579.854 336.755 580.612 336.125 581.572 335.656C582.532 335.187 583.609 334.952 584.804 334.952ZM609.15 339.496V344.04H595.07V339.496H609.15ZM267.253 377.32V401H261.781V377.32H267.253ZM288.05 391.784C288.05 392.296 288.018 392.829 287.954 393.384H275.57C275.656 394.493 276.008 395.347 276.626 395.944C277.266 396.52 278.045 396.808 278.962 396.808C280.328 396.808 281.277 396.232 281.81 395.08H287.634C287.336 396.253 286.792 397.309 286.002 398.248C285.234 399.187 284.264 399.923 283.09 400.456C281.917 400.989 280.605 401.256 279.154 401.256C277.405 401.256 275.848 400.883 274.482 400.136C273.117 399.389 272.05 398.323 271.282 396.936C270.514 395.549 270.13 393.928 270.13 392.072C270.13 390.216 270.504 388.595 271.25 387.208C272.018 385.821 273.085 384.755 274.45 384.008C275.816 383.261 277.384 382.888 279.154 382.888C280.882 382.888 282.418 383.251 283.762 383.976C285.106 384.701 286.152 385.736 286.898 387.08C287.666 388.424 288.05 389.992 288.05 391.784ZM282.45 390.344C282.45 389.405 282.13 388.659 281.49 388.104C280.85 387.549 280.05 387.272 279.09 387.272C278.173 387.272 277.394 387.539 276.754 388.072C276.136 388.605 275.752 389.363 275.602 390.344H282.45ZM298.969 395.88L302.841 383.144H308.665L302.329 401H295.577L289.241 383.144H295.097L298.969 395.88ZM327.8 391.784C327.8 392.296 327.768 392.829 327.704 393.384H315.32C315.406 394.493 315.758 395.347 316.376 395.944C317.016 396.52 317.795 396.808 318.712 396.808C320.078 396.808 321.027 396.232 321.56 395.08H327.384C327.086 396.253 326.542 397.309 325.752 398.248C324.984 399.187 324.014 399.923 322.84 400.456C321.667 400.989 320.355 401.256 318.904 401.256C317.155 401.256 315.598 400.883 314.232 400.136C312.867 399.389 311.8 398.323 311.032 396.936C310.264 395.549 309.88 393.928 309.88 392.072C309.88 390.216 310.254 388.595 311 387.208C311.768 385.821 312.835 384.755 314.2 384.008C315.566 383.261 317.134 382.888 318.904 382.888C320.632 382.888 322.168 383.251 323.512 383.976C324.856 384.701 325.902 385.736 326.648 387.08C327.416 388.424 327.8 389.992 327.8 391.784ZM322.2 390.344C322.2 389.405 321.88 388.659 321.24 388.104C320.6 387.549 319.8 387.272 318.84 387.272C317.923 387.272 317.144 387.539 316.504 388.072C315.886 388.605 315.502 389.363 315.352 390.344H322.2ZM336.159 377.32V401H330.687V377.32H336.159ZM372.538 383.144L367.706 401H361.658L358.842 389.416L355.93 401H349.914L345.05 383.144H350.522L353.05 395.912L356.058 383.144H361.85L364.89 395.848L367.386 383.144H372.538ZM373.537 392.04C373.537 390.205 373.878 388.595 374.561 387.208C375.265 385.821 376.214 384.755 377.409 384.008C378.603 383.261 379.937 382.888 381.409 382.888C382.667 382.888 383.766 383.144 384.705 383.656C385.665 384.168 386.401 384.84 386.913 385.672V383.144H392.385V401H386.913V398.472C386.379 399.304 385.633 399.976 384.673 400.488C383.734 401 382.635 401.256 381.377 401.256C379.926 401.256 378.603 400.883 377.409 400.136C376.214 399.368 375.265 398.291 374.561 396.904C373.878 395.496 373.537 393.875 373.537 392.04ZM386.913 392.072C386.913 390.707 386.529 389.629 385.761 388.84C385.014 388.051 384.097 387.656 383.009 387.656C381.921 387.656 380.993 388.051 380.225 388.84C379.478 389.608 379.105 390.675 379.105 392.04C379.105 393.405 379.478 394.493 380.225 395.304C380.993 396.093 381.921 396.488 383.009 396.488C384.097 396.488 385.014 396.093 385.761 395.304C386.529 394.515 386.913 393.437 386.913 392.072ZM403.607 401.256C402.05 401.256 400.663 400.989 399.447 400.456C398.231 399.923 397.271 399.197 396.567 398.28C395.863 397.341 395.469 396.296 395.383 395.144H400.791C400.855 395.763 401.143 396.264 401.655 396.648C402.167 397.032 402.797 397.224 403.543 397.224C404.226 397.224 404.749 397.096 405.111 396.84C405.495 396.563 405.687 396.211 405.687 395.784C405.687 395.272 405.421 394.899 404.887 394.664C404.354 394.408 403.49 394.131 402.295 393.832C401.015 393.533 399.949 393.224 399.095 392.904C398.242 392.563 397.506 392.04 396.887 391.336C396.269 390.611 395.959 389.64 395.959 388.424C395.959 387.4 396.237 386.472 396.791 385.64C397.367 384.787 398.199 384.115 399.287 383.624C400.397 383.133 401.709 382.888 403.223 382.888C405.463 382.888 407.223 383.443 408.503 384.552C409.805 385.661 410.551 387.133 410.743 388.968H405.687C405.602 388.349 405.325 387.859 404.855 387.496C404.407 387.133 403.81 386.952 403.063 386.952C402.423 386.952 401.933 387.08 401.591 387.336C401.25 387.571 401.079 387.901 401.079 388.328C401.079 388.84 401.346 389.224 401.879 389.48C402.434 389.736 403.287 389.992 404.439 390.248C405.762 390.589 406.839 390.931 407.671 391.272C408.503 391.592 409.229 392.125 409.847 392.872C410.487 393.597 410.818 394.579 410.839 395.816C410.839 396.861 410.541 397.8 409.943 398.632C409.367 399.443 408.525 400.083 407.415 400.552C406.327 401.021 405.058 401.256 403.607 401.256ZM427.752 382.888C429.011 382.888 430.11 383.144 431.048 383.656C432.008 384.168 432.744 384.84 433.256 385.672V383.144H438.728V400.968C438.728 402.611 438.398 404.093 437.736 405.416C437.096 406.76 436.104 407.827 434.76 408.616C433.438 409.405 431.784 409.8 429.8 409.8C427.155 409.8 425.011 409.171 423.368 407.912C421.726 406.675 420.787 404.989 420.552 402.856H425.96C426.131 403.539 426.536 404.072 427.176 404.456C427.816 404.861 428.606 405.064 429.544 405.064C430.675 405.064 431.571 404.733 432.232 404.072C432.915 403.432 433.256 402.397 433.256 400.968V398.44C432.723 399.272 431.987 399.955 431.048 400.488C430.11 401 429.011 401.256 427.752 401.256C426.28 401.256 424.947 400.883 423.752 400.136C422.558 399.368 421.608 398.291 420.904 396.904C420.222 395.496 419.88 393.875 419.88 392.04C419.88 390.205 420.222 388.595 420.904 387.208C421.608 385.821 422.558 384.755 423.752 384.008C424.947 383.261 426.28 382.888 427.752 382.888ZM433.256 392.072C433.256 390.707 432.872 389.629 432.104 388.84C431.358 388.051 430.44 387.656 429.352 387.656C428.264 387.656 427.336 388.051 426.568 388.84C425.822 389.608 425.448 390.675 425.448 392.04C425.448 393.405 425.822 394.493 426.568 395.304C427.336 396.093 428.264 396.488 429.352 396.488C430.44 396.488 431.358 396.093 432.104 395.304C432.872 394.515 433.256 393.437 433.256 392.072ZM450.815 401.256C449.066 401.256 447.487 400.883 446.079 400.136C444.692 399.389 443.594 398.323 442.783 396.936C441.994 395.549 441.599 393.928 441.599 392.072C441.599 390.237 442.004 388.627 442.815 387.24C443.626 385.832 444.735 384.755 446.143 384.008C447.551 383.261 449.13 382.888 450.879 382.888C452.628 382.888 454.207 383.261 455.615 384.008C457.023 384.755 458.132 385.832 458.943 387.24C459.754 388.627 460.159 390.237 460.159 392.072C460.159 393.907 459.743 395.528 458.911 396.936C458.1 398.323 456.98 399.389 455.551 400.136C454.143 400.883 452.564 401.256 450.815 401.256ZM450.815 396.52C451.86 396.52 452.746 396.136 453.471 395.368C454.218 394.6 454.591 393.501 454.591 392.072C454.591 390.643 454.228 389.544 453.503 388.776C452.799 388.008 451.924 387.624 450.879 387.624C449.812 387.624 448.927 388.008 448.223 388.776C447.519 389.523 447.167 390.621 447.167 392.072C447.167 393.501 447.508 394.6 448.191 395.368C448.895 396.136 449.77 396.52 450.815 396.52ZM471.19 401.256C469.441 401.256 467.862 400.883 466.454 400.136C465.067 399.389 463.969 398.323 463.158 396.936C462.369 395.549 461.974 393.928 461.974 392.072C461.974 390.237 462.379 388.627 463.19 387.24C464.001 385.832 465.11 384.755 466.518 384.008C467.926 383.261 469.505 382.888 471.254 382.888C473.003 382.888 474.582 383.261 475.99 384.008C477.398 384.755 478.507 385.832 479.318 387.24C480.129 388.627 480.534 390.237 480.534 392.072C480.534 393.907 480.118 395.528 479.286 396.936C478.475 398.323 477.355 399.389 475.926 400.136C474.518 400.883 472.939 401.256 471.19 401.256ZM471.19 396.52C472.235 396.52 473.121 396.136 473.846 395.368C474.593 394.6 474.966 393.501 474.966 392.072C474.966 390.643 474.603 389.544 473.878 388.776C473.174 388.008 472.299 387.624 471.254 387.624C470.187 387.624 469.302 388.008 468.598 388.776C467.894 389.523 467.542 390.621 467.542 392.072C467.542 393.501 467.883 394.6 468.566 395.368C469.27 396.136 470.145 396.52 471.19 396.52ZM482.349 392.04C482.349 390.205 482.69 388.595 483.373 387.208C484.077 385.821 485.026 384.755 486.221 384.008C487.416 383.261 488.749 382.888 490.221 382.888C491.394 382.888 492.461 383.133 493.421 383.624C494.402 384.115 495.17 384.776 495.725 385.608V377.32H501.197V401H495.725V398.44C495.213 399.293 494.477 399.976 493.517 400.488C492.578 401 491.48 401.256 490.221 401.256C488.749 401.256 487.416 400.883 486.221 400.136C485.026 399.368 484.077 398.291 483.373 396.904C482.69 395.496 482.349 393.875 482.349 392.04ZM495.725 392.072C495.725 390.707 495.341 389.629 494.573 388.84C493.826 388.051 492.909 387.656 491.821 387.656C490.733 387.656 489.805 388.051 489.037 388.84C488.29 389.608 487.917 390.675 487.917 392.04C487.917 393.405 488.29 394.493 489.037 395.304C489.805 396.093 490.733 396.488 491.821 396.488C492.909 396.488 493.826 396.093 494.573 395.304C495.341 394.515 495.725 393.437 495.725 392.072ZM507.716 401.256C506.756 401.256 505.967 400.979 505.348 400.424C504.751 399.848 504.452 399.144 504.452 398.312C504.452 397.459 504.751 396.744 505.348 396.168C505.967 395.592 506.756 395.304 507.716 395.304C508.655 395.304 509.423 395.592 510.02 396.168C510.639 396.744 510.948 397.459 510.948 398.312C510.948 399.144 510.639 399.848 510.02 400.424C509.423 400.979 508.655 401.256 507.716 401.256Z" fill="white"/>
<rect x="274" y="523" width="232" height="66" rx="33" fill="#8A08F0"/>
<path d="M314.055 567L306.503 557.08V567H301.031V544.536H306.503V554.392L313.991 544.536H320.423L311.719 555.544L320.743 567H314.055ZM334.223 548.952C336.314 548.952 337.978 549.635 339.215 551C340.474 552.344 341.103 554.2 341.103 556.568V567H335.663V557.304C335.663 556.109 335.354 555.181 334.735 554.52C334.117 553.859 333.285 553.528 332.239 553.528C331.194 553.528 330.362 553.859 329.743 554.52C329.125 555.181 328.815 556.109 328.815 557.304V567H323.343V549.144H328.815V551.512C329.37 550.723 330.117 550.104 331.055 549.656C331.994 549.187 333.05 548.952 334.223 548.952ZM353.034 567.256C351.285 567.256 349.706 566.883 348.298 566.136C346.911 565.389 345.813 564.323 345.002 562.936C344.213 561.549 343.818 559.928 343.818 558.072C343.818 556.237 344.223 554.627 345.034 553.24C345.845 551.832 346.954 550.755 348.362 550.008C349.77 549.261 351.349 548.888 353.098 548.888C354.847 548.888 356.426 549.261 357.834 550.008C359.242 550.755 360.351 551.832 361.162 553.24C361.973 554.627 362.378 556.237 362.378 558.072C362.378 559.907 361.962 561.528 361.13 562.936C360.319 564.323 359.199 565.389 357.77 566.136C356.362 566.883 354.783 567.256 353.034 567.256ZM353.034 562.52C354.079 562.52 354.965 562.136 355.69 561.368C356.437 560.6 356.81 559.501 356.81 558.072C356.81 556.643 356.447 555.544 355.722 554.776C355.018 554.008 354.143 553.624 353.098 553.624C352.031 553.624 351.146 554.008 350.442 554.776C349.738 555.523 349.386 556.621 349.386 558.072C349.386 559.501 349.727 560.6 350.41 561.368C351.114 562.136 351.989 562.52 353.034 562.52ZM390.913 549.144L386.081 567H380.033L377.217 555.416L374.305 567H368.289L363.425 549.144H368.897L371.425 561.912L374.433 549.144H380.225L383.265 561.848L385.761 549.144H390.913ZM425.221 544.536V567H419.749V553.528L414.725 567H410.309L405.253 553.496V567H399.781V544.536H406.245L412.549 560.088L418.789 544.536H425.221ZM437.284 567.256C435.535 567.256 433.956 566.883 432.548 566.136C431.161 565.389 430.063 564.323 429.252 562.936C428.463 561.549 428.068 559.928 428.068 558.072C428.068 556.237 428.473 554.627 429.284 553.24C430.095 551.832 431.204 550.755 432.612 550.008C434.02 549.261 435.599 548.888 437.348 548.888C439.097 548.888 440.676 549.261 442.084 550.008C443.492 550.755 444.601 551.832 445.412 553.24C446.223 554.627 446.628 556.237 446.628 558.072C446.628 559.907 446.212 561.528 445.38 562.936C444.569 564.323 443.449 565.389 442.02 566.136C440.612 566.883 439.033 567.256 437.284 567.256ZM437.284 562.52C438.329 562.52 439.215 562.136 439.94 561.368C440.687 560.6 441.06 559.501 441.06 558.072C441.06 556.643 440.697 555.544 439.972 554.776C439.268 554.008 438.393 553.624 437.348 553.624C436.281 553.624 435.396 554.008 434.692 554.776C433.988 555.523 433.636 556.621 433.636 558.072C433.636 559.501 433.977 560.6 434.66 561.368C435.364 562.136 436.239 562.52 437.284 562.52ZM455.003 552.12C455.643 551.139 456.443 550.371 457.403 549.816C458.363 549.24 459.43 548.952 460.603 548.952V554.744H459.099C457.734 554.744 456.71 555.043 456.027 555.64C455.344 556.216 455.003 557.24 455.003 558.712V567H449.531V549.144H455.003V552.12ZM480.05 557.784C480.05 558.296 480.018 558.829 479.954 559.384H467.57C467.656 560.493 468.008 561.347 468.626 561.944C469.266 562.52 470.045 562.808 470.962 562.808C472.328 562.808 473.277 562.232 473.81 561.08H479.634C479.336 562.253 478.792 563.309 478.002 564.248C477.234 565.187 476.264 565.923 475.09 566.456C473.917 566.989 472.605 567.256 471.154 567.256C469.405 567.256 467.848 566.883 466.482 566.136C465.117 565.389 464.05 564.323 463.282 562.936C462.514 561.549 462.13 559.928 462.13 558.072C462.13 556.216 462.504 554.595 463.25 553.208C464.018 551.821 465.085 550.755 466.45 550.008C467.816 549.261 469.384 548.888 471.154 548.888C472.882 548.888 474.418 549.251 475.762 549.976C477.106 550.701 478.152 551.736 478.898 553.08C479.666 554.424 480.05 555.992 480.05 557.784ZM474.45 556.344C474.45 555.405 474.13 554.659 473.49 554.104C472.85 553.549 472.05 553.272 471.09 553.272C470.173 553.272 469.394 553.539 468.754 554.072C468.136 554.605 467.752 555.363 467.602 556.344H474.45Z" fill="white"/>
<path d="M390 762L398 770L390 778L382 770L390 762Z" fill="#8A08F0"/>
</svg>
