<svg width="814" height="188" viewBox="0 0 814 188" fill="none" xmlns="http://www.w3.org/2000/svg">
<path d="M0 92.5C0 70.6848 17.6848 53 39.5 53H213L173.5 92.5L213 132H39.5C17.6848 132 0 114.315 0 92.5V92.5Z" fill="url(#paint0_linear_21_4790)"/>
<path d="M182.192 92.5L265.5 9.19239L348.808 92.5L265.5 175.808L182.192 92.5Z" stroke="url(#paint1_linear_21_4790)" stroke-width="13"/>
<path d="M110.964 101.536H101.532L100.02 106H93.576L102.72 80.728H109.848L118.992 106H112.476L110.964 101.536ZM109.38 96.784L106.248 87.532L103.152 96.784H109.38ZM127.931 80.728V106H121.775V80.728H127.931Z" fill="white"/>
<path d="M265.5 50C259.241 50 254.167 55.0741 254.167 61.3334V72.6668H276.834V61.3334C276.834 55.0741 271.76 50 265.5 50Z" fill="#7A01D9"/>
<path d="M254.167 77.2002V88.5336C254.167 94.7927 259.241 99.867 265.5 99.867C271.76 99.867 276.834 94.7929 276.834 88.5336V77.2002H254.167Z" fill="#7A01D9"/>
<path d="M290.433 88.5332H283.633C283.633 98.532 275.499 106.667 265.5 106.667C255.501 106.667 247.366 98.532 247.366 88.5332H240.566C240.566 101.128 249.954 111.57 262.1 113.234V128.2H254.166V135H276.833V128.2H268.9V113.234C281.045 111.57 290.433 101.128 290.433 88.5332Z" fill="#7A01D9"/>
<path d="M814 95.5C814 117.315 796.315 135 774.5 135L601 135L640.5 95.5L601 56L774.5 56C796.315 56 814 73.6848 814 95.5V95.5Z" fill="url(#paint2_linear_21_4790)"/>
<path d="M631.808 95.5L548.5 178.808L465.192 95.5L548.5 12.1924L631.808 95.5Z" stroke="url(#paint3_linear_21_4790)" stroke-width="13"/>
<path d="M691.904 82.728L683.156 99.648V108H677V99.648L668.252 82.728H675.236L680.132 93.312L684.992 82.728H691.904ZM706.336 108.252C703.96 108.252 701.776 107.7 699.784 106.596C697.816 105.492 696.244 103.956 695.068 101.988C693.916 99.996 693.34 97.764 693.34 95.292C693.34 92.82 693.916 90.6 695.068 88.632C696.244 86.664 697.816 85.128 699.784 84.024C701.776 82.92 703.96 82.368 706.336 82.368C708.712 82.368 710.884 82.92 712.852 84.024C714.844 85.128 716.404 86.664 717.532 88.632C718.684 90.6 719.26 92.82 719.26 95.292C719.26 97.764 718.684 99.996 717.532 101.988C716.38 103.956 714.82 105.492 712.852 106.596C710.884 107.7 708.712 108.252 706.336 108.252ZM706.336 102.636C708.352 102.636 709.96 101.964 711.16 100.62C712.384 99.276 712.996 97.5 712.996 95.292C712.996 93.06 712.384 91.284 711.16 89.964C709.96 88.62 708.352 87.948 706.336 87.948C704.296 87.948 702.664 88.608 701.44 89.928C700.24 91.248 699.64 93.036 699.64 95.292C699.64 97.524 700.24 99.312 701.44 100.656C702.664 101.976 704.296 102.636 706.336 102.636ZM728.733 82.728V97.848C728.733 99.36 729.105 100.524 729.849 101.34C730.593 102.156 731.685 102.564 733.125 102.564C734.565 102.564 735.669 102.156 736.437 101.34C737.205 100.524 737.589 99.36 737.589 97.848V82.728H743.745V97.812C743.745 100.068 743.265 101.976 742.305 103.536C741.345 105.096 740.049 106.272 738.417 107.064C736.809 107.856 735.009 108.252 733.017 108.252C731.025 108.252 729.237 107.868 727.653 107.1C726.093 106.308 724.857 105.132 723.945 103.572C723.033 101.988 722.577 100.068 722.577 97.812V82.728H728.733Z" fill="white"/>
<path d="M548.5 53C542.241 53 537.167 58.0741 537.167 64.3334V75.6668H559.834V64.3334C559.834 58.0741 554.76 53 548.5 53Z" fill="#7A01D9"/>
<path d="M537.167 80.2002V91.5336C537.167 97.7927 542.241 102.867 548.5 102.867C554.76 102.867 559.834 97.7929 559.834 91.5336V80.2002H537.167Z" fill="#7A01D9"/>
<path d="M573.433 91.5332H566.633C566.633 101.532 558.499 109.667 548.5 109.667C538.501 109.667 530.366 101.532 530.366 91.5332H523.566C523.566 104.128 532.954 114.57 545.1 116.234V131.2H537.166V138H559.833V131.2H551.9V116.234C564.045 114.57 573.433 104.128 573.433 91.5332Z" fill="#7A01D9"/>
<line x1="307.404" y1="142.596" x2="215.404" y2="50.5962" stroke="#8D01FB" stroke-width="13"/>
<defs>
<linearGradient id="paint0_linear_21_4790" x1="-1.49004e-06" y1="93" x2="189" y2="93" gradientUnits="userSpaceOnUse">
<stop stop-color="#8F00FF"/>
<stop offset="1" stop-color="#000001"/>
</linearGradient>
<linearGradient id="paint1_linear_21_4790" x1="178" y1="93" x2="433.5" y2="93" gradientUnits="userSpaceOnUse">
<stop stop-color="#8F00FF"/>
<stop offset="1"/>
</linearGradient>
<linearGradient id="paint2_linear_21_4790" x1="814" y1="95" x2="625" y2="95" gradientUnits="userSpaceOnUse">
<stop stop-color="#8F00FF"/>
<stop offset="1" stop-color="#000001"/>
</linearGradient>
<linearGradient id="paint3_linear_21_4790" x1="636" y1="95" x2="380.5" y2="95" gradientUnits="userSpaceOnUse">
<stop stop-color="#8F00FF"/>
<stop offset="1"/>
</linearGradient>
</defs>
</svg>
