<svg width="358" height="185" viewBox="0 0 358 185" fill="none" xmlns="http://www.w3.org/2000/svg">
<path d="M358 92.5C358 114.315 340.315 132 318.5 132L145 132L184.5 92.5L145 53L318.5 53C340.315 53 358 70.6848 358 92.5V92.5Z" fill="url(#paint0_linear_21_4806)"/>
<path d="M175.808 92.5L92.5 175.808L9.19238 92.5L92.5 9.19238L175.808 92.5Z" stroke="url(#paint1_linear_21_4806)" stroke-width="13"/>
<path d="M235.904 79.728L227.156 96.648V105H221V96.648L212.252 79.728H219.236L224.132 90.312L228.992 79.728H235.904ZM250.336 105.252C247.96 105.252 245.776 104.7 243.784 103.596C241.816 102.492 240.244 100.956 239.068 98.988C237.916 96.996 237.34 94.764 237.34 92.292C237.34 89.82 237.916 87.6 239.068 85.632C240.244 83.664 241.816 82.128 243.784 81.024C245.776 79.92 247.96 79.368 250.336 79.368C252.712 79.368 254.884 79.92 256.852 81.024C258.844 82.128 260.404 83.664 261.532 85.632C262.684 87.6 263.26 89.82 263.26 92.292C263.26 94.764 262.684 96.996 261.532 98.988C260.38 100.956 258.82 102.492 256.852 103.596C254.884 104.7 252.712 105.252 250.336 105.252ZM250.336 99.636C252.352 99.636 253.96 98.964 255.16 97.62C256.384 96.276 256.996 94.5 256.996 92.292C256.996 90.06 256.384 88.284 255.16 86.964C253.96 85.62 252.352 84.948 250.336 84.948C248.296 84.948 246.664 85.608 245.44 86.928C244.24 88.248 243.64 90.036 243.64 92.292C243.64 94.524 244.24 96.312 245.44 97.656C246.664 98.976 248.296 99.636 250.336 99.636ZM272.733 79.728V94.848C272.733 96.36 273.105 97.524 273.849 98.34C274.593 99.156 275.685 99.564 277.125 99.564C278.565 99.564 279.669 99.156 280.437 98.34C281.205 97.524 281.589 96.36 281.589 94.848V79.728H287.745V94.812C287.745 97.068 287.265 98.976 286.305 100.536C285.345 102.096 284.049 103.272 282.417 104.064C280.809 104.856 279.009 105.252 277.017 105.252C275.025 105.252 273.237 104.868 271.653 104.1C270.093 103.308 268.857 102.132 267.945 100.572C267.033 98.988 266.577 97.068 266.577 94.812V79.728H272.733Z" fill="white"/>
<path d="M92.5004 50C86.2413 50 81.167 55.0741 81.167 61.3334V72.6668H103.834V61.3334C103.834 55.0741 98.7595 50 92.5004 50Z" fill="#7A01D9"/>
<path d="M81.167 77.2002V88.5336C81.167 94.7927 86.2411 99.867 92.5004 99.867C98.7597 99.867 103.834 94.7929 103.834 88.5336V77.2002H81.167Z" fill="#7A01D9"/>
<path d="M117.433 88.5332H110.633C110.633 98.532 102.499 106.667 92.4998 106.667C82.501 106.667 74.3664 98.532 74.3664 88.5332H67.5664C67.5664 101.128 76.9543 111.57 89.0998 113.234V128.2H81.1664V135H103.833V128.2H95.8998V113.234C108.045 111.57 117.433 101.128 117.433 88.5332Z" fill="#7A01D9"/>
<defs>
<linearGradient id="paint0_linear_21_4806" x1="358" y1="92" x2="169" y2="92" gradientUnits="userSpaceOnUse">
<stop stop-color="#8F00FF"/>
<stop offset="1" stop-color="#000001"/>
</linearGradient>
<linearGradient id="paint1_linear_21_4806" x1="180" y1="92" x2="-75.5" y2="92" gradientUnits="userSpaceOnUse">
<stop stop-color="#8F00FF"/>
<stop offset="1"/>
</linearGradient>
</defs>
</svg>
