<svg width="196" height="63" viewBox="0 0 196 63" fill="none" xmlns="http://www.w3.org/2000/svg">
<path d="M22.62 46L13.714 29.835H11.213V46H0.782V3.178H18.289C21.6643 3.178 24.5313 3.76767 26.89 4.947C29.2893 6.12633 31.0787 7.753 32.258 9.827C33.4373 11.8603 34.027 14.1377 34.027 16.659C34.027 19.5057 33.2137 22.0473 31.587 24.284C30.001 26.5207 27.6423 28.1067 24.511 29.042L34.393 46H22.62ZM11.213 22.454H17.679C19.5903 22.454 21.0137 21.9863 21.949 21.051C22.925 20.1157 23.413 18.794 23.413 17.086C23.413 15.4593 22.925 14.1783 21.949 13.243C21.0137 12.3077 19.5903 11.84 17.679 11.84H11.213V22.454ZM72.661 28.432C72.661 29.408 72.6 30.4247 72.478 31.482H48.871C49.0336 33.5967 49.7046 35.2233 50.884 36.362C52.104 37.46 53.5883 38.009 55.337 38.009C57.9396 38.009 59.7493 36.911 60.766 34.715H71.868C71.2986 36.9517 70.2616 38.9647 68.757 40.754C67.293 42.5433 65.4426 43.9463 63.206 44.963C60.9693 45.9797 58.4683 46.488 55.703 46.488C52.3683 46.488 49.3996 45.7763 46.797 44.353C44.1943 42.9297 42.161 40.8963 40.697 38.253C39.233 35.6097 38.501 32.519 38.501 28.981C38.501 25.443 39.2126 22.3523 40.636 19.709C42.1 17.0657 44.1333 15.0323 46.736 13.609C49.3386 12.1857 52.3276 11.474 55.703 11.474C58.997 11.474 61.925 12.1653 64.487 13.548C67.049 14.9307 69.0416 16.903 70.465 19.465C71.929 22.027 72.661 25.016 72.661 28.432ZM61.986 25.687C61.986 23.8977 61.376 22.4743 60.156 21.417C58.936 20.3597 57.411 19.831 55.581 19.831C53.8323 19.831 52.348 20.3393 51.128 21.356C49.9486 22.3727 49.2166 23.8163 48.932 25.687H61.986ZM76.0898 28.92C76.0898 25.4227 76.7405 22.3523 78.0418 19.709C79.3838 17.0657 81.1935 15.0323 83.4708 13.609C85.7482 12.1857 88.2898 11.474 91.0958 11.474C93.4952 11.474 95.5895 11.962 97.3788 12.938C99.2088 13.914 100.612 15.195 101.588 16.781V11.962H112.019V46H101.588V41.181C100.571 42.767 99.1478 44.048 97.3178 45.024C95.5285 46 93.4342 46.488 91.0348 46.488C88.2695 46.488 85.7482 45.7763 83.4708 44.353C81.1935 42.889 79.3838 40.8353 78.0418 38.192C76.7405 35.508 76.0898 32.4173 76.0898 28.92ZM101.588 28.981C101.588 26.3783 100.856 24.3247 99.3918 22.82C97.9685 21.3153 96.2198 20.563 94.1458 20.563C92.0718 20.563 90.3028 21.3153 88.8388 22.82C87.4155 24.284 86.7038 26.3173 86.7038 28.92C86.7038 31.5227 87.4155 33.5967 88.8388 35.142C90.3028 36.6467 92.0718 37.399 94.1458 37.399C96.2198 37.399 97.9685 36.6467 99.3918 35.142C100.856 33.6373 101.588 31.5837 101.588 28.981ZM117.491 28.92C117.491 25.4227 118.142 22.3523 119.443 19.709C120.785 17.0657 122.595 15.0323 124.872 13.609C127.15 12.1857 129.691 11.474 132.497 11.474C134.734 11.474 136.767 11.9417 138.597 12.877C140.468 13.8123 141.932 15.073 142.989 16.659V0.859999H153.42V46H142.989V41.12C142.013 42.7467 140.61 44.048 138.78 45.024C136.991 46 134.897 46.488 132.497 46.488C129.691 46.488 127.15 45.7763 124.872 44.353C122.595 42.889 120.785 40.8353 119.443 38.192C118.142 35.508 117.491 32.4173 117.491 28.92ZM142.989 28.981C142.989 26.3783 142.257 24.3247 140.793 22.82C139.37 21.3153 137.621 20.563 135.547 20.563C133.473 20.563 131.704 21.3153 130.24 22.82C128.817 24.284 128.105 26.3173 128.105 28.92C128.105 31.5227 128.817 33.5967 130.24 35.142C131.704 36.6467 133.473 37.399 135.547 37.399C137.621 37.399 139.37 36.6467 140.793 35.142C142.257 33.6373 142.989 31.5837 142.989 28.981ZM195.737 11.962L174.387 62.165H163.163L170.971 44.841L157.124 11.962H168.775L176.644 33.251L184.452 11.962H195.737Z" fill="white"/>
</svg>
