<svg width="358" height="185" viewBox="0 0 358 185" fill="none" xmlns="http://www.w3.org/2000/svg">
<path d="M358 92.5C358 114.315 340.315 132 318.5 132L145 132L184.5 92.5L145 53L318.5 53C340.315 53 358 70.6848 358 92.5V92.5Z" fill="url(#paint0_linear_21_4716)"/>
<path d="M175.808 92.5L92.5 175.808L9.19238 92.5L92.5 9.19238L175.808 92.5Z" stroke="url(#paint1_linear_21_4716)" stroke-width="13"/>
<path d="M47.12 106L41.864 96.46H40.388V106H34.232V80.728H44.564C46.556 80.728 48.248 81.076 49.64 81.772C51.056 82.468 52.112 83.428 52.808 84.652C53.504 85.852 53.852 87.196 53.852 88.684C53.852 90.364 53.372 91.864 52.412 93.184C51.476 94.504 50.084 95.44 48.236 95.992L54.068 106H47.12ZM40.388 92.104H44.204C45.332 92.104 46.172 91.828 46.724 91.276C47.3 90.724 47.588 89.944 47.588 88.936C47.588 87.976 47.3 87.22 46.724 86.668C46.172 86.116 45.332 85.84 44.204 85.84H40.388V92.104ZM66.8604 106.288C64.8924 106.288 63.1164 105.868 61.5324 105.028C59.9724 104.188 58.7364 102.988 57.8244 101.428C56.9364 99.868 56.4924 98.044 56.4924 95.956C56.4924 93.892 56.9484 92.08 57.8604 90.52C58.7724 88.936 60.0204 87.724 61.6044 86.884C63.1884 86.044 64.9644 85.624 66.9324 85.624C68.9004 85.624 70.6764 86.044 72.2604 86.884C73.8444 87.724 75.0924 88.936 76.0044 90.52C76.9164 92.08 77.3724 93.892 77.3724 95.956C77.3724 98.02 76.9044 99.844 75.9684 101.428C75.0564 102.988 73.7964 104.188 72.1884 105.028C70.6044 105.868 68.8284 106.288 66.8604 106.288ZM66.8604 100.96C68.0364 100.96 69.0324 100.528 69.8484 99.664C70.6884 98.8 71.1084 97.564 71.1084 95.956C71.1084 94.348 70.7004 93.112 69.8844 92.248C69.0924 91.384 68.1084 90.952 66.9324 90.952C65.7324 90.952 64.7364 91.384 63.9444 92.248C63.1524 93.088 62.7564 94.324 62.7564 95.956C62.7564 97.564 63.1404 98.8 63.9084 99.664C64.7004 100.528 65.6844 100.96 66.8604 100.96ZM100.474 85.912V106H94.3183V103.264C93.6943 104.152 92.8423 104.872 91.7623 105.424C90.7063 105.952 89.5303 106.216 88.2343 106.216C86.6983 106.216 85.3423 105.88 84.1663 105.208C82.9903 104.512 82.0783 103.516 81.4303 102.22C80.7823 100.924 80.4583 99.4 80.4583 97.648V85.912H86.5783V96.82C86.5783 98.164 86.9263 99.208 87.6223 99.952C88.3183 100.696 89.2543 101.068 90.4303 101.068C91.6303 101.068 92.5783 100.696 93.2743 99.952C93.9703 99.208 94.3183 98.164 94.3183 96.82V85.912H100.474ZM117.136 85.696C119.488 85.696 121.36 86.464 122.752 88C124.168 89.512 124.876 91.6 124.876 94.264V106H118.756V95.092C118.756 93.748 118.408 92.704 117.712 91.96C117.016 91.216 116.08 90.844 114.904 90.844C113.728 90.844 112.792 91.216 112.096 91.96C111.4 92.704 111.052 93.748 111.052 95.092V106H104.896V85.912H111.052V88.576C111.676 87.688 112.516 86.992 113.572 86.488C114.628 85.96 115.816 85.696 117.136 85.696ZM127.93 95.92C127.93 93.856 128.314 92.044 129.082 90.484C129.874 88.924 130.942 87.724 132.286 86.884C133.63 86.044 135.13 85.624 136.786 85.624C138.106 85.624 139.306 85.9 140.386 86.452C141.49 87.004 142.354 87.748 142.978 88.684V79.36H149.134V106H142.978V103.12C142.402 104.08 141.574 104.848 140.494 105.424C139.438 106 138.202 106.288 136.786 106.288C135.13 106.288 133.63 105.868 132.286 105.028C130.942 104.164 129.874 102.952 129.082 101.392C128.314 99.808 127.93 97.984 127.93 95.92ZM142.978 95.956C142.978 94.42 142.546 93.208 141.682 92.32C140.842 91.432 139.81 90.988 138.586 90.988C137.362 90.988 136.318 91.432 135.454 92.32C134.614 93.184 134.194 94.384 134.194 95.92C134.194 97.456 134.614 98.68 135.454 99.592C136.318 100.48 137.362 100.924 138.586 100.924C139.81 100.924 140.842 100.48 141.682 99.592C142.546 98.704 142.978 97.492 142.978 95.956Z" fill="white"/>
<path d="M245.404 100.068C246.22 99.42 246.592 99.12 246.52 99.168C248.872 97.224 250.72 95.628 252.064 94.38C253.432 93.132 254.584 91.824 255.52 90.456C256.456 89.088 256.924 87.756 256.924 86.46C256.924 85.476 256.696 84.708 256.24 84.156C255.784 83.604 255.1 83.328 254.188 83.328C253.276 83.328 252.556 83.676 252.028 84.372C251.524 85.044 251.272 86.004 251.272 87.252H245.332C245.38 85.212 245.812 83.508 246.628 82.14C247.468 80.772 248.56 79.764 249.904 79.116C251.272 78.468 252.784 78.144 254.44 78.144C257.296 78.144 259.444 78.876 260.884 80.34C262.348 81.804 263.08 83.712 263.08 86.064C263.08 88.632 262.204 91.02 260.452 93.228C258.7 95.412 256.468 97.548 253.756 99.636H263.476V104.64H245.404V100.068Z" fill="white"/>
<defs>
<linearGradient id="paint0_linear_21_4716" x1="358" y1="92" x2="51" y2="92" gradientUnits="userSpaceOnUse">
<stop stop-color="#8F00FF"/>
<stop offset="1"/>
</linearGradient>
<linearGradient id="paint1_linear_21_4716" x1="180.5" y1="92" x2="5.5" y2="87.5" gradientUnits="userSpaceOnUse">
<stop stop-color="#8F00FF"/>
<stop offset="1"/>
</linearGradient>
</defs>
</svg>
