<svg width="358" height="185" viewBox="0 0 358 185" fill="none" xmlns="http://www.w3.org/2000/svg">
<path d="M0 92.5C0 70.6848 17.6848 53 39.5 53H213L173.5 92.5L213 132H39.5C17.6848 132 0 114.315 0 92.5V92.5Z" fill="url(#paint0_linear_21_4711)"/>
<path d="M182.192 92.5L265.5 9.19239L348.808 92.5L265.5 175.808L182.192 92.5Z" stroke="url(#paint1_linear_21_4711)" stroke-width="13"/>
<path d="M224.376 106.252C222.528 106.252 220.872 105.952 219.408 105.352C217.944 104.752 216.768 103.864 215.88 102.688C215.016 101.512 214.56 100.096 214.512 98.44H221.064C221.16 99.376 221.484 100.096 222.036 100.6C222.588 101.08 223.308 101.32 224.196 101.32C225.108 101.32 225.828 101.116 226.356 100.708C226.884 100.276 227.148 99.688 227.148 98.944C227.148 98.32 226.932 97.804 226.5 97.396C226.092 96.988 225.576 96.652 224.952 96.388C224.352 96.124 223.488 95.824 222.36 95.488C220.728 94.984 219.396 94.48 218.364 93.976C217.332 93.472 216.444 92.728 215.7 91.744C214.956 90.76 214.584 89.476 214.584 87.892C214.584 85.54 215.436 83.704 217.14 82.384C218.844 81.04 221.064 80.368 223.8 80.368C226.584 80.368 228.828 81.04 230.532 82.384C232.236 83.704 233.148 85.552 233.268 87.928H226.608C226.56 87.112 226.26 86.476 225.708 86.02C225.156 85.54 224.448 85.3 223.584 85.3C222.84 85.3 222.24 85.504 221.784 85.912C221.328 86.296 221.1 86.86 221.1 87.604C221.1 88.42 221.484 89.056 222.252 89.512C223.02 89.968 224.22 90.46 225.852 90.988C227.484 91.54 228.804 92.068 229.812 92.572C230.844 93.076 231.732 93.808 232.476 94.768C233.22 95.728 233.592 96.964 233.592 98.476C233.592 99.916 233.22 101.224 232.476 102.4C231.756 103.576 230.7 104.512 229.308 105.208C227.916 105.904 226.272 106.252 224.376 106.252ZM236.156 95.956C236.156 93.868 236.576 92.044 237.416 90.484C238.28 88.924 239.468 87.724 240.98 86.884C242.516 86.044 244.268 85.624 246.236 85.624C248.756 85.624 250.856 86.284 252.536 87.604C254.24 88.924 255.356 90.784 255.884 93.184H249.332C248.78 91.648 247.712 90.88 246.128 90.88C245 90.88 244.1 91.324 243.428 92.212C242.756 93.076 242.42 94.324 242.42 95.956C242.42 97.588 242.756 98.848 243.428 99.736C244.1 100.6 245 101.032 246.128 101.032C247.712 101.032 248.78 100.264 249.332 98.728H255.884C255.356 101.08 254.24 102.928 252.536 104.272C250.832 105.616 248.732 106.288 246.236 106.288C244.268 106.288 242.516 105.868 240.98 105.028C239.468 104.188 238.28 102.988 237.416 101.428C236.576 99.868 236.156 98.044 236.156 95.956ZM268.321 106.288C266.353 106.288 264.577 105.868 262.993 105.028C261.433 104.188 260.197 102.988 259.285 101.428C258.397 99.868 257.953 98.044 257.953 95.956C257.953 93.892 258.409 92.08 259.321 90.52C260.233 88.936 261.481 87.724 263.065 86.884C264.649 86.044 266.425 85.624 268.393 85.624C270.361 85.624 272.137 86.044 273.721 86.884C275.305 87.724 276.553 88.936 277.465 90.52C278.377 92.08 278.833 93.892 278.833 95.956C278.833 98.02 278.365 99.844 277.429 101.428C276.517 102.988 275.257 104.188 273.649 105.028C272.065 105.868 270.289 106.288 268.321 106.288ZM268.321 100.96C269.497 100.96 270.493 100.528 271.309 99.664C272.149 98.8 272.569 97.564 272.569 95.956C272.569 94.348 272.161 93.112 271.345 92.248C270.553 91.384 269.569 90.952 268.393 90.952C267.193 90.952 266.197 91.384 265.405 92.248C264.613 93.088 264.217 94.324 264.217 95.956C264.217 97.564 264.601 98.8 265.369 99.664C266.161 100.528 267.145 100.96 268.321 100.96ZM288.255 89.26C288.975 88.156 289.875 87.292 290.955 86.668C292.035 86.02 293.235 85.696 294.555 85.696V92.212H292.863C291.327 92.212 290.175 92.548 289.407 93.22C288.639 93.868 288.255 95.02 288.255 96.676V106H282.099V85.912H288.255V89.26ZM316.434 95.632C316.434 96.208 316.398 96.808 316.326 97.432H302.394C302.49 98.68 302.886 99.64 303.582 100.312C304.302 100.96 305.178 101.284 306.21 101.284C307.746 101.284 308.814 100.636 309.414 99.34H315.966C315.63 100.66 315.018 101.848 314.13 102.904C313.266 103.96 312.174 104.788 310.854 105.388C309.534 105.988 308.058 106.288 306.426 106.288C304.458 106.288 302.706 105.868 301.17 105.028C299.634 104.188 298.434 102.988 297.57 101.428C296.706 99.868 296.274 98.044 296.274 95.956C296.274 93.868 296.694 92.044 297.534 90.484C298.398 88.924 299.598 87.724 301.134 86.884C302.67 86.044 304.434 85.624 306.426 85.624C308.37 85.624 310.098 86.032 311.61 86.848C313.122 87.664 314.298 88.828 315.138 90.34C316.002 91.852 316.434 93.616 316.434 95.632ZM310.134 94.012C310.134 92.956 309.774 92.116 309.054 91.492C308.334 90.868 307.434 90.556 306.354 90.556C305.322 90.556 304.446 90.856 303.726 91.456C303.03 92.056 302.598 92.908 302.43 94.012H310.134Z" fill="white"/>
<path d="M93.972 85.444V79.72H103.944V106H97.536V85.444H93.972ZM108.155 92.5C108.155 88.372 108.947 85.12 110.531 82.744C112.139 80.368 114.719 79.18 118.271 79.18C121.823 79.18 124.391 80.368 125.975 82.744C127.583 85.12 128.387 88.372 128.387 92.5C128.387 96.676 127.583 99.952 125.975 102.328C124.391 104.704 121.823 105.892 118.271 105.892C114.719 105.892 112.139 104.704 110.531 102.328C108.947 99.952 108.155 96.676 108.155 92.5ZM122.339 92.5C122.339 90.076 122.075 88.216 121.547 86.92C121.019 85.6 119.927 84.94 118.271 84.94C116.615 84.94 115.523 85.6 114.995 86.92C114.467 88.216 114.203 90.076 114.203 92.5C114.203 94.132 114.299 95.488 114.491 96.568C114.683 97.624 115.067 98.488 115.643 99.16C116.243 99.808 117.119 100.132 118.271 100.132C119.423 100.132 120.287 99.808 120.863 99.16C121.463 98.488 121.859 97.624 122.051 96.568C122.243 95.488 122.339 94.132 122.339 92.5Z" fill="white"/>
<defs>
<linearGradient id="paint0_linear_21_4711" x1="-1.49004e-06" y1="93" x2="307" y2="93" gradientUnits="userSpaceOnUse">
<stop stop-color="#8F00FF"/>
<stop offset="1"/>
</linearGradient>
<linearGradient id="paint1_linear_21_4711" x1="177.5" y1="93" x2="352.5" y2="97.5" gradientUnits="userSpaceOnUse">
<stop stop-color="#8F00FF"/>
<stop offset="1"/>
</linearGradient>
</defs>
</svg>
