<svg width="434" height="185" viewBox="0 0 434 185" fill="none" xmlns="http://www.w3.org/2000/svg">
<path d="M0 92.5C0 70.6848 17.6848 53 39.5 53H289.5L249.5 92L289.5 132H39.5C17.6847 132 0 114.315 0 92.5V92.5Z" fill="url(#paint0_linear_21_4936)"/>
<path d="M258.192 92.5L341.5 9.19239L424.808 92.5L341.5 175.808L258.192 92.5Z" stroke="url(#paint1_linear_21_4936)" stroke-width="13"/>
<path d="M300.376 106.252C298.528 106.252 296.872 105.952 295.408 105.352C293.944 104.752 292.768 103.864 291.88 102.688C291.016 101.512 290.56 100.096 290.512 98.44H297.064C297.16 99.376 297.484 100.096 298.036 100.6C298.588 101.08 299.308 101.32 300.196 101.32C301.108 101.32 301.828 101.116 302.356 100.708C302.884 100.276 303.148 99.688 303.148 98.944C303.148 98.32 302.932 97.804 302.5 97.396C302.092 96.988 301.576 96.652 300.952 96.388C300.352 96.124 299.488 95.824 298.36 95.488C296.728 94.984 295.396 94.48 294.364 93.976C293.332 93.472 292.444 92.728 291.7 91.744C290.956 90.76 290.584 89.476 290.584 87.892C290.584 85.54 291.436 83.704 293.14 82.384C294.844 81.04 297.064 80.368 299.8 80.368C302.584 80.368 304.828 81.04 306.532 82.384C308.236 83.704 309.148 85.552 309.268 87.928H302.608C302.56 87.112 302.26 86.476 301.708 86.02C301.156 85.54 300.448 85.3 299.584 85.3C298.84 85.3 298.24 85.504 297.784 85.912C297.328 86.296 297.1 86.86 297.1 87.604C297.1 88.42 297.484 89.056 298.252 89.512C299.02 89.968 300.22 90.46 301.852 90.988C303.484 91.54 304.804 92.068 305.812 92.572C306.844 93.076 307.732 93.808 308.476 94.768C309.22 95.728 309.592 96.964 309.592 98.476C309.592 99.916 309.22 101.224 308.476 102.4C307.756 103.576 306.7 104.512 305.308 105.208C303.916 105.904 302.272 106.252 300.376 106.252ZM312.156 95.956C312.156 93.868 312.576 92.044 313.416 90.484C314.28 88.924 315.468 87.724 316.98 86.884C318.516 86.044 320.268 85.624 322.236 85.624C324.756 85.624 326.856 86.284 328.536 87.604C330.24 88.924 331.356 90.784 331.884 93.184H325.332C324.78 91.648 323.712 90.88 322.128 90.88C321 90.88 320.1 91.324 319.428 92.212C318.756 93.076 318.42 94.324 318.42 95.956C318.42 97.588 318.756 98.848 319.428 99.736C320.1 100.6 321 101.032 322.128 101.032C323.712 101.032 324.78 100.264 325.332 98.728H331.884C331.356 101.08 330.24 102.928 328.536 104.272C326.832 105.616 324.732 106.288 322.236 106.288C320.268 106.288 318.516 105.868 316.98 105.028C315.468 104.188 314.28 102.988 313.416 101.428C312.576 99.868 312.156 98.044 312.156 95.956ZM344.321 106.288C342.353 106.288 340.577 105.868 338.993 105.028C337.433 104.188 336.197 102.988 335.285 101.428C334.397 99.868 333.953 98.044 333.953 95.956C333.953 93.892 334.409 92.08 335.321 90.52C336.233 88.936 337.481 87.724 339.065 86.884C340.649 86.044 342.425 85.624 344.393 85.624C346.361 85.624 348.137 86.044 349.721 86.884C351.305 87.724 352.553 88.936 353.465 90.52C354.377 92.08 354.833 93.892 354.833 95.956C354.833 98.02 354.365 99.844 353.429 101.428C352.517 102.988 351.257 104.188 349.649 105.028C348.065 105.868 346.289 106.288 344.321 106.288ZM344.321 100.96C345.497 100.96 346.493 100.528 347.309 99.664C348.149 98.8 348.569 97.564 348.569 95.956C348.569 94.348 348.161 93.112 347.345 92.248C346.553 91.384 345.569 90.952 344.393 90.952C343.193 90.952 342.197 91.384 341.405 92.248C340.613 93.088 340.217 94.324 340.217 95.956C340.217 97.564 340.601 98.8 341.369 99.664C342.161 100.528 343.145 100.96 344.321 100.96ZM364.255 89.26C364.975 88.156 365.875 87.292 366.955 86.668C368.035 86.02 369.235 85.696 370.555 85.696V92.212H368.863C367.327 92.212 366.175 92.548 365.407 93.22C364.639 93.868 364.255 95.02 364.255 96.676V106H358.099V85.912H364.255V89.26ZM392.434 95.632C392.434 96.208 392.398 96.808 392.326 97.432H378.394C378.49 98.68 378.886 99.64 379.582 100.312C380.302 100.96 381.178 101.284 382.21 101.284C383.746 101.284 384.814 100.636 385.414 99.34H391.966C391.63 100.66 391.018 101.848 390.13 102.904C389.266 103.96 388.174 104.788 386.854 105.388C385.534 105.988 384.058 106.288 382.426 106.288C380.458 106.288 378.706 105.868 377.17 105.028C375.634 104.188 374.434 102.988 373.57 101.428C372.706 99.868 372.274 98.044 372.274 95.956C372.274 93.868 372.694 92.044 373.534 90.484C374.398 88.924 375.598 87.724 377.134 86.884C378.67 86.044 380.434 85.624 382.426 85.624C384.37 85.624 386.098 86.032 387.61 86.848C389.122 87.664 390.298 88.828 391.138 90.34C392.002 91.852 392.434 93.616 392.434 95.632ZM386.134 94.012C386.134 92.956 385.774 92.116 385.054 91.492C384.334 90.868 383.434 90.556 382.354 90.556C381.322 90.556 380.446 90.856 379.726 91.456C379.03 92.056 378.598 92.908 378.43 94.012H386.134Z" fill="white"/>
<path d="M127.404 101.068C128.22 100.42 128.592 100.12 128.52 100.168C130.872 98.224 132.72 96.628 134.064 95.38C135.432 94.132 136.584 92.824 137.52 91.456C138.456 90.088 138.924 88.756 138.924 87.46C138.924 86.476 138.696 85.708 138.24 85.156C137.784 84.604 137.1 84.328 136.188 84.328C135.276 84.328 134.556 84.676 134.028 85.372C133.524 86.044 133.272 87.004 133.272 88.252H127.332C127.38 86.212 127.812 84.508 128.628 83.14C129.468 81.772 130.56 80.764 131.904 80.116C133.272 79.468 134.784 79.144 136.44 79.144C139.296 79.144 141.444 79.876 142.884 81.34C144.348 82.804 145.08 84.712 145.08 87.064C145.08 89.632 144.204 92.02 142.452 94.228C140.7 96.412 138.468 98.548 135.756 100.636H145.476V105.64H127.404V101.068ZM148.186 92.5C148.186 88.372 148.978 85.12 150.562 82.744C152.17 80.368 154.75 79.18 158.302 79.18C161.854 79.18 164.422 80.368 166.006 82.744C167.614 85.12 168.418 88.372 168.418 92.5C168.418 96.676 167.614 99.952 166.006 102.328C164.422 104.704 161.854 105.892 158.302 105.892C154.75 105.892 152.17 104.704 150.562 102.328C148.978 99.952 148.186 96.676 148.186 92.5ZM162.37 92.5C162.37 90.076 162.106 88.216 161.578 86.92C161.05 85.6 159.958 84.94 158.302 84.94C156.646 84.94 155.554 85.6 155.026 86.92C154.498 88.216 154.234 90.076 154.234 92.5C154.234 94.132 154.33 95.488 154.522 96.568C154.714 97.624 155.098 98.488 155.674 99.16C156.274 99.808 157.15 100.132 158.302 100.132C159.454 100.132 160.318 99.808 160.894 99.16C161.494 98.488 161.89 97.624 162.082 96.568C162.274 95.488 162.37 94.132 162.37 92.5Z" fill="white"/>
<defs>
<linearGradient id="paint0_linear_21_4936" x1="-2.09864e-06" y1="93" x2="432.394" y2="93" gradientUnits="userSpaceOnUse">
<stop stop-color="#8F00FF"/>
<stop offset="1"/>
</linearGradient>
<linearGradient id="paint1_linear_21_4936" x1="253.5" y1="93" x2="428.5" y2="97.5" gradientUnits="userSpaceOnUse">
<stop stop-color="#8F00FF"/>
<stop offset="1"/>
</linearGradient>
</defs>
</svg>
