<svg width="780" height="782" viewBox="0 0 780 782" fill="none" xmlns="http://www.w3.org/2000/svg">
<path d="M9.19239 392L390 11.1924L770.808 392L390 772.808L9.19239 392Z" stroke="#8F00FF" stroke-width="13"/>
<path d="M286.4 184.9L277.25 220H266.9L261.3 196.9L255.5 220H245.15L236.25 184.9H245.4L250.45 210.45L256.7 184.9H266.1L272.1 210.45L277.2 184.9H286.4ZM303.388 220.4C300.655 220.4 298.188 219.817 295.988 218.65C293.821 217.483 292.105 215.817 290.838 213.65C289.605 211.483 288.988 208.95 288.988 206.05C288.988 203.183 289.621 200.667 290.888 198.5C292.155 196.3 293.888 194.617 296.088 193.45C298.288 192.283 300.755 191.7 303.488 191.7C306.221 191.7 308.688 192.283 310.888 193.45C313.088 194.617 314.821 196.3 316.088 198.5C317.355 200.667 317.988 203.183 317.988 206.05C317.988 208.917 317.338 211.45 316.038 213.65C314.771 215.817 313.021 217.483 310.788 218.65C308.588 219.817 306.121 220.4 303.388 220.4ZM303.388 213C305.021 213 306.405 212.4 307.538 211.2C308.705 210 309.288 208.283 309.288 206.05C309.288 203.817 308.721 202.1 307.588 200.9C306.488 199.7 305.121 199.1 303.488 199.1C301.821 199.1 300.438 199.7 299.338 200.9C298.238 202.067 297.688 203.783 297.688 206.05C297.688 208.283 298.221 210 299.288 211.2C300.388 212.4 301.755 213 303.388 213ZM331.074 196.75C332.074 195.217 333.324 194.017 334.824 193.15C336.324 192.25 337.99 191.8 339.824 191.8V200.85H337.474C335.34 200.85 333.74 201.317 332.674 202.25C331.607 203.15 331.074 204.75 331.074 207.05V220H322.524V192.1H331.074V196.75ZM342.211 206C342.211 203.133 342.744 200.617 343.811 198.45C344.911 196.283 346.394 194.617 348.261 193.45C350.127 192.283 352.211 191.7 354.511 191.7C356.344 191.7 358.011 192.083 359.511 192.85C361.044 193.617 362.244 194.65 363.111 195.95V183H371.661V220H363.111V216C362.311 217.333 361.161 218.4 359.661 219.2C358.194 220 356.477 220.4 354.511 220.4C352.211 220.4 350.127 219.817 348.261 218.65C346.394 217.45 344.911 215.767 343.811 213.6C342.744 211.4 342.211 208.867 342.211 206ZM363.111 206.05C363.111 203.917 362.511 202.233 361.311 201C360.144 199.767 358.711 199.15 357.011 199.15C355.311 199.15 353.861 199.767 352.661 201C351.494 202.2 350.911 203.867 350.911 206C350.911 208.133 351.494 209.833 352.661 211.1C353.861 212.333 355.311 212.95 357.011 212.95C358.711 212.95 360.144 212.333 361.311 211.1C362.511 209.867 363.111 208.183 363.111 206.05ZM401.142 220.35C398.575 220.35 396.275 219.933 394.242 219.1C392.208 218.267 390.575 217.033 389.342 215.4C388.142 213.767 387.508 211.8 387.442 209.5H396.542C396.675 210.8 397.125 211.8 397.892 212.5C398.658 213.167 399.658 213.5 400.892 213.5C402.158 213.5 403.158 213.217 403.892 212.65C404.625 212.05 404.992 211.233 404.992 210.2C404.992 209.333 404.692 208.617 404.092 208.05C403.525 207.483 402.808 207.017 401.942 206.65C401.108 206.283 399.908 205.867 398.342 205.4C396.075 204.7 394.225 204 392.792 203.3C391.358 202.6 390.125 201.567 389.092 200.2C388.058 198.833 387.542 197.05 387.542 194.85C387.542 191.583 388.725 189.033 391.092 187.2C393.458 185.333 396.542 184.4 400.342 184.4C404.208 184.4 407.325 185.333 409.692 187.2C412.058 189.033 413.325 191.6 413.492 194.9H404.242C404.175 193.767 403.758 192.883 402.992 192.25C402.225 191.583 401.242 191.25 400.042 191.25C399.008 191.25 398.175 191.533 397.542 192.1C396.908 192.633 396.592 193.417 396.592 194.45C396.592 195.583 397.125 196.467 398.192 197.1C399.258 197.733 400.925 198.417 403.192 199.15C405.458 199.917 407.292 200.65 408.692 201.35C410.125 202.05 411.358 203.067 412.392 204.4C413.425 205.733 413.942 207.45 413.942 209.55C413.942 211.55 413.425 213.367 412.392 215C411.392 216.633 409.925 217.933 407.992 218.9C406.058 219.867 403.775 220.35 401.142 220.35ZM434.754 212.75V220H430.404C427.304 220 424.887 219.25 423.154 217.75C421.42 216.217 420.554 213.733 420.554 210.3V199.2H417.154V192.1H420.554V185.3H429.104V192.1H434.704V199.2H429.104V210.4C429.104 211.233 429.304 211.833 429.704 212.2C430.104 212.567 430.77 212.75 431.704 212.75H434.754ZM448.066 196.75C449.066 195.217 450.316 194.017 451.816 193.15C453.316 192.25 454.983 191.8 456.816 191.8V200.85H454.466C452.333 200.85 450.733 201.317 449.666 202.25C448.599 203.15 448.066 204.75 448.066 207.05V220H439.516V192.1H448.066V196.75ZM487.203 205.6C487.203 206.4 487.153 207.233 487.053 208.1H467.703C467.836 209.833 468.386 211.167 469.353 212.1C470.353 213 471.569 213.45 473.003 213.45C475.136 213.45 476.619 212.55 477.453 210.75H486.553C486.086 212.583 485.236 214.233 484.003 215.7C482.803 217.167 481.286 218.317 479.453 219.15C477.619 219.983 475.569 220.4 473.303 220.4C470.569 220.4 468.136 219.817 466.003 218.65C463.869 217.483 462.203 215.817 461.003 213.65C459.803 211.483 459.203 208.95 459.203 206.05C459.203 203.15 459.786 200.617 460.953 198.45C462.153 196.283 463.819 194.617 465.953 193.45C468.086 192.283 470.536 191.7 473.303 191.7C476.003 191.7 478.403 192.267 480.503 193.4C482.603 194.533 484.236 196.15 485.403 198.25C486.603 200.35 487.203 202.8 487.203 205.6ZM478.453 203.35C478.453 201.883 477.953 200.717 476.953 199.85C475.953 198.983 474.703 198.55 473.203 198.55C471.769 198.55 470.553 198.967 469.553 199.8C468.586 200.633 467.986 201.817 467.753 203.35H478.453ZM503.063 220.4C500.63 220.4 498.463 219.983 496.563 219.15C494.663 218.317 493.163 217.183 492.063 215.75C490.963 214.283 490.347 212.65 490.213 210.85H498.663C498.763 211.817 499.213 212.6 500.013 213.2C500.813 213.8 501.797 214.1 502.963 214.1C504.03 214.1 504.847 213.9 505.413 213.5C506.013 213.067 506.313 212.517 506.313 211.85C506.313 211.05 505.897 210.467 505.063 210.1C504.23 209.7 502.88 209.267 501.013 208.8C499.013 208.333 497.347 207.85 496.013 207.35C494.68 206.817 493.53 206 492.563 204.9C491.597 203.767 491.113 202.25 491.113 200.35C491.113 198.75 491.547 197.3 492.413 196C493.313 194.667 494.613 193.617 496.313 192.85C498.047 192.083 500.097 191.7 502.463 191.7C505.963 191.7 508.713 192.567 510.713 194.3C512.747 196.033 513.913 198.333 514.213 201.2H506.313C506.18 200.233 505.747 199.467 505.013 198.9C504.313 198.333 503.38 198.05 502.213 198.05C501.213 198.05 500.447 198.25 499.913 198.65C499.38 199.017 499.113 199.533 499.113 200.2C499.113 201 499.53 201.6 500.363 202C501.23 202.4 502.563 202.8 504.363 203.2C506.43 203.733 508.113 204.267 509.413 204.8C510.713 205.3 511.847 206.133 512.813 207.3C513.813 208.433 514.33 209.967 514.363 211.9C514.363 213.533 513.897 215 512.963 216.3C512.063 217.567 510.747 218.567 509.013 219.3C507.313 220.033 505.33 220.4 503.063 220.4ZM530.944 220.4C528.511 220.4 526.344 219.983 524.444 219.15C522.544 218.317 521.044 217.183 519.944 215.75C518.844 214.283 518.227 212.65 518.094 210.85H526.544C526.644 211.817 527.094 212.6 527.894 213.2C528.694 213.8 529.677 214.1 530.844 214.1C531.911 214.1 532.727 213.9 533.294 213.5C533.894 213.067 534.194 212.517 534.194 211.85C534.194 211.05 533.777 210.467 532.944 210.1C532.111 209.7 530.761 209.267 528.894 208.8C526.894 208.333 525.227 207.85 523.894 207.35C522.561 206.817 521.411 206 520.444 204.9C519.477 203.767 518.994 202.25 518.994 200.35C518.994 198.75 519.427 197.3 520.294 196C521.194 194.667 522.494 193.617 524.194 192.85C525.927 192.083 527.977 191.7 530.344 191.7C533.844 191.7 536.594 192.567 538.594 194.3C540.627 196.033 541.794 198.333 542.094 201.2H534.194C534.061 200.233 533.627 199.467 532.894 198.9C532.194 198.333 531.261 198.05 530.094 198.05C529.094 198.05 528.327 198.25 527.794 198.65C527.261 199.017 526.994 199.533 526.994 200.2C526.994 201 527.411 201.6 528.244 202C529.111 202.4 530.444 202.8 532.244 203.2C534.311 203.733 535.994 204.267 537.294 204.8C538.594 205.3 539.727 206.133 540.694 207.3C541.694 208.433 542.211 209.967 542.244 211.9C542.244 213.533 541.777 215 540.844 216.3C539.944 217.567 538.627 218.567 536.894 219.3C535.194 220.033 533.211 220.4 530.944 220.4Z" fill="white"/>
<path d="M235 240H545" stroke="#8A08F0" stroke-width="13" stroke-linecap="round"/>
<path d="M254.292 339.768C254.292 341.069 253.993 342.264 253.396 343.352C252.798 344.419 251.881 345.283 250.644 345.944C249.406 346.605 247.87 346.936 246.036 346.936H242.644V355H237.172V332.536H246.036C247.828 332.536 249.342 332.845 250.58 333.464C251.817 334.083 252.745 334.936 253.364 336.024C253.982 337.112 254.292 338.36 254.292 339.768ZM245.62 342.584C246.665 342.584 247.444 342.339 247.956 341.848C248.468 341.357 248.724 340.664 248.724 339.768C248.724 338.872 248.468 338.179 247.956 337.688C247.444 337.197 246.665 336.952 245.62 336.952H242.644V342.584H245.62ZM275.38 337.144L264.18 363.48H258.292L262.388 354.392L255.124 337.144H261.236L265.364 348.312L269.46 337.144H275.38ZM287.311 350.36V355H284.527C282.543 355 280.996 354.52 279.887 353.56C278.778 352.579 278.223 350.989 278.223 348.792V341.688H276.047V337.144H278.223V332.792H283.695V337.144H287.279V341.688H283.695V348.856C283.695 349.389 283.823 349.773 284.079 350.008C284.335 350.243 284.762 350.36 285.359 350.36H287.311ZM301.335 336.952C303.383 336.952 305.026 337.635 306.263 339C307.5 340.344 308.119 342.2 308.119 344.568V355H302.679V345.304C302.679 344.109 302.37 343.181 301.751 342.52C301.132 341.859 300.3 341.528 299.255 341.528C298.21 341.528 297.378 341.859 296.759 342.52C296.14 343.181 295.831 344.109 295.831 345.304V355H290.359V331.32H295.831V339.544C296.386 338.755 297.143 338.125 298.103 337.656C299.063 337.187 300.14 336.952 301.335 336.952ZM320.05 355.256C318.3 355.256 316.722 354.883 315.314 354.136C313.927 353.389 312.828 352.323 312.018 350.936C311.228 349.549 310.834 347.928 310.834 346.072C310.834 344.237 311.239 342.627 312.049 341.24C312.86 339.832 313.97 338.755 315.378 338.008C316.786 337.261 318.364 336.888 320.114 336.888C321.863 336.888 323.442 337.261 324.85 338.008C326.258 338.755 327.367 339.832 328.178 341.24C328.988 342.627 329.394 344.237 329.394 346.072C329.394 347.907 328.978 349.528 328.146 350.936C327.335 352.323 326.215 353.389 324.786 354.136C323.378 354.883 321.799 355.256 320.05 355.256ZM320.05 350.52C321.095 350.52 321.98 350.136 322.706 349.368C323.452 348.6 323.826 347.501 323.826 346.072C323.826 344.643 323.463 343.544 322.738 342.776C322.034 342.008 321.159 341.624 320.114 341.624C319.047 341.624 318.162 342.008 317.458 342.776C316.754 343.523 316.402 344.621 316.402 346.072C316.402 347.501 316.743 348.6 317.426 349.368C318.13 350.136 319.004 350.52 320.05 350.52ZM343.177 336.952C345.267 336.952 346.931 337.635 348.169 339C349.427 340.344 350.057 342.2 350.057 344.568V355H344.617V345.304C344.617 344.109 344.307 343.181 343.689 342.52C343.07 341.859 342.238 341.528 341.193 341.528C340.147 341.528 339.315 341.859 338.697 342.52C338.078 343.181 337.769 344.109 337.769 345.304V355H332.297V337.144H337.769V339.512C338.323 338.723 339.07 338.104 340.009 337.656C340.947 337.187 342.003 336.952 343.177 336.952ZM366.528 349.944L362.976 359.128H359.488L361.344 349.944H366.528ZM387.585 336.952C389.633 336.952 391.276 337.635 392.513 339C393.75 340.344 394.369 342.2 394.369 344.568V355H388.929V345.304C388.929 344.109 388.62 343.181 388.001 342.52C387.382 341.859 386.55 341.528 385.505 341.528C384.46 341.528 383.628 341.859 383.009 342.52C382.39 343.181 382.081 344.109 382.081 345.304V355H376.609V331.32H382.081V339.544C382.636 338.755 383.393 338.125 384.353 337.656C385.313 337.187 386.39 336.952 387.585 336.952ZM400.924 335.288C399.964 335.288 399.174 335.011 398.556 334.456C397.958 333.88 397.66 333.176 397.66 332.344C397.66 331.491 397.958 330.787 398.556 330.232C399.174 329.656 399.964 329.368 400.924 329.368C401.862 329.368 402.63 329.656 403.228 330.232C403.846 330.787 404.156 331.491 404.156 332.344C404.156 333.176 403.846 333.88 403.228 334.456C402.63 335.011 401.862 335.288 400.924 335.288ZM403.644 337.144V355H398.172V337.144H403.644ZM414.393 336.888C415.652 336.888 416.75 337.144 417.689 337.656C418.649 338.168 419.385 338.84 419.897 339.672V337.144H425.369V354.968C425.369 356.611 425.038 358.093 424.377 359.416C423.737 360.76 422.745 361.827 421.401 362.616C420.078 363.405 418.425 363.8 416.441 363.8C413.796 363.8 411.652 363.171 410.009 361.912C408.366 360.675 407.428 358.989 407.193 356.856H412.601C412.772 357.539 413.177 358.072 413.817 358.456C414.457 358.861 415.246 359.064 416.185 359.064C417.316 359.064 418.212 358.733 418.873 358.072C419.556 357.432 419.897 356.397 419.897 354.968V352.44C419.364 353.272 418.628 353.955 417.689 354.488C416.75 355 415.652 355.256 414.393 355.256C412.921 355.256 411.588 354.883 410.393 354.136C409.198 353.368 408.249 352.291 407.545 350.904C406.862 349.496 406.521 347.875 406.521 346.04C406.521 344.205 406.862 342.595 407.545 341.208C408.249 339.821 409.198 338.755 410.393 338.008C411.588 337.261 412.921 336.888 414.393 336.888ZM419.897 346.072C419.897 344.707 419.513 343.629 418.745 342.84C417.998 342.051 417.081 341.656 415.993 341.656C414.905 341.656 413.977 342.051 413.209 342.84C412.462 343.608 412.089 344.675 412.089 346.04C412.089 347.405 412.462 348.493 413.209 349.304C413.977 350.093 414.905 350.488 415.993 350.488C417.081 350.488 417.998 350.093 418.745 349.304C419.513 348.515 419.897 347.437 419.897 346.072ZM440.304 336.952C442.352 336.952 443.994 337.635 445.232 339C446.469 340.344 447.088 342.2 447.088 344.568V355H441.648V345.304C441.648 344.109 441.338 343.181 440.72 342.52C440.101 341.859 439.269 341.528 438.224 341.528C437.178 341.528 436.346 341.859 435.728 342.52C435.109 343.181 434.8 344.109 434.8 345.304V355H429.328V331.32H434.8V339.544C435.354 338.755 436.112 338.125 437.072 337.656C438.032 337.187 439.109 336.952 440.304 336.952ZM464.65 341.496V346.04H450.57V341.496H464.65ZM474.925 331.32V355H469.453V331.32H474.925ZM495.722 345.784C495.722 346.296 495.69 346.829 495.626 347.384H483.242C483.328 348.493 483.68 349.347 484.298 349.944C484.938 350.52 485.717 350.808 486.634 350.808C488 350.808 488.949 350.232 489.482 349.08H495.306C495.008 350.253 494.464 351.309 493.674 352.248C492.906 353.187 491.936 353.923 490.762 354.456C489.589 354.989 488.277 355.256 486.826 355.256C485.077 355.256 483.52 354.883 482.154 354.136C480.789 353.389 479.722 352.323 478.954 350.936C478.186 349.549 477.802 347.928 477.802 346.072C477.802 344.216 478.176 342.595 478.922 341.208C479.69 339.821 480.757 338.755 482.122 338.008C483.488 337.261 485.056 336.888 486.826 336.888C488.554 336.888 490.09 337.251 491.434 337.976C492.778 338.701 493.824 339.736 494.57 341.08C495.338 342.424 495.722 343.992 495.722 345.784ZM490.122 344.344C490.122 343.405 489.802 342.659 489.162 342.104C488.522 341.549 487.722 341.272 486.762 341.272C485.845 341.272 485.066 341.539 484.426 342.072C483.808 342.605 483.424 343.363 483.274 344.344H490.122ZM506.641 349.88L510.513 337.144H516.337L510.001 355H503.249L496.913 337.144H502.769L506.641 349.88ZM535.472 345.784C535.472 346.296 535.44 346.829 535.376 347.384H522.992C523.078 348.493 523.43 349.347 524.048 349.944C524.688 350.52 525.467 350.808 526.384 350.808C527.75 350.808 528.699 350.232 529.232 349.08H535.056C534.758 350.253 534.214 351.309 533.424 352.248C532.656 353.187 531.686 353.923 530.512 354.456C529.339 354.989 528.027 355.256 526.576 355.256C524.827 355.256 523.27 354.883 521.904 354.136C520.539 353.389 519.472 352.323 518.704 350.936C517.936 349.549 517.552 347.928 517.552 346.072C517.552 344.216 517.926 342.595 518.672 341.208C519.44 339.821 520.507 338.755 521.872 338.008C523.238 337.261 524.806 336.888 526.576 336.888C528.304 336.888 529.84 337.251 531.184 337.976C532.528 338.701 533.574 339.736 534.32 341.08C535.088 342.424 535.472 343.992 535.472 345.784ZM529.872 344.344C529.872 343.405 529.552 342.659 528.912 342.104C528.272 341.549 527.472 341.272 526.512 341.272C525.595 341.272 524.816 341.539 524.176 342.072C523.558 342.605 523.174 343.363 523.024 344.344H529.872ZM543.831 331.32V355H538.359V331.32H543.831ZM238.818 394.04C238.818 392.205 239.159 390.595 239.842 389.208C240.546 387.821 241.495 386.755 242.69 386.008C243.885 385.261 245.218 384.888 246.69 384.888C247.949 384.888 249.047 385.144 249.986 385.656C250.946 386.168 251.682 386.84 252.194 387.672V385.144H257.666V403H252.194V400.472C251.661 401.304 250.914 401.976 249.954 402.488C249.015 403 247.917 403.256 246.658 403.256C245.207 403.256 243.885 402.883 242.69 402.136C241.495 401.368 240.546 400.291 239.842 398.904C239.159 397.496 238.818 395.875 238.818 394.04ZM252.194 394.072C252.194 392.707 251.81 391.629 251.042 390.84C250.295 390.051 249.378 389.656 248.29 389.656C247.202 389.656 246.274 390.051 245.506 390.84C244.759 391.608 244.386 392.675 244.386 394.04C244.386 395.405 244.759 396.493 245.506 397.304C246.274 398.093 247.202 398.488 248.29 398.488C249.378 398.488 250.295 398.093 251.042 397.304C251.81 396.515 252.194 395.437 252.194 394.072ZM272.505 384.952C274.595 384.952 276.259 385.635 277.497 387C278.755 388.344 279.385 390.2 279.385 392.568V403H273.945V393.304C273.945 392.109 273.635 391.181 273.017 390.52C272.398 389.859 271.566 389.528 270.521 389.528C269.475 389.528 268.643 389.859 268.025 390.52C267.406 391.181 267.097 392.109 267.097 393.304V403H261.625V385.144H267.097V387.512C267.651 386.723 268.398 386.104 269.337 385.656C270.275 385.187 271.331 384.952 272.505 384.952ZM282.099 394.04C282.099 392.205 282.44 390.595 283.123 389.208C283.827 387.821 284.776 386.755 285.971 386.008C287.166 385.261 288.499 384.888 289.971 384.888C291.144 384.888 292.211 385.133 293.171 385.624C294.152 386.115 294.92 386.776 295.475 387.608V379.32H300.947V403H295.475V400.44C294.963 401.293 294.227 401.976 293.267 402.488C292.328 403 291.23 403.256 289.971 403.256C288.499 403.256 287.166 402.883 285.971 402.136C284.776 401.368 283.827 400.291 283.123 398.904C282.44 397.496 282.099 395.875 282.099 394.04ZM295.475 394.072C295.475 392.707 295.091 391.629 294.323 390.84C293.576 390.051 292.659 389.656 291.571 389.656C290.483 389.656 289.555 390.051 288.787 390.84C288.04 391.608 287.667 392.675 287.667 394.04C287.667 395.405 288.04 396.493 288.787 397.304C289.555 398.093 290.483 398.488 291.571 398.488C292.659 398.488 293.576 398.093 294.323 397.304C295.091 396.515 295.475 395.437 295.475 394.072ZM317.159 387.672C317.692 386.84 318.428 386.168 319.367 385.656C320.306 385.144 321.404 384.888 322.663 384.888C324.135 384.888 325.468 385.261 326.663 386.008C327.858 386.755 328.796 387.821 329.479 389.208C330.183 390.595 330.535 392.205 330.535 394.04C330.535 395.875 330.183 397.496 329.479 398.904C328.796 400.291 327.858 401.368 326.663 402.136C325.468 402.883 324.135 403.256 322.663 403.256C321.426 403.256 320.327 403 319.367 402.488C318.428 401.976 317.692 401.315 317.159 400.504V411.512H311.687V385.144H317.159V387.672ZM324.967 394.04C324.967 392.675 324.583 391.608 323.815 390.84C323.068 390.051 322.14 389.656 321.031 389.656C319.943 389.656 319.015 390.051 318.247 390.84C317.5 391.629 317.127 392.707 317.127 394.072C317.127 395.437 317.5 396.515 318.247 397.304C319.015 398.093 319.943 398.488 321.031 398.488C322.119 398.488 323.047 398.093 323.815 397.304C324.583 396.493 324.967 395.405 324.967 394.04ZM338.878 388.12C339.518 387.139 340.318 386.371 341.278 385.816C342.238 385.24 343.305 384.952 344.478 384.952V390.744H342.974C341.609 390.744 340.585 391.043 339.902 391.64C339.219 392.216 338.878 393.24 338.878 394.712V403H333.406V385.144H338.878V388.12ZM355.221 403.256C353.472 403.256 351.893 402.883 350.485 402.136C349.099 401.389 348 400.323 347.189 398.936C346.4 397.549 346.005 395.928 346.005 394.072C346.005 392.237 346.411 390.627 347.221 389.24C348.032 387.832 349.141 386.755 350.549 386.008C351.957 385.261 353.536 384.888 355.285 384.888C357.035 384.888 358.613 385.261 360.021 386.008C361.429 386.755 362.539 387.832 363.349 389.24C364.16 390.627 364.565 392.237 364.565 394.072C364.565 395.907 364.149 397.528 363.317 398.936C362.507 400.323 361.387 401.389 359.957 402.136C358.549 402.883 356.971 403.256 355.221 403.256ZM355.221 398.52C356.267 398.52 357.152 398.136 357.877 397.368C358.624 396.6 358.997 395.501 358.997 394.072C358.997 392.643 358.635 391.544 357.909 390.776C357.205 390.008 356.331 389.624 355.285 389.624C354.219 389.624 353.333 390.008 352.629 390.776C351.925 391.523 351.573 392.621 351.573 394.072C351.573 395.501 351.915 396.6 352.597 397.368C353.301 398.136 354.176 398.52 355.221 398.52ZM374.252 384.888C375.511 384.888 376.61 385.144 377.548 385.656C378.508 386.168 379.244 386.84 379.756 387.672V385.144H385.228V402.968C385.228 404.611 384.898 406.093 384.236 407.416C383.596 408.76 382.604 409.827 381.26 410.616C379.938 411.405 378.284 411.8 376.3 411.8C373.655 411.8 371.511 411.171 369.868 409.912C368.226 408.675 367.287 406.989 367.052 404.856H372.46C372.631 405.539 373.036 406.072 373.676 406.456C374.316 406.861 375.106 407.064 376.044 407.064C377.175 407.064 378.071 406.733 378.732 406.072C379.415 405.432 379.756 404.397 379.756 402.968V400.44C379.223 401.272 378.487 401.955 377.548 402.488C376.61 403 375.511 403.256 374.252 403.256C372.78 403.256 371.447 402.883 370.252 402.136C369.058 401.368 368.108 400.291 367.404 398.904C366.722 397.496 366.38 395.875 366.38 394.04C366.38 392.205 366.722 390.595 367.404 389.208C368.108 387.821 369.058 386.755 370.252 386.008C371.447 385.261 372.78 384.888 374.252 384.888ZM379.756 394.072C379.756 392.707 379.372 391.629 378.604 390.84C377.858 390.051 376.94 389.656 375.852 389.656C374.764 389.656 373.836 390.051 373.068 390.84C372.322 391.608 371.948 392.675 371.948 394.04C371.948 395.405 372.322 396.493 373.068 397.304C373.836 398.093 374.764 398.488 375.852 398.488C376.94 398.488 377.858 398.093 378.604 397.304C379.372 396.515 379.756 395.437 379.756 394.072ZM394.659 388.12C395.299 387.139 396.099 386.371 397.059 385.816C398.019 385.24 399.086 384.952 400.259 384.952V390.744H398.755C397.39 390.744 396.366 391.043 395.683 391.64C395 392.216 394.659 393.24 394.659 394.712V403H389.187V385.144H394.659V388.12ZM401.787 394.04C401.787 392.205 402.128 390.595 402.811 389.208C403.515 387.821 404.464 386.755 405.659 386.008C406.853 385.261 408.187 384.888 409.659 384.888C410.917 384.888 412.016 385.144 412.955 385.656C413.915 386.168 414.651 386.84 415.163 387.672V385.144H420.635V403H415.163V400.472C414.629 401.304 413.883 401.976 412.923 402.488C411.984 403 410.885 403.256 409.627 403.256C408.176 403.256 406.853 402.883 405.659 402.136C404.464 401.368 403.515 400.291 402.811 398.904C402.128 397.496 401.787 395.875 401.787 394.04ZM415.163 394.072C415.163 392.707 414.779 391.629 414.011 390.84C413.264 390.051 412.347 389.656 411.259 389.656C410.171 389.656 409.243 390.051 408.475 390.84C407.728 391.608 407.355 392.675 407.355 394.04C407.355 395.405 407.728 396.493 408.475 397.304C409.243 398.093 410.171 398.488 411.259 398.488C412.347 398.488 413.264 398.093 414.011 397.304C414.779 396.515 415.163 395.437 415.163 394.072ZM447.377 384.952C449.596 384.952 451.356 385.624 452.657 386.968C453.98 388.312 454.641 390.179 454.641 392.568V403H449.201V393.304C449.201 392.152 448.892 391.267 448.273 390.648C447.676 390.008 446.844 389.688 445.777 389.688C444.711 389.688 443.868 390.008 443.249 390.648C442.652 391.267 442.353 392.152 442.353 393.304V403H436.913V393.304C436.913 392.152 436.604 391.267 435.985 390.648C435.388 390.008 434.556 389.688 433.489 389.688C432.423 389.688 431.58 390.008 430.961 390.648C430.364 391.267 430.065 392.152 430.065 393.304V403H424.593V385.144H430.065V387.384C430.62 386.637 431.345 386.051 432.241 385.624C433.137 385.176 434.151 384.952 435.281 384.952C436.625 384.952 437.82 385.24 438.865 385.816C439.932 386.392 440.764 387.213 441.361 388.28C441.98 387.299 442.823 386.499 443.889 385.88C444.956 385.261 446.119 384.952 447.377 384.952ZM481.252 384.952C483.471 384.952 485.231 385.624 486.532 386.968C487.855 388.312 488.516 390.179 488.516 392.568V403H483.076V393.304C483.076 392.152 482.767 391.267 482.148 390.648C481.551 390.008 480.719 389.688 479.652 389.688C478.586 389.688 477.743 390.008 477.124 390.648C476.527 391.267 476.228 392.152 476.228 393.304V403H470.788V393.304C470.788 392.152 470.479 391.267 469.86 390.648C469.263 390.008 468.431 389.688 467.364 389.688C466.298 389.688 465.455 390.008 464.836 390.648C464.239 391.267 463.94 392.152 463.94 393.304V403H458.468V385.144H463.94V387.384C464.495 386.637 465.22 386.051 466.116 385.624C467.012 385.176 468.026 384.952 469.156 384.952C470.5 384.952 471.695 385.24 472.74 385.816C473.807 386.392 474.639 387.213 475.236 388.28C475.855 387.299 476.698 386.499 477.764 385.88C478.831 385.261 479.994 384.952 481.252 384.952ZM495.095 383.288C494.135 383.288 493.346 383.011 492.727 382.456C492.13 381.88 491.831 381.176 491.831 380.344C491.831 379.491 492.13 378.787 492.727 378.232C493.346 377.656 494.135 377.368 495.095 377.368C496.034 377.368 496.802 377.656 497.399 378.232C498.018 378.787 498.327 379.491 498.327 380.344C498.327 381.176 498.018 381.88 497.399 382.456C496.802 383.011 496.034 383.288 495.095 383.288ZM497.815 385.144V403H492.343V385.144H497.815ZM512.661 384.952C514.752 384.952 516.416 385.635 517.653 387C518.912 388.344 519.541 390.2 519.541 392.568V403H514.101V393.304C514.101 392.109 513.792 391.181 513.173 390.52C512.554 389.859 511.722 389.528 510.677 389.528C509.632 389.528 508.8 389.859 508.181 390.52C507.562 391.181 507.253 392.109 507.253 393.304V403H501.781V385.144H507.253V387.512C507.808 386.723 508.554 386.104 509.493 385.656C510.432 385.187 511.488 384.952 512.661 384.952ZM530.127 384.888C531.386 384.888 532.485 385.144 533.423 385.656C534.383 386.168 535.119 386.84 535.631 387.672V385.144H541.103V402.968C541.103 404.611 540.773 406.093 540.111 407.416C539.471 408.76 538.479 409.827 537.135 410.616C535.813 411.405 534.159 411.8 532.175 411.8C529.53 411.8 527.386 411.171 525.743 409.912C524.101 408.675 523.162 406.989 522.927 404.856H528.335C528.506 405.539 528.911 406.072 529.551 406.456C530.191 406.861 530.981 407.064 531.919 407.064C533.05 407.064 533.946 406.733 534.607 406.072C535.29 405.432 535.631 404.397 535.631 402.968V400.44C535.098 401.272 534.362 401.955 533.423 402.488C532.485 403 531.386 403.256 530.127 403.256C528.655 403.256 527.322 402.883 526.127 402.136C524.933 401.368 523.983 400.291 523.279 398.904C522.597 397.496 522.255 395.875 522.255 394.04C522.255 392.205 522.597 390.595 523.279 389.208C523.983 387.821 524.933 386.755 526.127 386.008C527.322 385.261 528.655 384.888 530.127 384.888ZM535.631 394.072C535.631 392.707 535.247 391.629 534.479 390.84C533.733 390.051 532.815 389.656 531.727 389.656C530.639 389.656 529.711 390.051 528.943 390.84C528.197 391.608 527.823 392.675 527.823 394.04C527.823 395.405 528.197 396.493 528.943 397.304C529.711 398.093 530.639 398.488 531.727 398.488C532.815 398.488 533.733 398.093 534.479 397.304C535.247 396.515 535.631 395.437 535.631 394.072Z" fill="white"/>
<rect x="274" y="525" width="232" height="66" rx="33" fill="#8A08F0"/>
<path d="M314.055 569L306.503 559.08V569H301.031V546.536H306.503V556.392L313.991 546.536H320.423L311.719 557.544L320.743 569H314.055ZM334.223 550.952C336.314 550.952 337.978 551.635 339.215 553C340.474 554.344 341.103 556.2 341.103 558.568V569H335.663V559.304C335.663 558.109 335.354 557.181 334.735 556.52C334.117 555.859 333.285 555.528 332.239 555.528C331.194 555.528 330.362 555.859 329.743 556.52C329.125 557.181 328.815 558.109 328.815 559.304V569H323.343V551.144H328.815V553.512C329.37 552.723 330.117 552.104 331.055 551.656C331.994 551.187 333.05 550.952 334.223 550.952ZM353.034 569.256C351.285 569.256 349.706 568.883 348.298 568.136C346.911 567.389 345.813 566.323 345.002 564.936C344.213 563.549 343.818 561.928 343.818 560.072C343.818 558.237 344.223 556.627 345.034 555.24C345.845 553.832 346.954 552.755 348.362 552.008C349.77 551.261 351.349 550.888 353.098 550.888C354.847 550.888 356.426 551.261 357.834 552.008C359.242 552.755 360.351 553.832 361.162 555.24C361.973 556.627 362.378 558.237 362.378 560.072C362.378 561.907 361.962 563.528 361.13 564.936C360.319 566.323 359.199 567.389 357.77 568.136C356.362 568.883 354.783 569.256 353.034 569.256ZM353.034 564.52C354.079 564.52 354.965 564.136 355.69 563.368C356.437 562.6 356.81 561.501 356.81 560.072C356.81 558.643 356.447 557.544 355.722 556.776C355.018 556.008 354.143 555.624 353.098 555.624C352.031 555.624 351.146 556.008 350.442 556.776C349.738 557.523 349.386 558.621 349.386 560.072C349.386 561.501 349.727 562.6 350.41 563.368C351.114 564.136 351.989 564.52 353.034 564.52ZM390.913 551.144L386.081 569H380.033L377.217 557.416L374.305 569H368.289L363.425 551.144H368.897L371.425 563.912L374.433 551.144H380.225L383.265 563.848L385.761 551.144H390.913ZM425.221 546.536V569H419.749V555.528L414.725 569H410.309L405.253 555.496V569H399.781V546.536H406.245L412.549 562.088L418.789 546.536H425.221ZM437.284 569.256C435.535 569.256 433.956 568.883 432.548 568.136C431.161 567.389 430.063 566.323 429.252 564.936C428.463 563.549 428.068 561.928 428.068 560.072C428.068 558.237 428.473 556.627 429.284 555.24C430.095 553.832 431.204 552.755 432.612 552.008C434.02 551.261 435.599 550.888 437.348 550.888C439.097 550.888 440.676 551.261 442.084 552.008C443.492 552.755 444.601 553.832 445.412 555.24C446.223 556.627 446.628 558.237 446.628 560.072C446.628 561.907 446.212 563.528 445.38 564.936C444.569 566.323 443.449 567.389 442.02 568.136C440.612 568.883 439.033 569.256 437.284 569.256ZM437.284 564.52C438.329 564.52 439.215 564.136 439.94 563.368C440.687 562.6 441.06 561.501 441.06 560.072C441.06 558.643 440.697 557.544 439.972 556.776C439.268 556.008 438.393 555.624 437.348 555.624C436.281 555.624 435.396 556.008 434.692 556.776C433.988 557.523 433.636 558.621 433.636 560.072C433.636 561.501 433.977 562.6 434.66 563.368C435.364 564.136 436.239 564.52 437.284 564.52ZM455.003 554.12C455.643 553.139 456.443 552.371 457.403 551.816C458.363 551.24 459.43 550.952 460.603 550.952V556.744H459.099C457.734 556.744 456.71 557.043 456.027 557.64C455.344 558.216 455.003 559.24 455.003 560.712V569H449.531V551.144H455.003V554.12ZM480.05 559.784C480.05 560.296 480.018 560.829 479.954 561.384H467.57C467.656 562.493 468.008 563.347 468.626 563.944C469.266 564.52 470.045 564.808 470.962 564.808C472.328 564.808 473.277 564.232 473.81 563.08H479.634C479.336 564.253 478.792 565.309 478.002 566.248C477.234 567.187 476.264 567.923 475.09 568.456C473.917 568.989 472.605 569.256 471.154 569.256C469.405 569.256 467.848 568.883 466.482 568.136C465.117 567.389 464.05 566.323 463.282 564.936C462.514 563.549 462.13 561.928 462.13 560.072C462.13 558.216 462.504 556.595 463.25 555.208C464.018 553.821 465.085 552.755 466.45 552.008C467.816 551.261 469.384 550.888 471.154 550.888C472.882 550.888 474.418 551.251 475.762 551.976C477.106 552.701 478.152 553.736 478.898 555.08C479.666 556.424 480.05 557.992 480.05 559.784ZM474.45 558.344C474.45 557.405 474.13 556.659 473.49 556.104C472.85 555.549 472.05 555.272 471.09 555.272C470.173 555.272 469.394 555.539 468.754 556.072C468.136 556.605 467.752 557.363 467.602 558.344H474.45Z" fill="white"/>
<path d="M390 764L398 772L390 780L382 772L390 764Z" fill="#8A08F0"/>
</svg>
